<?xml version="1.0" standalone="no"?>
<!DOCTYPE svg PUBLIC "-//W3C//DTD SVG 1.1//EN" "http://www.w3.org/Graphics/SVG/1.1/DTD/svg11.dtd" >
<svg>
<metadata>
Created by FontForge 20090914 at Thu Oct 23 10:36:55 2014
 By www-data
Copyright (c) 2001, 2005 Parachute&#194;&#168;, www.parachute.gr.  All rights reserved.
</metadata>
<defs>
<font id="PFHighwaySansPro-Regular" horiz-adv-x="1818" >
  <font-face 
    font-family="PF Highway Sans Pro"
    font-weight="400"
    font-stretch="normal"
    units-per-em="1000"
    panose-1="2 0 5 0 0 0 0 2 0 4"
    ascent="750"
    descent="-250"
    x-height="488"
    cap-height="651"
    bbox="-348.001 -251.006 1760 913.002"
    underline-thickness="50"
    underline-position="-50"
    unicode-range="U+0020-U+FB05"
  />
<missing-glyph horiz-adv-x="442" 
d="M0 700h442v-700h-442v700zM357 54l-136 247l-136 -247h272zM357 646h-272l136 -247zM54 103l135 247l-135 247v-494zM388 103v495l-136 -248z" />
    <glyph glyph-name="fj" unicode="fj" horiz-adv-x="468" 
d="M410 2c0 -31.333 -2.49707 -58.6689 -7.49707 -82.002s-14.333 -43.166 -28 -59.499s-32.334 -28.833 -56.001 -37.5s-54.167 -13.334 -91.5 -14.001l-6 72c23.333 4 41.666 8.83301 54.999 14.5s23.5 13 30.5 22s11.5 20.167 13.5 33.5s3 29.333 3 48v419h-145v-418h-89
v418h-63v70h63v70c0 22.667 4 42.334 12 59.001s19 30.5 33 41.5s30.667 19 50 24s40 7.5 62 7.5c24.667 0 48.667 -3 72 -9s40.666 -12 51.999 -18l-17 -69c-15.333 3.33301 -31.5 6.5 -48.5 9.5s-32.833 4.5 -47.5 4.5c-23.333 0 -42.333 -4.66699 -57 -14
s-22 -26.666 -22 -51.999v-54h144l88 20v-506z" />
    <glyph glyph-name="ffj" unicode="ffj" horiz-adv-x="697" 
d="M90 557c0 22.667 4.00195 42.498 12.002 59.498s19 30.833 33 41.5s30.5 18.667 49.5 24s39.833 8 62.5 8c20.667 0 41.167 -2.16699 61.5 -6.5s37.833 -9.16602 52.5 -14.499c14.667 13.333 32.167 23.166 52.5 29.499s42.833 9.5 67.5 9.5s48.667 -3 72 -9
s40.666 -12 51.999 -18l-17 -69c-15.333 3.33301 -31.5 6.5 -48.5 9.5s-33.167 4.5 -48.5 4.5c-22.667 0 -41.5 -4.66699 -56.5 -14s-22.5 -26.666 -22.5 -51.999v-72h137l90 20v-506c0 -31.333 -2.5 -58.666 -7.5 -81.999s-14.333 -43.166 -28 -59.499
s-32.334 -28.833 -56.001 -37.5s-54.167 -13.334 -91.5 -14.001l-6 72c23.333 4 41.833 8.83301 55.5 14.5s24 13 31 22s11.5 20.167 13.5 33.5s3 29.333 3 48v419h-141v-418h-88v418h-146v-418h-88v418h-63v70h63v69zM324.002 574.998
c0 4.66699 0.166992 8.99902 0.5 12.999s0.833008 8 1.5 12c-11.333 2 -22.833 3.83301 -34.5 5.5s-23.167 2.5 -34.5 2.5c-22.667 0 -41.5 -4.66699 -56.5 -14s-22.5 -26.666 -22.5 -51.999v-54h146v87z" />
    <glyph glyph-name="ff" unicode="ff" horiz-adv-x="546" 
d="M249 690c18.667 0 37.1689 -1.83105 55.502 -5.49805s34.166 -7.83398 47.499 -12.501c22 24 55 36 99 36c8.66699 0 19.167 -0.5 31.5 -1.5s23.166 -2.16699 32.499 -3.5l-3 -72c-8 0.666992 -14 1 -18 1h-14c-21.333 0 -37.5 -3.33301 -48.5 -10
s-16.5 -20.334 -16.5 -41.001v-93h97v-70h-97v-418h-88v418h-146v-418h-89v418h-62v70h62v68c0 22.667 4 42.5 12 59.5s19 31 33 42s30.667 19.167 50 24.5s40 8 62 8zM327.002 488.002v112c-11.333 2 -22.833 3.83301 -34.5 5.5s-22.5 2.5 -32.5 2.5
c-23.333 0 -42.333 -5 -57 -15s-22 -27.667 -22 -53v-52h146z" />
    <glyph glyph-name="fi" unicode="fi" horiz-adv-x="469" 
d="M324 0l-0.000976562 417.998h-147v-418h-88v418h-63v70h63v70c0 22.667 4 42.334 12 59.001s19 30.5 33 41.5s30.5 19 49.5 24s39.833 7.5 62.5 7.5c24 0 47.833 -3 71.5 -9s40.834 -12 51.501 -18l-17 -69c-15.333 3.33301 -31.333 6.5 -48 9.5s-32.667 4.5 -48 4.5
c-23.333 0 -42.333 -4.66699 -57 -14s-22 -26.666 -22 -51.999v-54h143l92 20v-508h-88z" />
    <glyph glyph-name="fl" unicode="fl" horiz-adv-x="489" 
d="M343 0l0.00195312 591.998c-14 3.33301 -28.167 6 -42.5 8s-27.833 3 -40.5 3c-23.333 0 -42.333 -4.66699 -57 -14s-22 -26.666 -22 -51.999v-49h91v-70h-91v-418h-88v418h-62v70h61v65c0 22.667 4 42.334 12 59.001s19 30.5 33 41.5s30.667 19 50 24s40 7.5 62 7.5
c19.333 0 38.666 -2 57.999 -6s35.666 -8.66699 48.999 -14l75 33v-698h-88z" />
    <glyph glyph-name="ffi" unicode="ffi" horiz-adv-x="710" 
d="M252 690c22.667 0 45.001 -2.66895 67.001 -8.00195s39.333 -11 52 -17c14 12 30.833 20.833 50.5 26.5s41.167 8.5 64.5 8.5c24.667 0 48.667 -3 72 -9s40.666 -12 51.999 -18l-17 -69c-16 3.33301 -32.333 6.5 -49 9.5s-32.667 4.5 -48 4.5
c-22.667 0 -41.5 -4.66699 -56.5 -14s-22.5 -26.666 -22.5 -51.999v-64h146l89 20v-508h-86v418h-149v-418h-88v418h-146v-418h-88v418h-63v70h63v70c0 22.667 4 42.334 12 59.001s19 30.5 33 41.5s30.667 19 50 24s40 7.5 62 7.5zM329.001 487.998l0.000976562 78.998
c0 11.333 1 22 3 32c-12 2.66699 -23.833 4.83398 -35.5 6.50098s-22.834 2.5 -33.501 2.5c-23.333 0 -42.333 -4.66699 -57 -14s-22 -26.666 -22 -51.999v-54h145z" />
    <glyph glyph-name="ffl" unicode="ffl" horiz-adv-x="725" 
d="M513 488l0.000976562 -70.0029h-92v-418h-89v418h-149v-418h-89v418h-62v70h62v70c0 22.667 4 42.334 12 59.001s19 30.5 33 41.5s30.667 19 50 24s40 7.5 62 7.5s43.833 -2.66699 65.5 -8s38.834 -10.666 51.501 -15.999c14 13.333 31.333 23.333 52 30s43.667 10 69 10
c19.333 0 38.666 -2 57.999 -6s35.666 -8.66699 48.999 -14l75 33v-719h-88v613c-14 3.33301 -28.167 6 -42.5 8s-27.833 3 -40.5 3c-23.333 0 -42.333 -4.66699 -57 -14s-22 -26.666 -22 -51.999v-70h92zM332.001 573.997c0 4.66699 0.166992 8.99805 0.5 12.998
s0.833008 8 1.5 12c-12.667 2.66699 -25 4.83398 -37 6.50098s-23.667 2.5 -35 2.5c-23.333 0 -42.333 -4.66699 -57 -14s-22 -26.666 -22 -51.999v-54h149v86z" />
    <glyph glyph-name="ft" unicode="ft" horiz-adv-x="571" 
d="M181 0l-88 -0.00292969v418h-63v70h63v74c0 43.333 10.833 74.833 32.5 94.5s52.167 29.5 91.5 29.5c8.66699 0 18.667 -0.333008 30 -1s22.333 -1.66699 33 -3l-2 -72c-5.33301 0.666992 -10.5 1 -15.5 1h-15.5c-17.333 0 -32.666 -3.16699 -45.999 -9.5
s-20 -20.166 -20 -41.499v-72h163v116l83 34v-150h103v-70h-103v-279c0 -26 4.16699 -43.833 12.5 -53.5s22.833 -14.5 43.5 -14.5c16 0 36.667 2 62 6c1.33301 -11.333 2.5 -22.666 3.5 -33.999s2.16699 -22.666 3.5 -33.999
c-12.667 -4.66699 -28.334 -8.66699 -47.001 -12s-36 -5 -52 -5c-41.333 0 -70 11.667 -86 35s-24 57 -24 101v290h-162v-418z" />
    <glyph glyph-name=".notdef" horiz-adv-x="442" 
d="M0 700h442v-700h-442v700zM357 54l-136 247l-136 -247h272zM357 646h-272l136 -247zM54 103l135 247l-135 247v-494zM388 103v495l-136 -248z" />
    <glyph glyph-name="space" unicode=" " horiz-adv-x="238" 
 />
    <glyph glyph-name="exclam" unicode="!" horiz-adv-x="265" 
d="M110 179l-17 220v252h91v-251l-17 -221h-57zM138 -9c-16 0 -29.499 5.49902 -40.499 16.499s-16.5 24.833 -16.5 41.5c0 19.333 6.16699 33.833 18.5 43.5s25.166 14.5 38.499 14.5c16.667 0 30.167 -5.66699 40.5 -17s15.5 -24.666 15.5 -39.999
c0 -16.667 -5.33301 -30.667 -16 -42s-24 -17 -40 -17z" />
    <glyph glyph-name="quotedbl" unicode="&#x22;" horiz-adv-x="377" 
d="M90 429l-19 222h91l-19 -222h-53zM235 429l-19 222h92l-19 -222h-54z" />
    <glyph glyph-name="numbersign" unicode="#" horiz-adv-x="618" 
d="M478 410l-27 -161h112l-13 -73h-112l-32 -176h-79l30 176h-145l-30 -176h-81l31 176h-111l12 73h112l28 161h-112l13 73h112l29 168h80l-29 -168h146l28 168h80l-28 -168h112l-13 -73h-113zM223 246h150l28 167h-149z" />
    <glyph glyph-name="dollar" unicode="$" horiz-adv-x="618" 
d="M261 -87l-0.00195312 93.9961c-35.333 4 -68.166 13.167 -98.499 27.5s-57.166 32.833 -80.499 55.5l56 63c23.333 -21.333 49.5 -38 78.5 -50s58.5 -18 88.5 -18c42 0 75.167 8 99.5 24s36.5 40.333 36.5 73c0 27.333 -10 48.333 -30 63s-51 28.667 -93 42
c-33.333 10.667 -63.5 21 -90.5 31s-50 21.833 -69 35.5s-33.667 30.167 -44 49.5s-15.5 44 -15.5 74c0 22 4 42.5 12 61.5s19.167 35.667 33.5 50s31.5 26.333 51.5 36s41.667 16.5 65 20.5v95h80v-93c66 -6 122.333 -29 169 -69l-53 -63c-45.333 36.667 -97 55 -155 55
c-37.333 0 -65.5 -8.33301 -84.5 -25s-28.5 -37.667 -28.5 -63c0 -14 3.33301 -26.167 10 -36.5s15.5 -19.166 26.5 -26.499s23.5 -13.666 37.5 -18.999s28 -10.333 42 -15l75 -25c26.667 -8.66699 51.167 -20.167 73.5 -34.5s41 -32.666 56 -54.999
s22.5 -50.833 22.5 -85.5c0 -50.667 -16.167 -91.667 -48.5 -123s-79.833 -49.666 -142.5 -54.999v-94h-80z" />
    <glyph glyph-name="percent" unicode="%" horiz-adv-x="858" 
d="M651 -6c-30 0 -56.333 5.16895 -79 15.502s-41.834 24.666 -57.501 42.999s-27.5 40 -35.5 65s-12 52.167 -12 81.5c0 28.667 4 55.5 12 80.5s19.833 46.667 35.5 65s34.834 32.666 57.501 42.999s49 15.5 79 15.5c28 0 53.5 -5 76.5 -15s42.667 -24 59 -42
s29 -39.5 38 -64.5s13.5 -52.5 13.5 -82.5c0 -30.667 -4.5 -58.5 -13.5 -83.5s-21.667 -46.5 -38 -64.5s-36 -32 -59 -42s-48.5 -15 -76.5 -15zM651 337.002c-36 0 -63 -12.6689 -81 -38.002s-27 -58.666 -27 -99.999c0 -19.333 2.33301 -37.5 7 -54.5
s11.5 -31.833 20.5 -44.5s20.167 -22.5 33.5 -29.5s29 -10.5 47 -10.5s33.833 3.5 47.5 10.5s25 16.833 34 29.5s15.833 27.5 20.5 44.5s7 35.167 7 54.5c0 40.667 -9.16699 73.834 -27.5 99.501s-45.5 38.5 -81.5 38.5zM204 248c-30 0 -56.333 5.16797 -79 15.501
s-41.834 24.666 -57.501 42.999s-27.5 39.833 -35.5 64.5s-12 51.667 -12 81c0 28.667 4 55.5 12 80.5s19.833 46.833 35.5 65.5s34.834 33.167 57.501 43.5s49 15.5 79 15.5c28 0 53.5 -5 76.5 -15s42.667 -24 59 -42s29 -39.5 38 -64.5s13.5 -52.833 13.5 -83.5
c0 -30 -4.5 -57.5 -13.5 -82.5s-21.667 -46.5 -38 -64.5s-36 -32 -59 -42s-48.5 -15 -76.5 -15zM204 591.001c-36 0 -63 -12.667 -81 -38s-27 -59 -27 -101c0 -19.333 2.33301 -37.333 7 -54s11.5 -31.334 20.5 -44.001s20.167 -22.5 33.5 -29.5s29 -10.5 47 -10.5
s33.833 3.5 47.5 10.5s25 16.833 34 29.5s15.833 27.334 20.5 44.001s7 34.667 7 54c0 42 -9.16699 75.667 -27.5 101s-45.5 38 -81.5 38zM183 -20.999l415 696h75l-416 -696h-74z" />
    <glyph glyph-name="ampersand" unicode="&#x26;" horiz-adv-x="739" 
d="M540 383c26.667 0 54.335 -2.00098 83.002 -6.00098s52.667 -9 72 -15l-13 -63c-17.333 4 -32.833 7 -46.5 9s-30.5 3.66699 -50.5 5c2 -17.333 3 -34.666 3 -51.999c0 -46.667 -7.16699 -87.167 -21.5 -121.5s-33.666 -62.666 -57.999 -84.999s-52.5 -39 -84.5 -50
s-65.333 -16.5 -100 -16.5c-42 0 -78.5 6.16699 -109.5 18.5s-56.833 28.666 -77.5 48.999s-36 43.5 -46 69.5s-15 53 -15 81c0 41.333 11.667 81.166 35 119.499s56 71.833 98 100.5c-47.333 42 -71 86.667 -71 134c0 14 2.5 29 7.5 45s13.167 30.667 24.5 44
s26 24.5 44 33.5s39.667 13.5 65 13.5c19.333 0 37.5 -3 54.5 -9s31.667 -14.667 44 -26s22.166 -25.333 29.499 -42s11 -35.667 11 -57c0 -17.333 -3.16699 -33.833 -9.5 -49.5s-14.333 -30.167 -24 -43.5s-20.334 -25.333 -32.001 -36s-22.834 -19.667 -33.501 -27
c13.333 -14 24.833 -27.167 34.5 -39.5s16.167 -27.166 19.5 -44.499c20.667 21.333 45.167 36.833 73.5 46.5s59.5 14.5 93.5 14.5zM326.001 58.999c32.667 0 60.335 6.00098 83.002 18.001s41.167 27.667 55.5 47s24.666 41.5 30.999 66.5s9.5 50.167 9.5 75.5
c0 7.33301 -0.333008 15 -1 23s-1.66699 15.667 -3 23c-28 -2 -53.833 -11.667 -77.5 -29s-46.167 -46.666 -67.5 -87.999l-56 27c5.33301 11.333 9.5 21.166 12.5 29.499s4.5 16.5 4.5 24.5c0 13.333 -4.33301 26.833 -13 40.5s-24 31.834 -46 54.501
c-14.667 -9.33301 -28 -20.5 -40 -33.5s-22.333 -26.833 -31 -41.5s-15.334 -29.834 -20.001 -45.501s-7 -30.834 -7 -45.501c0 -14 2.33301 -29.5 7 -46.5s13.167 -32.833 25.5 -47.5s29.333 -27 51 -37s49.167 -15 82.5 -15zM276.002 630
c-5.33301 0 -11.3311 -0.999023 -17.998 -2.99902s-12.834 -5.5 -18.501 -10.5s-10.5 -12 -14.5 -21s-6 -20.5 -6 -34.5c0 -22.667 4.83301 -41.5 14.5 -56.5s22.5 -30.167 38.5 -45.5c22.667 14.667 39.5 30.667 50.5 48s16.5 35.666 16.5 54.999
c0 16.667 -4.83301 32.167 -14.5 46.5s-25.834 21.5 -48.501 21.5z" />
    <glyph glyph-name="quotesingle" unicode="'" horiz-adv-x="239" 
d="M93 429l-19 222h91l-18 -222h-54z" />
    <glyph glyph-name="parenleft" unicode="(" horiz-adv-x="318" 
d="M129 289c0 -70 13.3311 -137.168 39.998 -201.501s60.334 -121.166 101.001 -170.499l-53 -45c-24 24 -46.833 51.5 -68.5 82.5s-40.667 64.333 -57 100s-29.333 72.834 -39 111.501s-14.5 78 -14.5 118c0 41.333 4.83301 82 14.5 122s22.667 78.167 39 114.5
s35.333 70.166 57 101.499s44.5 59.333 68.5 84l55 -44c-21.333 -25.333 -40.666 -53 -57.999 -83s-32.333 -61 -45 -93s-22.5 -64.667 -29.5 -98s-10.5 -66.333 -10.5 -99z" />
    <glyph glyph-name="parenright" unicode=")" horiz-adv-x="318" 
d="M186 289c0 32 -3.49707 64.668 -10.4971 98.001s-16.833 66.166 -29.5 98.499s-27.834 63.5 -45.501 93.5s-36.834 57.667 -57.501 83c0.666992 0.666992 3.66699 3.16699 9 7.5l18 14.5l18 14.5c5.33301 4.33301 8.66602 6.83301 9.99902 7.5
c24 -24.667 47 -52.667 69 -84s41.167 -65.166 57.5 -101.499s29.333 -74.5 39 -114.5s14.5 -80.667 14.5 -122c0 -40 -4.83301 -79.333 -14.5 -118s-22.667 -75.834 -39 -111.501s-35.5 -69 -57.5 -100s-45 -58.5 -69 -82.5c-0.666992 0.666992 -3.66699 3.16699 -9 7.5
l-17.5 14.5c-6.33301 5.33301 -12 10.333 -17 15s-7.83301 7.33398 -8.5 8.00098c40.667 49.333 74.167 106.166 100.5 170.499s39.5 131.5 39.5 201.5z" />
    <glyph glyph-name="asterisk" unicode="*" horiz-adv-x="454" 
d="M349 387l-28.001 -21l-28 -21l-31.5 52.5c-10.333 17.667 -21.166 35.167 -32.499 52.5l-63 -106l-56 43l77 93l-114 30l20 67l112 -47c-2 20 -3.66699 40 -5 60s-3 40.333 -5 61h69l-9 -121c18.667 7.33301 37.167 15 55.5 23l55.5 24l21 -67l-116 -30z" />
    <glyph glyph-name="plus" unicode="+" horiz-adv-x="618" 
d="M348 106h-80v167h-168v76h168v173h80v-173h169v-76h-169v-167z" />
    <glyph glyph-name="comma" unicode="," horiz-adv-x="220" 
d="M51 -80c14 10 25.6689 21.333 35.002 34s14.666 26.667 15.999 42c-16 0 -29.833 4.16699 -41.5 12.5s-17.5 21.833 -17.5 40.5c0 17.333 5.66699 31.666 17 42.999s25 17 41 17c19.333 0 35.166 -7.16699 47.499 -21.5s18.5 -33.5 18.5 -57.5
c0 -32 -8.66699 -59.667 -26 -83s-39 -42.666 -65 -57.999l-25 31v0z" />
    <glyph glyph-name="hyphen" unicode="-" horiz-adv-x="350" 
d="M54 352h243v-86h-243v86z" />
    <glyph glyph-name="period" unicode="." horiz-adv-x="212" 
d="M105 -9c-16 0 -29.667 5.5 -41 16.5s-17 25.167 -17 42.5s5.83301 31.5 17.5 42.5s25.167 16.5 40.5 16.5c16 0 29.5 -5.66699 40.5 -17s16.5 -25.333 16.5 -42s-5.5 -30.667 -16.5 -42s-24.5 -17 -40.5 -17z" />
    <glyph glyph-name="slash" unicode="/" horiz-adv-x="430" 
d="M-6 -79l354 806h84l-354 -806h-84z" />
    <glyph glyph-name="zero" unicode="0" horiz-adv-x="618" 
d="M311 -10c-44.667 0 -84.167 8.5 -118.5 25.5s-63.166 40.5 -86.499 70.5s-41 65.5 -53 106.5s-18 85.167 -18 132.5c0 46.667 6 90.5 18 131.5s29.667 76.667 53 107s52.166 54.166 86.499 71.499s73.833 26 118.5 26c42 0 80 -8.16699 114 -24.5s63 -39.166 87 -68.499
s42.667 -64.5 56 -105.5s20 -86.5 20 -136.5s-6.66699 -95.667 -20 -137s-32 -76.833 -56 -106.5s-53 -52.5 -87 -68.5s-72 -24 -114 -24zM311 577c-30 0 -56.334 -6.16602 -79.001 -18.499s-41.5 -29.5 -56.5 -51.5s-26.333 -48.333 -34 -79s-11.5 -64.667 -11.5 -102
c0 -36 3.66699 -69.333 11 -100s18.5 -57.334 33.5 -80.001s33.833 -40.5 56.5 -53.5s49.334 -19.5 80.001 -19.5c30 0 56.5 6.5 79.5 19.5s42 30.667 57 53s26.333 48.833 34 79.5s11.5 64 11.5 100c0 37.333 -3.83301 71.5 -11.5 102.5s-19.167 57.5 -34.5 79.5
s-34.333 39.167 -57 51.5s-49 18.5 -79 18.5z" />
    <glyph glyph-name="one" unicode="1" horiz-adv-x="618" 
d="M283 519l-85 0.00195312v60c16 1.33301 29.5 3.66602 40.5 6.99902s20.167 8 27.5 14s13.5 13.167 18.5 21.5s9.16699 18.166 12.5 29.499h78v-651h-92v519z" />
    <glyph glyph-name="two" unicode="2" horiz-adv-x="618" 
d="M67 0c2.66699 46 11.4951 86.5029 26.4951 121.503s34.333 66.167 58 93.5s50.334 51.666 80.001 72.999s60.834 41.666 93.501 60.999c21.333 12.667 39.333 24.334 54 35.001s26.5 21 35.5 31s15.5 20.167 19.5 30.5s6 22.166 6 35.499c0 31.333 -11.5 55.5 -34.5 72.5
s-55.5 25.5 -97.5 25.5c-28.667 0 -57.5 -5.5 -86.5 -16.5s-56.5 -26.5 -82.5 -46.5l-51 66c30.667 25.333 65.167 44.833 103.5 58.5s78.166 20.5 119.499 20.5c68.667 0 122.834 -15.333 162.501 -46s59.5 -73 59.5 -127c0 -22 -3 -42 -9 -60s-15.5 -35 -28.5 -51
s-30 -31.667 -51 -47s-46.167 -31.333 -75.5 -48c-32.667 -18.667 -60.167 -35.834 -82.5 -51.501s-40.666 -31.167 -54.999 -46.5s-25.666 -31.333 -33.999 -48s-15.166 -35 -20.499 -55h361v-81h-471z" />
    <glyph glyph-name="three" unicode="3" horiz-adv-x="618" 
d="M529 190c0 -31.333 -6.33594 -59.333 -19.0029 -84s-30.167 -45.667 -52.5 -63s-48.833 -30.5 -79.5 -39.5s-63.667 -13.5 -99 -13.5c-48 0 -91.333 8.16699 -130 24.5s-72 38.833 -100 67.5c2.66699 3.33301 6.83398 7.66602 12.501 12.999l18 17l17.5 16.5l13 12.5
c24 -23.333 50.333 -40.666 79 -51.999s58.667 -17 90 -17c22 0 42.5 2.5 61.5 7.5s35.5 12.5 49.5 22.5s25 22.333 33 37s12 31.667 12 51s-3.5 36 -10.5 50s-16.667 25.667 -29 35s-26.666 16.166 -42.999 20.499s-33.5 6.5 -51.5 6.5h-50v73h50
c16.667 0 32.167 2.83301 46.5 8.5s26.833 13.167 37.5 22.5s19 20.333 25 33s9 26 9 40c0 12 -2.33301 24 -7 36s-12.334 22.833 -23.001 32.5s-24.667 17.334 -42 23.001s-38.333 8.5 -63 8.5c-26 0 -52.667 -5 -80 -15s-52 -24 -74 -42l-11 13.5l-15 17.5l-15.5 18
l-11.5 14c28.667 24 61.334 42.667 98.001 56s75.334 20 116.001 20c32.667 0 62.667 -4 90 -12s50.833 -19.5 70.5 -34.5s35 -33 46 -54s16.5 -44.833 16.5 -71.5c0 -30.667 -8.5 -59.334 -25.5 -86.001s-43.5 -47.667 -79.5 -63v-2
c20.667 -5.33301 38.5 -13.166 53.5 -23.499s27.5 -22.333 37.5 -36s17.333 -28.167 22 -43.5s7 -30.333 7 -45z" />
    <glyph glyph-name="four" unicode="4" horiz-adv-x="618" 
d="M491 144v-144h-86v144h-367v77l179 215l179 215h95v-428h87v-79h-87zM405 536l-131 -157l-131 -156h262v313z" />
    <glyph glyph-name="five" unicode="5" horiz-adv-x="618" 
d="M555 217c0 -38 -6.33105 -71.168 -18.998 -99.501s-30.667 -52 -54 -71s-51.166 -33.167 -83.499 -42.5s-67.833 -14 -106.5 -14c-42.667 0 -82.667 5.16699 -120 15.5s-73 25.5 -107 45.5l40 70c30 -15.333 61.5 -27.666 94.5 -36.999s64.5 -14 94.5 -14
c52 0 93.167 12.167 123.5 36.5s45.5 59.5 45.5 105.5c0 20.667 -3.83301 39 -11.5 55s-18 29.333 -31 40s-28.5 18.667 -46.5 24s-37 8 -57 8c-27.333 0 -53.833 -4.16699 -79.5 -12.5s-47.834 -18.833 -66.501 -31.5l-86 33l23 323h403v-80h-325l-13 -186l2 -1
c26.667 14 52.667 23.5 78 28.5s50.666 7.5 75.999 7.5c35.333 0 67 -5 95 -15s51.667 -24 71 -42s34.166 -39.333 44.499 -64s15.5 -52 15.5 -82z" />
    <glyph glyph-name="six" unicode="6" horiz-adv-x="618" 
d="M560 205c0 -34.667 -6.33398 -65.333 -19.001 -92s-30.5 -49.167 -53.5 -67.5s-50.333 -32.166 -82 -41.499s-66.5 -14 -104.5 -14c-34 0 -65.833 5 -95.5 15s-55.5 25.5 -77.5 46.5s-39.333 47.667 -52 80s-19 71.166 -19 116.499c0 28 2.83301 57.333 8.5 88
s14.834 60.834 27.501 90.501s29.334 58 50.001 85s46 51.167 76 72.5s65 38.666 105 51.999s86 21.333 138 24v-80c-82 -5.33301 -148 -27 -198 -65s-86.333 -96.667 -109 -176h2c25.333 24.667 54 41.5 86 50.5s62 13.5 90 13.5c29.333 0 57.666 -3.83301 84.999 -11.5
s51.5 -19.667 72.5 -36s37.833 -37 50.5 -62s19 -54.5 19 -88.5zM468.999 200.001c0 44 -14.333 76.334 -43 97.001s-66 31 -112 31c-24 0 -46.167 -3 -66.5 -9s-37.833 -14.5 -52.5 -25.5s-26.167 -24.333 -34.5 -40s-12.5 -33.5 -12.5 -53.5c0 -16 3.33301 -32 10 -48
s16.667 -30.333 30 -43s29.833 -22.834 49.5 -30.501s42.5 -11.5 68.5 -11.5c49.333 0 88.833 11.833 118.5 35.5s44.5 56.167 44.5 97.5z" />
    <glyph glyph-name="seven" unicode="7" horiz-adv-x="618" 
d="M214 0c0.666992 50 6.00098 100.669 16.001 152.002s24.333 101.666 43 150.999s41.834 96.666 69.501 141.999s59.167 87 94.5 125h-368v81h465l1 -85c-32.667 -34.667 -62.834 -73 -90.501 -115s-51.667 -87 -72 -135s-36.333 -98.5 -48 -151.5
s-17.834 -107.833 -18.501 -164.5h-92z" />
    <glyph glyph-name="eight" unicode="8" horiz-adv-x="618" 
d="M571 186c0 -60.667 -23.001 -108.497 -69.001 -143.497s-110.333 -52.5 -193 -52.5c-83.333 0 -147 17 -191 51s-66 82.333 -66 145c0 16.667 2.5 33.167 7.5 49.5s12.667 31.833 23 46.5s23.5 27.667 39.5 39s35 20.666 57 27.999v1
c-20.667 7.33301 -37.5 16.666 -50.5 27.999s-23 23.166 -30 35.499s-11.667 24.5 -14 36.5s-3.5 22.667 -3.5 32c0 29.333 5.83301 55.166 17.5 77.499s27.834 41 48.501 56s45.167 26.333 73.5 34s59.166 11.5 92.499 11.5c31.333 0 61 -3.66699 89 -11
s52.333 -18.5 73 -33.5s37 -33.667 49 -56s18 -48.166 18 -77.499c0 -8.66699 -1.16699 -19 -3.5 -31s-7.16602 -24.333 -14.499 -37s-17.5 -24.834 -30.5 -36.501s-30.167 -21.167 -51.5 -28.5v-1c44 -12.667 76.5 -34.167 97.5 -64.5s31.5 -63.166 31.5 -98.499z
M450.999 480.003c0 14.667 -2.66602 28.499 -7.99902 41.499s-13.666 24.5 -24.999 34.5s-25.833 17.833 -43.5 23.5s-38.834 8.5 -63.501 8.5c-47.333 0 -82.5 -10.167 -105.5 -30.5s-34.5 -45.5 -34.5 -75.5c0 -31.333 13.167 -56.166 39.5 -74.499
s60.166 -27.5 101.499 -27.5c42.667 0 76.5 9.16699 101.5 27.5s37.5 42.5 37.5 72.5zM481 185.002c0 40 -14.832 70.5 -44.499 91.5s-71.834 31.5 -126.501 31.5c-52 0 -93 -10.5 -123 -31.5s-45 -50.5 -45 -88.5c0 -40 15.167 -70.833 45.5 -92.5s71.5 -32.5 123.5 -32.5
c50 0 90.833 10.667 122.5 32s47.5 51.333 47.5 90z" />
    <glyph glyph-name="nine" unicode="9" horiz-adv-x="618" 
d="M558 401c0 -42 -6.66699 -86.3301 -20 -132.997s-35.666 -90 -66.999 -130s-73 -73.667 -125 -101s-116.667 -43 -194 -47v79c82 4.66699 147.833 26 197.5 64s86.167 96.667 109.5 176l-2 2c-13.333 -13.333 -27.833 -24.333 -43.5 -33s-31.334 -15.334 -47.001 -20.001
s-31 -7.83398 -46 -9.50098s-28.833 -2.5 -41.5 -2.5c-29.333 0 -57.5 3.83301 -84.5 11.5s-51 19.5 -72 35.5s-37.667 36.5 -50 61.5s-18.5 54.833 -18.5 89.5s6.5 65.5 19.5 92.5s31 49.667 54 68s50.333 32.166 82 41.499s66.167 14 103.5 14
c34 0 65.833 -4.83301 95.5 -14.5s55.667 -25 78 -46s39.833 -47.833 52.5 -80.5s19 -72 19 -118zM466 450.003c0 16 -3.33301 31.665 -10 46.998s-16.5 29.333 -29.5 42s-29.333 22.834 -49 30.501s-42.834 11.5 -69.501 11.5c-50 0 -90 -11.667 -120 -35
s-45 -55.666 -45 -96.999c0 -44 14.833 -76.333 44.5 -97s67.5 -31 113.5 -31c48.667 0 88.334 11.5 119.001 34.5s46 54.5 46 94.5z" />
    <glyph glyph-name="colon" unicode=":" horiz-adv-x="230" 
d="M116 -9c-16 0 -29.668 5.5 -41.001 16.5s-17 25.167 -17 42.5s5.83301 31.5 17.5 42.5s25.167 16.5 40.5 16.5c16.667 0 30.334 -5.66699 41.001 -17s16 -25.333 16 -42s-5.5 -30.667 -16.5 -42s-24.5 -17 -40.5 -17zM115.999 305c-16 0 -29.668 5.66699 -41.001 17
s-17 25.333 -17 42c0 17.333 5.83301 31.5 17.5 42.5s25.167 16.5 40.5 16.5c16.667 0 30.334 -5.83301 41.001 -17.5s16 -25.5 16 -41.5c0 -16.667 -5.5 -30.667 -16.5 -42s-24.5 -17 -40.5 -17z" />
    <glyph glyph-name="semicolon" unicode=";" horiz-adv-x="237" 
d="M122 305c-16.667 0 -30.833 5.66699 -42.5 17s-17.5 25.333 -17.5 42c0 17.333 6 31.5 18 42.5s26 16.5 42 16.5s29.667 -5.66699 41 -17s17 -25.333 17 -42s-5.66699 -30.667 -17 -42s-25 -17 -41 -17zM66.001 -81c14 10 25.6689 21.334 35.002 34.001
s14.666 27 15.999 43c-16 -1.33301 -29.833 3 -41.5 13s-17.5 23.667 -17.5 41s5.66699 31.666 17 42.999s25 17 41 17c19.333 0 35.166 -7.16699 47.499 -21.5s18.5 -33.5 18.5 -57.5c0 -32.667 -8.66699 -60.667 -26 -84s-39 -43 -65 -59z" />
    <glyph glyph-name="less" unicode="&#x3c;" horiz-adv-x="618" 
d="M110 285v68.001l91 46l106 54.5l105.5 54l90.5 45.5v-87l-294 -146l66 -34.5l81 -42.5l81 -42.5c26 -13.667 48 -24.834 66 -33.501v-87z" />
    <glyph glyph-name="equal" unicode="=" horiz-adv-x="618" 
d="M512 256v-79h-408v79h408zM512 452v-78h-408v78h408z" />
    <glyph glyph-name="greater" unicode="&#x3e;" horiz-adv-x="618" 
d="M111 80l-0.00195312 88l295 153c-7.33301 3.33301 -18.666 8.83301 -33.999 16.5l-52.5 26l-61 30.5l-61 30.5l-52.5 26c-15.333 7.66699 -26.666 13.167 -33.999 16.5v87l47 -23.5l69.5 -35l81 -41.5l81 -41.5l69 -35l46.5 -23.5v-69z" />
    <glyph glyph-name="question" unicode="?" horiz-adv-x="497" 
d="M253 659c32 0 60.3311 -4.5 84.998 -13.5s45.5 -21.333 62.5 -37s29.833 -34 38.5 -55s13 -43.5 13 -67.5c0 -22 -4 -41.167 -12 -57.5s-17.833 -31.5 -29.5 -45.5s-24.5 -27.667 -38.5 -41s-27 -27.833 -39 -43.5s-22 -33.334 -30 -53.001s-12.333 -42.5 -13 -68.5h-86
c0 28.667 3.83301 54.334 11.5 77.001s17.334 43.167 29.001 61.5s24.167 34.833 37.5 49.5l37 42.5c11.333 13.667 20.833 27 28.5 40s11.5 27.167 11.5 42.5c0 9.33301 -2 19.166 -6 29.499s-10.333 19.833 -19 28.5s-20 15.834 -34 21.501s-31 8.5 -51 8.5
c-21.333 0 -39.5 -3.66699 -54.5 -11s-27.5 -16.833 -37.5 -28.5s-17.667 -24.167 -23 -37.5s-9 -26 -11 -38h-88c2 31.333 9.33301 59.166 22 83.499s28.834 44.833 48.501 61.5s42.167 29.334 67.5 38.001s52 13 80 13zM246.998 -7c-16.667 0 -30.333 5.00098 -41 15.001
s-16 23.333 -16 40c0 19.333 6.16699 33.666 18.5 42.999s25.5 14 39.5 14c16 0 29.167 -5.5 39.5 -16.5s15.5 -24.5 15.5 -40.5s-5.5 -29.167 -16.5 -39.5s-24.167 -15.5 -39.5 -15.5z" />
    <glyph glyph-name="at" unicode="@" horiz-adv-x="844" 
d="M384 134c-18 0 -35.1631 3.33398 -51.4961 10.001s-30.5 16.5 -42.5 29.5s-21.5 29.5 -28.5 49.5s-10.5 43 -10.5 69c0 38 4.66699 70.667 14 98s21.5 49.833 36.5 67.5s32.167 30.834 51.5 39.501s38.666 13 57.999 13c15.333 0 31.166 -3 47.499 -9
s31.166 -15.667 44.499 -29h1l3 31h67l-22 -259v-7c0 -14 3.5 -25 10.5 -33s16.833 -12 29.5 -12c14.667 0 29 4.5 43 13.5s26.333 21.5 37 37.5s19.167 35.167 25.5 57.5s9.5 46.833 9.5 73.5c0 40.667 -7.33301 76.667 -22 108s-34.334 57.666 -59.001 78.999
s-53.167 37.5 -85.5 48.5s-66.166 16.5 -101.499 16.5c-44 0 -84.667 -7.66699 -122 -23s-69.833 -36.333 -97.5 -63s-49.167 -58.167 -64.5 -94.5s-23 -75.833 -23 -118.5c0 -46 7.5 -87.833 22.5 -125.5s36 -69.667 63 -96s59.333 -46.666 97 -60.999
s79.167 -21.5 124.5 -21.5c19.333 0 37.5 0.833008 54.5 2.5s33.333 4.16699 49 7.5s31.5 7.66602 47.5 12.999s32.667 11.666 50 18.999l10 -28l10 -28c-34 -12.667 -68.333 -22.834 -103 -30.501s-72.667 -11.5 -114 -11.5c-54 0 -103.833 8.16699 -149.5 24.5
s-85.167 40 -118.5 71s-59.5 68.833 -78.5 113.5s-28.5 95 -28.5 151c0 50.667 9.33301 97.667 28 141s44.5 81 77.5 113s72.167 57 117.5 75s94.333 27 147 27c50 0 95.667 -7.33301 137 -22s76.666 -35.5 105.999 -62.5s52 -59.333 68 -97s24 -79.5 24 -125.5
c0 -38 -5.16699 -72.167 -15.5 -102.5s-24.166 -56 -41.499 -77s-37.5 -37.167 -60.5 -48.5s-47.167 -17 -72.5 -17c-18.667 0 -36.834 4.33301 -54.501 13s-29.5 21.334 -35.5 38.001h-2c-32 -32 -67.667 -48 -107 -48zM403.004 196.001
c15.333 0 30.668 4.33398 46.001 13.001s26.666 19 33.999 31l13 165c-8 11.333 -18.833 21.333 -32.5 30s-28.5 13 -44.5 13c-15.333 0 -28.833 -4 -40.5 -12s-21.5 -18.833 -29.5 -32.5s-14.167 -29.5 -18.5 -47.5s-6.5 -37.333 -6.5 -58c0 -32.667 7 -57.834 21 -75.501
s33.333 -26.5 58 -26.5z" />
    <glyph glyph-name="A" unicode="A" horiz-adv-x="635" 
d="M169 149l-28 -75l-28 -74h-97l254 651h102l126 -325.5l128 -325.5h-99l-28 74l-28 75h-302zM442 228l-61 159.001c-20.667 51.333 -40.667 106.666 -60 165.999h-3l-121 -325h245z" />
    <glyph glyph-name="B" unicode="B" horiz-adv-x="603" 
d="M436 351c33.333 -8 61.499 -25.999 84.499 -53.999s34.5 -62 34.5 -102c0 -62.667 -19.167 -110.834 -57.5 -144.501s-92.166 -50.5 -161.499 -50.5h-270v651h274c56 0 101.333 -14 136 -42s52 -68 52 -120c0 -30 -8.5 -57.5 -25.5 -82.5s-39.167 -42.5 -66.5 -52.5v-3z
M155.999 569.001l0.000976562 -182.001h176c32 0 57.167 8.83301 75.5 26.5s27.5 39.834 27.5 66.501c0 27.333 -8.33301 49 -25 65s-41.334 24 -74.001 24h-180zM156 307l-0.000976562 -224h178c42.667 0 74.334 9.83301 95.001 29.5s31 47.167 31 82.5
c0 36.667 -12.167 64.5 -36.5 83.5s-54.5 28.5 -90.5 28.5h-177z" />
    <glyph glyph-name="C" unicode="C" horiz-adv-x="565" 
d="M45 327c0 51.333 6.66699 97.667 20 139s32.333 76.5 57 105.5s54.167 51.333 88.5 67s72.166 23.5 113.499 23.5c46.667 0 87.167 -8 121.5 -24s64.166 -39.333 89.499 -70l-65 -62c-22 24.667 -44.833 42.5 -68.5 53.5s-49.834 16.5 -78.501 16.5
c-29.333 0 -55.166 -6.16699 -77.499 -18.5s-41.333 -29.5 -57 -51.5s-27.5 -48.333 -35.5 -79s-12 -64 -12 -100c0 -35.333 3.83301 -68.333 11.5 -99s19.334 -57.334 35.001 -80.001s35 -40.5 58 -53.5s49.5 -19.5 79.5 -19.5c56 0 105.667 24.667 149 74l65 -58
c-25.333 -31.333 -55.166 -56 -89.499 -74s-76.5 -27 -126.5 -27c-41.333 0 -79 7.66699 -113 23s-63.333 37.5 -88 66.5s-43.667 64.333 -57 106s-20 88.834 -20 141.501z" />
    <glyph glyph-name="D" unicode="D" horiz-adv-x="622" 
d="M71 0l0.00292969 651h175c44.667 0 86.667 -5.83301 126 -17.5s73.666 -30.5 102.999 -56.5s52.666 -59.667 69.999 -101s26 -91.333 26 -150s-8.66699 -108.667 -26 -150s-41 -75 -71 -101s-64.833 -45 -104.5 -57s-81.834 -18 -126.501 -18h-172zM163.003 568
l-0.000976562 -485h79c78.667 0 137.334 21.833 176.001 65.5s58 102.5 58 176.5c0 36.667 -4.83301 70 -14.5 100s-24.167 55.5 -43.5 76.5s-43.5 37.333 -72.5 49s-63.167 17.5 -102.5 17.5h-80z" />
    <glyph glyph-name="E" unicode="E" horiz-adv-x="522" 
d="M64 651h429v-83h-336v-181h238v-83h-238v-221h348v-83h-441v651z" />
    <glyph glyph-name="F" unicode="F" horiz-adv-x="506" 
d="M69 651h431v-84h-339v-189h238v-83h-238v-295h-92v651z" />
    <glyph glyph-name="G" unicode="G" horiz-adv-x="605" 
d="M319 660c46 0 86.3359 -7.83789 121.003 -23.5049s65 -39.5 91 -71.5l-67 -62c-41.333 47.333 -90.333 71 -147 71c-30 0 -56.167 -6.16699 -78.5 -18.5s-41.166 -29.666 -56.499 -51.999s-26.833 -48.666 -34.5 -78.999s-11.5 -63.5 -11.5 -99.5
c0 -38 3.83301 -72.5 11.5 -103.5s19.334 -57.5 35.001 -79.5s35 -39 58 -51s49.833 -18 80.5 -18c32 0 58.333 5.83301 79 17.5s36.667 26.334 48 44.001s19.166 36.667 23.499 57s6.5 39.5 6.5 57.5h-107v78h201v-67c0 -42 -5.83301 -79.667 -17.5 -113
s-28.5 -61.666 -50.5 -84.999s-48.667 -41.166 -80 -53.499s-66.333 -18.5 -105 -18.5c-44 0 -83.167 7.83301 -117.5 23.5s-63.333 38.167 -87 67.5s-41.834 64.5 -54.501 105.5s-19 87.167 -19 138.5c0 52 6.66699 98.667 20 140s32.166 76.5 56.499 105.5
s53.666 51.167 87.999 66.5s72.166 23 113.499 23z" />
    <glyph glyph-name="H" unicode="H" horiz-adv-x="632" 
d="M475 297h-318v-297h-94v651h94v-270h318v270h93v-651h-93v297z" />
    <glyph glyph-name="I" unicode="I" horiz-adv-x="254" 
d="M80 651h94v-651h-94v651z" />
    <glyph glyph-name="J" unicode="J" horiz-adv-x="561" 
d="M489 256c0 -89.333 -19.166 -156.001 -57.499 -200.001s-97.5 -66 -177.5 -66c-63.333 0 -113 14 -149 42s-62.667 67.667 -80 119l88 32c13.333 -35.333 31 -62.166 53 -80.499s51.667 -27.5 89 -27.5c51.333 0 87.666 16.167 108.999 48.5s32 78.5 32 138.5v389h93
v-395v0z" />
    <glyph glyph-name="K" unicode="K" horiz-adv-x="591" 
d="M469 0l-20 37.5l-32.5 61l-38.5 73l-38.5 73l-32.5 61.5l-20 38l-25.5 -32.5l-39.5 -50l-40 -50l-26 -32.5v-179h-93v651h93v-344h3l79 103l40.5 52l53 68l53 68l40.5 53h107l-40 -49.5l-52 -65l-51.5 -65l-39.5 -50.5l30.5 -56.5l39.5 -73l43.5 -81l43.5 -81l39 -73
l30 -56.5h-106z" />
    <glyph glyph-name="L" unicode="L" horiz-adv-x="495" 
d="M63 651h93v-567h332v-84h-425v651z" />
    <glyph glyph-name="M" unicode="M" horiz-adv-x="725" 
d="M566 451h-2l-72 -162l-132 -285l-124 275l-76 173h-3v-452h-91v651h96l114 -255l86 -195h4l86 196l114 254h91v-651h-91v451z" />
    <glyph glyph-name="N" unicode="N" horiz-adv-x="623" 
d="M478 0l-29.5 44l-41 62.5l-48 73l-50 76l-46.5 71.5l-38 59l-68 107h-3v-493h-92v651h90l48 -73.5l57.5 -87.5l58 -87l48.5 -73l104 -165h3v486h91v-651h-84z" />
    <glyph glyph-name="O" unicode="O" horiz-adv-x="644" 
d="M321 -10c-44 0 -83.166 8.33105 -117.499 24.998s-63.333 39.834 -87 69.501s-41.5 65 -53.5 106s-18 85.833 -18 134.5c0 48 6.16699 92.5 18.5 133.5s30.166 76.5 53.499 106.5s52.333 53.5 87 70.5s74 25.5 118 25.5c42 0 80 -8 114 -24s63 -38.833 87 -68.5
s42.5 -65 55.5 -106s19.5 -86.5 19.5 -136.5c0 -50.667 -6.5 -96.667 -19.5 -138s-31.5 -76.666 -55.5 -105.999s-53 -52 -87 -68s-72.333 -24 -115 -24zM321.001 576.998c-30 0 -56.333 -6.33105 -79 -18.998s-41.5 -30.167 -56.5 -52.5s-26.333 -48.833 -34 -79.5
s-11.5 -64 -11.5 -100c0 -34.667 3.83301 -67.334 11.5 -98.001s19 -57.334 34 -80.001s34 -40.667 57 -54s49.5 -20 79.5 -20s56.333 6.66699 79 20s41.5 31.5 56.5 54.5s26.333 49.667 34 80s11.5 62.5 11.5 96.5c0 36 -3.83301 69.5 -11.5 100.5s-19 57.667 -34 80
s-34 39.833 -57 52.5s-49.5 19 -79.5 19z" />
    <glyph glyph-name="P" unicode="P" horiz-adv-x="560" 
d="M548 451c0 -34 -5.33203 -63.833 -15.999 -89.5s-25.834 -47 -45.501 -64s-43 -29.833 -70 -38.5s-56.833 -13 -89.5 -13h-172v-246h-91v651h270c31.333 0 60 -4.16699 86 -12.5s48.5 -20.833 67.5 -37.5s33.833 -37.5 44.5 -62.5s16 -54.167 16 -87.5zM155.001 569
v-240.998h176c38.667 0.666992 68.667 11.167 90 31.5s32 50.166 32 89.499s-11.5 69.166 -34.5 89.499s-52.833 30.5 -89.5 30.5h-174z" />
    <glyph glyph-name="Q" unicode="Q" horiz-adv-x="646" 
d="M602 327c0 -58.667 -8.83301 -110.83 -26.5 -156.497s-43.167 -83.834 -76.5 -114.501l41 -63l-12.5 -8l-20.5 -13.5l-20.5 -14l-12.5 -8.5l-42 64c-35.333 -14.667 -71 -22 -107 -22c-42 0 -80 7.83301 -114 23.5s-63 38 -87 67s-42.5 64.167 -55.5 105.5
s-19.5 87.666 -19.5 138.999c0 50.667 6.5 96.667 19.5 138s31.5 76.666 55.5 105.999s53 51.833 87 67.5s72 23.5 114 23.5c42.667 0 81 -7.83301 115 -23.5s63 -38 87 -67s42.5 -64.167 55.5 -105.5s19.5 -87.333 19.5 -138zM507 326.004
c0 36.667 -3.83105 70.335 -11.498 101.002s-19 57.167 -34 79.5s-34 39.666 -57 51.999s-49.5 18.5 -79.5 18.5s-56.333 -6.16699 -79 -18.5s-41.5 -29.5 -56.5 -51.5s-26.333 -48.333 -34 -79s-11.5 -64.334 -11.5 -101.001s3.66699 -70.5 11 -101.5
s18.5 -57.667 33.5 -80s33.667 -40 56 -53s48.5 -19.5 78.5 -19.5c9.33301 0 19.666 0.833008 30.999 2.5s21.666 4.5 30.999 8.5l-44 67l64 43l42 -63c22 25.333 37.5 54.333 46.5 87s13.5 68.667 13.5 108z" />
    <glyph glyph-name="R" unicode="R" horiz-adv-x="592" 
d="M551 453c0 -50 -11.834 -90.832 -35.501 -122.499s-56.5 -53.834 -98.5 -66.501l127 -264h-102l-115 252h-172v-252h-91v651h274c30.667 0 59.167 -4 85.5 -12s48.833 -20.167 67.5 -36.5s33.334 -36.833 44.001 -61.5s16 -54 16 -88zM154.999 569.001v-237h178
c39.333 0 69.833 10.5 91.5 31.5s32.5 50.5 32.5 88.5s-11.333 67 -34 87s-52.667 30 -90 30h-178z" />
    <glyph glyph-name="S" unicode="S" horiz-adv-x="545" 
d="M285 661c42 0 80.666 -6.33203 115.999 -18.999s67.333 -30.667 96 -54c-1.33301 -1.33301 -4.66602 -5.33301 -9.99902 -12l-17.5 -22l-18 -22c-5.66699 -6.66699 -8.83398 -10.334 -9.50098 -11.001c-48 38 -103 57 -165 57c-39.333 0 -69 -8.83301 -89 -26.5
s-30 -39.5 -30 -65.5c0 -14.667 3.5 -27.167 10.5 -37.5s16.333 -19.333 28 -27s24.834 -14.334 39.501 -20.001s29.667 -10.834 45 -15.501l78 -25.5c28 -9 54 -21 78 -36s43.833 -34.167 59.5 -57.5s23.5 -53.333 23.5 -90c0 -58.667 -21 -104.5 -63 -137.5
s-102.333 -49.5 -181 -49.5c-46 0 -88.833 7.83301 -128.5 23.5s-73.5 36.834 -101.5 63.501l59 67c25.333 -22 53 -39.333 83 -52s61 -19 93 -19c44 0 78.833 7.83301 104.5 23.5s38.5 41.5 38.5 77.5c0 16.667 -3.66699 30.834 -11 42.501s-17.666 22 -30.999 31
s-29.5 16.833 -48.5 23.5s-40.167 13.667 -63.5 21c-32 10 -60.833 20 -86.5 30s-47.334 22 -65.001 36s-31.167 30.833 -40.5 50.5s-14 43.834 -14 72.501c0 27.333 5.66699 52.166 17 74.499s27 41.333 47 57s43.333 27.667 70 36s55.667 12.5 87 12.5z" />
    <glyph glyph-name="T" unicode="T" horiz-adv-x="514" 
d="M305 0h-91v568h-196v83h484v-83h-197v-568z" />
    <glyph glyph-name="U" unicode="U" horiz-adv-x="627" 
d="M313 -10c-78.667 0 -139.834 23.5 -183.501 70.5s-65.5 117.5 -65.5 211.5v379h93v-375c0 -62.667 13.167 -111.834 39.5 -147.501s65.833 -53.5 118.5 -53.5c54.667 0 94.834 17.333 120.501 52s38.5 82.334 38.5 143.001v381h94v-380
c0 -94.667 -22.5 -165.167 -67.5 -211.5s-107.5 -69.5 -187.5 -69.5z" />
    <glyph glyph-name="V" unicode="V" horiz-adv-x="610" 
d="M256 0l-231 651h100c3.33301 -10.667 8.33301 -25.667 15 -45l22 -65l26 -76.5l27 -80l25 -74l21 -59.5l47 -142h3l11.5 35.5l14 43l15 46.5c5 16 10.167 31.667 15.5 47l124 370h99l-229 -651h-105z" />
    <glyph glyph-name="W" unicode="W" horiz-adv-x="776" 
d="M389 498l-30.001 -130.002l-12.5 -49.5l-16 -64l-17.5 -71.5l-17 -71.5l-15 -63.5l-12 -48h-103c-2.66699 10.667 -7.66699 32.667 -15 66l-25.5 117l-30.5 142.5l-30.5 142.5l-25.5 117c-7.33301 33.333 -12.333 55.333 -15 66h96l14 -71l19.5 -99.5l21.5 -107.5l19 -94
c1.33301 -8.66699 3.16602 -19.334 5.49902 -32.001l7.5 -39.5l7.5 -39.5c2.33301 -12.667 4.5 -23.334 6.5 -32.001h3l33 142l19.5 81l25.5 105.5l25 105.5l19 81h90c2 -7.33301 5.33301 -20.666 10 -39.999l16 -67l19.5 -81l19.5 -81.5l16 -67.5
c4.66699 -19.333 8 -32.666 10 -39.999l31 -138h2l28 138c1.33301 8 4 21.833 8 41.5l13 67c4.66699 25 9.83398 51.333 15.501 79l16 79.5l13 67.5c3.66699 19.667 6.5 33.834 8.5 42.501h93l-15 -69.5l-25 -116.5l-30 -139.5l-30.5 -139.5l-25.5 -116.5l-15 -69.5h-105
l-87 366c-0.666992 4 -2.5 12.333 -5.5 25l-9.5 41c-3.33301 14.667 -6.66602 28.334 -9.99902 41.001s-5.33301 21 -6 25h-2z" />
    <glyph glyph-name="X" unicode="X" horiz-adv-x="565" 
d="M281 258l-150 -258h-105l207 334l-194 317h107l137 -238l139 238h103l-194 -315l206 -336h-106z" />
    <glyph glyph-name="Y" unicode="Y" horiz-adv-x="580" 
d="M335 228v-228h-92v228l-237 423h105l44 -85l45 -86l45 -85l44 -86l45.5 86.5l45.5 85.5l44 84.5l45 85.5h103z" />
    <glyph glyph-name="Z" unicode="Z" horiz-adv-x="562" 
d="M37 80l385 488h-366v83h475v-81l-385 -487h384v-83h-493v80z" />
    <glyph glyph-name="bracketleft" unicode="[" horiz-adv-x="323" 
d="M68 700h212v-76h-123v-662h123v-77h-212v815z" />
    <glyph glyph-name="backslash" unicode="\" horiz-adv-x="433" 
d="M348 -79l-354 806h84l354 -806h-84z" />
    <glyph glyph-name="bracketright" unicode="]" horiz-adv-x="330" 
d="M277 -115h-212v77h123v662h-123v76h212v-815z" />
    <glyph glyph-name="asciicircum" unicode="^" horiz-adv-x="531" 
d="M267 571l-124 -240h-85l175 320h70l174 -320h-87z" />
    <glyph glyph-name="underscore" unicode="_" horiz-adv-x="498" 
d="M0 -69h498v-65h-498v65z" />
    <glyph glyph-name="grave" unicode="`" horiz-adv-x="490" 
d="M138 716l96 18l73 -167l-47 -16z" />
    <glyph glyph-name="a" unicode="a" horiz-adv-x="488" 
d="M346 0l-0.000976562 46.001h-2c-24.667 -22.667 -49.667 -37.667 -75 -45s-49 -11 -71 -11c-19.333 0 -38.833 2.83301 -58.5 8.5s-37.334 14.5 -53.001 26.5s-28.334 27.667 -38.001 47s-14.5 42.666 -14.5 69.999c0 25.333 4.66699 48 14 68s22.166 37 38.499 51
s35.833 24.667 58.5 32s47.334 11 74.001 11c20.667 0 41.334 -2 62.001 -6s42.334 -12 65.001 -24v52c0 65.333 -35.333 98 -106 98c-23.333 0 -45.5 -2.83301 -66.5 -8.5s-42.167 -13.5 -63.5 -23.5l-27 67c24.667 12 50.5 21.5 77.5 28.5s56.833 10.5 89.5 10.5
c58.667 0 103.834 -13.667 135.501 -41s47.5 -68 47.5 -122v-335h-87zM345.999 205.001c-17.333 10 -35.333 18.1689 -54 24.502s-40.667 9.5 -66 9.5c-28.667 0 -53.167 -7.83301 -73.5 -23.5s-30.5 -37.834 -30.5 -66.501s8.5 -50.667 25.5 -66s41.5 -23 73.5 -23
c23.333 1.33301 46 7.66602 68 18.999s41 25.333 57 42v84z" />
    <glyph glyph-name="b" unicode="b" horiz-adv-x="513" 
d="M281 497c24 0 47.166 -4.33203 69.499 -12.999s42.166 -22.667 59.499 -42s31.166 -44.5 41.499 -75.5s15.5 -68.5 15.5 -112.5c0 -44.667 -5.33301 -83.5 -16 -116.5s-24.667 -60.5 -42 -82.5s-37.666 -38.333 -60.999 -49s-47.333 -16 -72 -16
c-21.333 0 -43.166 3.83301 -65.499 11.5s-44.166 22.167 -65.499 43.5h-2v-45h-88v660l88 37v-257h2c24.667 21.333 48 36.166 70 44.499s44 12.5 66 12.5zM258.999 422.001c-23.333 0 -45.333 -6.66797 -66 -20.001s-37.334 -27.666 -50.001 -42.999v-231
c13.333 -16.667 30 -31.5 50 -44.5s42.333 -19.5 67 -19.5c34.667 0 62.834 15.833 84.501 47.5s33.167 74.167 34.5 127.5c0 122 -40 183 -120 183z" />
    <glyph glyph-name="c" unicode="c" horiz-adv-x="448" 
d="M257 497c34 0 64.3311 -5.50098 90.998 -16.501s51.334 -29.167 74.001 -54.5l-56 -57c-18 18.667 -35.667 32 -53 40s-36.333 12 -57 12c-20 0 -37.5 -4.83301 -52.5 -14.5s-27.667 -22.834 -38 -39.501s-18.166 -36.667 -23.499 -60s-8 -48.333 -8 -75
c0 -48 10.833 -87.5 32.5 -118.5s52.5 -46.5 92.5 -46.5c20.667 0 39.667 4.33301 57 13s34.666 22 51.999 40l56 -53c-21.333 -24 -45.333 -42.833 -72 -56.5s-59 -20.5 -97 -20.5c-29.333 0 -56.666 5 -81.999 15s-47.5 25 -66.5 45s-34 44.833 -45 74.5
s-16.5 64.167 -16.5 103.5c0 42.667 5.16699 80.834 15.5 114.501s24.833 61.834 43.5 84.501s41 40 67 52s54.667 18 86 18z" />
    <glyph glyph-name="d" unicode="d" horiz-adv-x="511" 
d="M246 497c24 0 45.834 -4.33301 65.501 -13s37.834 -20.667 54.501 -36h3v212l88 37v-697h-88v46h-2c-22.667 -22 -45.667 -36.833 -69 -44.5s-46.333 -11.5 -69 -11.5c-25.333 0 -49.333 4.5 -72 13.5s-42.334 23 -59.001 42s-29.834 43.333 -39.501 73
s-14.5 65.167 -14.5 106.5c0 48.667 6 90.167 18 124.5s27.5 62.5 46.5 84.5s40.5 38 64.5 48s48.333 15 73 15zM258.001 422c-40 0 -71 -16.833 -93 -50.5s-33 -81.834 -33 -144.501c0 -52 10.333 -92.167 31 -120.5s50 -42.5 88 -42.5c25.333 0 48 6.5 68 19.5
s37 27.833 51 44.5v231c-13.333 16.667 -29.5 31.334 -48.5 44.001s-40.167 19 -63.5 19z" />
    <glyph glyph-name="e" unicode="e" horiz-adv-x="499" 
d="M257 497c34 0 63.835 -5.99902 89.502 -17.999s47.167 -28.833 64.5 -50.5s30.333 -47.834 39 -78.501s13 -64.667 13 -102v-35h-331c3.33301 -48.667 17.5 -85.667 42.5 -111s55.5 -38 91.5 -38c20.667 0 41.167 4 61.5 12s38.166 18.667 53.499 32l46 -55
c-24.667 -22.667 -50.834 -38.834 -78.501 -48.501s-58.167 -14.5 -91.5 -14.5c-32 0 -61 5.33301 -87 16s-48.333 26.5 -67 47.5s-33.167 47 -43.5 78s-15.5 66.5 -15.5 106.5s5.33301 75.833 16 107.5s25.5 58.834 44.5 81.501s41.5 40 67.5 52s54.333 18 85 18z
M376.002 278.001c0 20 -2.50098 38.833 -7.50098 56.5s-12.333 33 -22 46s-22.167 23.333 -37.5 31s-33.666 11.5 -54.999 11.5c-32 0 -59.5 -13.167 -82.5 -39.5s-36.167 -61.5 -39.5 -105.5h244z" />
    <glyph glyph-name="f" unicode="f" horiz-adv-x="303" 
d="M182 488l102 0.000976562v-70h-102v-418h-89v418h-62v70h62v91c0 40 11.167 69.167 33.5 87.5s52.5 27.5 90.5 27.5c9.33301 0 20.833 -0.333008 34.5 -1s25.167 -2 34.5 -4l-2 -71c-8 0.666992 -15.167 1 -21.5 1h-17.5c-20 0 -35.5 -3.33301 -46.5 -10
s-16.5 -20.334 -16.5 -41.001v-80z" />
    <glyph glyph-name="g" unicode="g" horiz-adv-x="513" 
d="M458 36c0 -59.333 -16.168 -110.667 -48.501 -154s-85.833 -74 -160.5 -92l-27 73c32.667 10 58.834 21.333 78.501 34s34.667 25.667 45 39s17.166 27 20.499 41s5 27.333 5 40v34h-3c-25.333 -22.667 -48.833 -37.834 -70.5 -45.501s-43.834 -11.5 -66.501 -11.5
c-25.333 0 -49.166 4.16699 -71.499 12.5s-42 22 -59 41s-30.5 43.833 -40.5 74.5s-15 68.334 -15 113.001c0 44 5.33301 82.333 16 115s24.834 60 42.501 82s37.834 38.333 60.501 49s46.334 16 71.001 16c23.333 0 46.166 -4.16699 68.499 -12.5
s44.166 -22.5 65.499 -42.5v46h89v-452zM369.999 357.999c-13.333 16.667 -29.9971 31.667 -49.9971 45s-42.667 20 -68 20c-34.667 0 -62.834 -15.833 -84.501 -47.5s-33.167 -74.167 -34.5 -127.5c0 -120 40.333 -180 121 -180c23.333 0 45.166 6.83301 65.499 20.5
s37.166 28.167 50.499 43.5v226z" />
    <glyph glyph-name="h" unicode="h" horiz-adv-x="501" 
d="M453 0h-87.999v289c0 41.333 -8.33301 73.666 -25 96.999s-43.667 35 -81 35c-28 0 -51.833 -8.66699 -71.5 -26s-32.834 -39.333 -39.501 -66c-3.33301 -13.333 -5 -27.666 -5 -42.999v-286h-88v660l88 37v-271h3c18 24.667 40 42.667 66 54s50.667 17 74 17
c57.333 0 99.5 -16.667 126.5 -50s40.5 -81 40.5 -143v-304z" />
    <glyph glyph-name="i" unicode="i" horiz-adv-x="241" 
d="M77 488h88v-488h-88v488zM67 620c0 15.333 5.16699 28.166 15.5 38.499s23.166 15.5 38.499 15.5c14.667 0 27.334 -5.16699 38.001 -15.5s16 -23.166 16 -38.499c0 -14.667 -5.33301 -27.334 -16 -38.001s-23.334 -16 -38.001 -16c-15.333 0 -28.166 5.33301 -38.499 16
s-15.5 23.334 -15.5 38.001z" />
    <glyph glyph-name="j" unicode="j" horiz-adv-x="242" 
d="M170 -8c0 -31.333 -2.49902 -58.832 -7.49902 -82.499s-14.167 -43.5 -27.5 -59.5s-31.833 -28.333 -55.5 -37s-54.5 -13.334 -92.5 -14.001l-6 73c23.333 4 41.666 8.83301 54.999 14.5s23.5 13 30.5 22s11.5 20 13.5 33s3 28.833 3 47.5v499h87v-496zM74.001 620.001
c0 15.333 5.16699 28.166 15.5 38.499s23.166 15.5 38.499 15.5c14.667 0 27.167 -5.16699 37.5 -15.5s15.5 -23.166 15.5 -38.499c0 -14.667 -5.16699 -27.334 -15.5 -38.001s-22.833 -16 -37.5 -16c-15.333 0 -28.166 5.33301 -38.499 16s-15.5 23.334 -15.5 38.001z" />
    <glyph glyph-name="k" unicode="k" horiz-adv-x="459" 
d="M349 0l-24.5 56l-31.5 72.5l-31.5 73l-24.5 56.5l-95 -120v-138h-87v660l87 37v-434h2l64 83l111 141h106l-128 -158l32.5 -72l42 -93l42 -92.5l32.5 -71.5h-97z" />
    <glyph glyph-name="l" unicode="l" horiz-adv-x="218" 
d="M65 0v660l88 38v-698h-88z" />
    <glyph glyph-name="m" unicode="m" horiz-adv-x="772" 
d="M144 425c17.333 26 38.167 44.3311 62.5 54.998s48.166 16 71.499 16c33.333 0 61.166 -7.33301 83.499 -22s38.833 -35 49.5 -61c25.333 32 51 53.833 77 65.5s52 17.5 78 17.5c56.667 0 96.834 -16.667 120.501 -50s35.5 -80.666 35.5 -141.999v-304h-88v289
c0 20.667 -1.5 39 -4.5 55s-8.16699 29.667 -15.5 41s-17 20 -29 26s-27.333 9 -46 9c-25.333 0 -47.166 -8.66699 -65.499 -26s-30.5 -38.666 -36.5 -63.999c-4 -12 -6 -25.333 -6 -40v-290h-87v292c0 40 -6.83301 71.333 -20.5 94s-38.5 34 -74.5 34
c-26 0 -47.833 -8.33301 -65.5 -25s-29.834 -37.667 -36.501 -63c-1.33301 -6.66699 -2.66602 -14 -3.99902 -22s-2 -16.333 -2 -25v-285h-88v488h88v-63h3z" />
    <glyph glyph-name="n" unicode="n" horiz-adv-x="501" 
d="M452 0l-87.999 -0.00195312v289c0 42.667 -8.33301 75.334 -25 98.001s-43.667 34 -81 34c-28 0 -51.833 -8.66699 -71.5 -26s-32.834 -39.333 -39.501 -66c-3.33301 -13.333 -5 -27.666 -5 -42.999v-286h-88v488h88v-64l3 -1c17.333 26 39 44.833 65 56.5
s51 17.5 75 17.5c58 0 100.333 -16.667 127 -50s40 -81 40 -143v-304z" />
    <glyph glyph-name="o" unicode="o" horiz-adv-x="525" 
d="M257 -10c-32 0 -61 5.66504 -87 16.998s-48.333 27.833 -67 49.5s-33 47.834 -43 78.501s-15 65.334 -15 104.001c0 41.333 5.5 78 16.5 110s26.333 59 46 81s42.834 38.667 69.501 50s56 17 88 17c31.333 0 60.166 -5.66699 86.499 -17s49 -27.666 68 -48.999
s33.833 -47.333 44.5 -78s16 -65.334 16 -104.001c0 -41.333 -5.66699 -78 -17 -110s-27 -59 -47 -81s-43.5 -38.833 -70.5 -50.5s-56.5 -17.5 -88.5 -17.5zM262 421.998c-20.667 0 -38.832 -4.50098 -54.499 -13.501s-29 -21.5 -40 -37.5s-19.333 -34.667 -25 -56
s-8.5 -44.333 -8.5 -69c0 -56 10.667 -100.167 32 -132.5s53 -48.5 95 -48.5c20.667 0 39.167 4.83301 55.5 14.5s30.166 22.667 41.499 39s19.833 35.333 25.5 57s8.5 44.5 8.5 68.5c0 26 -2.66699 49.833 -8 71.5s-13.5 40.334 -24.5 56.001s-24.5 28 -40.5 37
s-35 13.5 -57 13.5z" />
    <glyph glyph-name="p" unicode="p" horiz-adv-x="513" 
d="M281 498c24 0 47.334 -4.66699 70.001 -14s42.5 -24 59.5 -44s30.667 -45.5 41 -76.5s15.5 -67.833 15.5 -110.5c0 -46.667 -5.83301 -86.667 -17.5 -120s-26.834 -60.5 -45.501 -81.5s-39.834 -36.333 -63.501 -46s-47.5 -14.5 -71.5 -14.5s-46 4 -66 12
s-39.667 21.333 -59 40h-2v-201c-3.33301 -1.33301 -9.16602 -3.83301 -17.499 -7.5l-26 -11.5l-26 -11.5c-8.33301 -3.66699 -14.166 -6.16699 -17.499 -7.5v685h88v-47h2c21.333 20.667 43.666 35.167 66.999 43.5s46.333 12.5 69 12.5zM260.001 424
c-25.333 0 -48 -6.50098 -68 -19.501s-36.667 -27.833 -50 -44.5v-231c12.667 -17.333 29.167 -32.166 49.5 -44.499s41.5 -18.5 63.5 -18.5c40 0 70.667 15.333 92 46s32 76 32 136c0 56 -10.833 99.333 -32.5 130s-50.5 46 -86.5 46z" />
    <glyph glyph-name="q" unicode="q" horiz-adv-x="511" 
d="M235 497c22.667 0 45.166 -3.83301 67.499 -11.5s43.833 -22.167 64.5 -43.5h2v46h88v-646l-88 -38v243h-2c-24.667 -21.333 -48 -36.166 -70 -44.499s-44 -12.5 -66 -12.5c-25.333 0 -49.333 4.5 -72 13.5s-42.5 23.5 -59.5 43.5s-30.333 45.833 -40 77.5
s-14.5 70.167 -14.5 115.5c0 44 5.5 82 16.5 114s25.333 58.667 43 80s37.834 37.166 60.501 47.499s46 15.5 70 15.5zM251.999 424c-17.333 0 -33.167 -4.32812 -47.5 -12.9951s-26.833 -20.834 -37.5 -36.501s-19 -34.334 -25 -56.001s-9.33301 -45.834 -10 -72.501
c0 -120.667 39.667 -181 119 -181c23.333 0 45.5 6.66699 66.5 20s38.167 27.666 51.5 42.999v230c-13.333 17.333 -30 32.666 -50 45.999s-42.333 20 -67 20z" />
    <glyph glyph-name="r" unicode="r" horiz-adv-x="363" 
d="M340 400c-12 2 -23.334 3.66699 -34.001 5s-21 2 -31 2c-79.333 0 -119 -43.333 -119 -130v-277h-88v488h88v-66h2c14 26 32.833 45 56.5 57s48.834 18 75.501 18c22 0 44.667 -4 68 -12z" />
    <glyph glyph-name="s" unicode="s" horiz-adv-x="449" 
d="M410 132c0 -23.333 -4.83398 -43.8291 -14.501 -61.4961s-23.167 -32.5 -40.5 -44.5s-37.666 -21 -60.999 -27s-48.333 -9 -75 -9c-30.667 0 -61.834 4.16699 -93.501 12.5s-60.834 20.166 -87.501 35.499l32 66c25.333 -14 51.166 -24.667 77.499 -32s50.5 -11 72.5 -11
c12.667 0 25.167 1.16699 37.5 3.5s23.333 6.16602 33 11.499s17.5 12.166 23.5 20.499s9 18.5 9 30.5c0 12.667 -2.66699 23.334 -8 32.001s-13 16.334 -23 23.001s-22 12.667 -36 18s-29.333 10.666 -46 15.999c-24 7.33301 -45.833 15.5 -65.5 24.5
s-36.5 19.167 -50.5 30.5s-24.833 24.5 -32.5 39.5s-11.5 32.167 -11.5 51.5c0 40 15.667 72.5 47 97.5s76.333 37.5 135 37.5c28.667 0 56.5 -3 83.5 -9s52.833 -15.667 77.5 -29l-29 -67c-25.333 13.333 -49.666 22.166 -72.999 26.499s-43 6.5 -59 6.5
c-34 0 -59 -5.83301 -75 -17.5s-24 -25.5 -24 -41.5c0 -8 1.33301 -15.333 4 -22s7.66699 -13 15 -19s17.5 -11.833 30.5 -17.5s30.167 -11.5 51.5 -17.5c25.333 -7.33301 48.833 -15.5 70.5 -24.5s40.334 -19.5 56.001 -31.5s27.834 -26.333 36.501 -43
s13 -36.334 13 -59.001z" />
    <glyph glyph-name="t" unicode="t" horiz-adv-x="332" 
d="M185 488l102.001 -0.00195312v-71h-102v-287c0 -22.667 4.33301 -38.167 13 -46.5s22.667 -12.5 42 -12.5c16 0 36.667 2 62 6l8 -67c-13.333 -5.33301 -29.166 -9.66602 -47.499 -12.999s-35.5 -5 -51.5 -5c-36.667 0 -64.334 9.66699 -83.001 29s-28 49.666 -28 90.999
v305h-74v71h75v116c1.33301 0.666992 6.16602 2.83398 14.499 6.50098l27 11.5l27.5 11.5c8.66699 3.66699 13.667 5.83398 15 6.50098v-152z" />
    <glyph glyph-name="u" unicode="u" horiz-adv-x="500" 
d="M52 488l88.002 0.000976562v-290c0 -42.667 8 -74.834 24 -96.501s42.333 -32.5 79 -32.5c28 0 51.167 8 69.5 24s31.166 37 38.499 63c4 14 6 29.333 6 46v286h88v-488h-88v63h-3c-18.667 -26 -40.334 -44.667 -65.001 -56s-48.667 -17 -72 -17c-110 0 -165 62 -165 186
v312z" />
    <glyph glyph-name="v" unicode="v" horiz-adv-x="467" 
d="M180 0l-38 108.5l-47.5 135.5l-47 135.5l-37.5 108.5h91l19 -60.5l23 -73l23.5 -73l19.5 -59.5c2 -4.66699 4.83301 -13 8.5 -25l12 -38l12.5 -38c4 -12 6.66699 -20.333 8 -25h3l40 126l20.5 59.5l25.5 73l25.5 73l21.5 60.5h89l-39 -108.5l-50.5 -135.5l-51 -135.5
l-39.5 -108.5h-92z" />
    <glyph glyph-name="w" unicode="w" horiz-adv-x="647" 
d="M319 364l-24.999 -99l-71 -265h-81l-29 108.5l-37 135.5l-36.5 135.5l-29.5 108.5h89l56 -230l29 -134h3c1.33301 6 3.33301 14.5 6 25.5s5.66699 22.667 9 35l10 38c3.33301 13 6.66602 25.167 9.99902 36.5l14.5 56.5l17.5 67l16.5 62l11.5 43.5h80l63 -239l28 -126h3
l29 128c4 14 8.5 31.5 13.5 52.5l16 65.5l16 65.5l12.5 53.5h89l-30 -108.5l-37.5 -135.5l-37.5 -135.5l-29 -108.5h-84l-14.5 54.5l-20 78l-21 82l-17.5 67.5l-20 82h-2z" />
    <glyph glyph-name="x" unicode="x" horiz-adv-x="436" 
d="M318 0l-103.001 190l-104 -190h-97l153 252l-141 236h98l93 -173l94 173h97l-143 -233c2.66699 -4 8 -12.5 16 -25.5l28 -46l33.5 -56l33.5 -56l27.5 -46c7.66699 -13 12.834 -21.5 15.501 -25.5h-101z" />
    <glyph glyph-name="y" unicode="y" horiz-adv-x="478" 
d="M134 -188l63.999 178.999l-26 68l-31.5 85.5l-35 94l-35 94.5l-31.5 86l-26 69h92l85 -246l10 -32l13 -40l13 -40c4 -12.667 7.66699 -23.334 11 -32.001h3c2.66699 8.66699 6.33398 19.334 11.001 32.001s9.16699 26 13.5 40l13 40
c4.33301 12.667 7.83301 23.334 10.5 32.001l87 246h88l-34 -93.5l-42.5 -116.5l-46.5 -128.5l-46.5 -128.5l-42.5 -116.5l-34 -92.5h-83z" />
    <glyph glyph-name="z" unicode="z" horiz-adv-x="459" 
d="M142 74c0 -0.666992 0.166992 -1 0.5 -1s0.5 -0.333008 0.5 -1h273v-72h-379v69l59 75.5l77 96.5l76.5 96.5l58.5 75.5c0 1.33301 -0.333008 2.33301 -1 3h-252v72h360v-69l-37 -46.5l-47.5 -59.5l-52.5 -66.5l-52.5 -66.5l-47 -59.5z" />
    <glyph glyph-name="braceleft" unicode="{" horiz-adv-x="332" 
d="M247 -114c-46.667 0 -79.667 13.0029 -99 39.0029s-29 60.667 -29 104v116c0 13.333 -1.16699 26.666 -3.5 39.999s-6.16602 25.333 -11.499 36s-12.333 19.667 -21 27s-19.667 11.666 -33 12.999v58c14 1.33301 25.333 5.66602 34 12.999s15.667 16.333 21 27
s9 22.834 11 36.501s3 27.5 3 41.5v117c0 42 10.167 75.5 30.5 100.5s53.166 37.5 98.499 37.5h52v-70h-40c-22 0 -36.833 -8.33301 -44.5 -25s-11.5 -38.667 -11.5 -66v-98c0 -38.667 -7.16699 -69.834 -21.5 -93.501s-32.166 -39.5 -53.499 -47.5v-4
c21.333 -7.33301 39.166 -22.5 53.499 -45.5s21.5 -55.5 21.5 -97.5v-99c0 -26.667 3.83301 -48.5 11.5 -65.5s22.5 -25.5 44.5 -25.5h40v-69h-53z" />
    <glyph glyph-name="bar" unicode="|" horiz-adv-x="248" 
d="M89 -123v871h81v-871h-81z" />
    <glyph glyph-name="braceright" unicode="}" horiz-adv-x="332" 
d="M52 -114l-0.000976562 68.998h40c21.333 0 36 8.5 44 25.5s12 38.833 12 65.5v99c0 42 7.16699 74.5 21.5 97.5s32.166 38.167 53.499 45.5v4c-21.333 8 -39.166 23.833 -53.499 47.5s-21.5 54.834 -21.5 93.501v98c0 27.333 -4 49.333 -12 66s-22.667 25 -44 25h-40v70
h49c46.667 0 80.334 -12.333 101.001 -37s31 -58.334 31 -101.001v-120c0 -14 1.16699 -27.667 3.5 -41s6.16602 -25.166 11.499 -35.499s12.333 -19 21 -26s19.667 -11.167 33 -12.5v-58c-13.333 -1.33301 -24.333 -5.66602 -33 -12.999s-15.667 -16.5 -21 -27.5
s-9.16602 -23 -11.499 -36s-3.5 -26.167 -3.5 -39.5v-126c-1.33301 -40.667 -12 -73 -32 -97s-52 -36 -96 -36h-53z" />
    <glyph glyph-name="asciitilde" unicode="~" horiz-adv-x="618" 
d="M414 263c-16 0 -32.666 3.33203 -49.999 9.99902s-34.833 14 -52.5 22s-34.834 15.333 -51.501 22s-32 10 -46 10c-18.667 0 -34.667 -5.16699 -48 -15.5s-26.666 -24.166 -39.999 -41.499l-51 26c8.66699 20 18.667 36.667 30 50s23.166 24 35.499 32s25 13.667 38 17
s25.167 5 36.5 5c18 0 36 -3.16699 54 -9.5s35.833 -13.5 53.5 -21.5s34.5 -15.167 50.5 -21.5s30.667 -9.5 44 -9.5c18.667 0 34.5 4.66699 47.5 14s26.167 23.666 39.5 42.999l49 -30c-16 -35.333 -35.5 -61.166 -58.5 -77.499s-49.833 -24.5 -80.5 -24.5z" />
    <glyph glyph-name="exclamdown" unicode="&#xa1;" horiz-adv-x="265" 
d="M166 289l17 -220v-242h-91v241l18 221h56zM138 486c16 0 29.333 -5.49902 40 -16.499s16 -24.5 16 -40.5c0 -18.667 -5.66699 -33 -17 -43s-24.333 -15 -39 -15c-16 0 -29.667 5.16699 -41 15.5s-17 24.166 -17 41.499c0 16 5.5 29.667 16.5 41s24.833 17 41.5 17z" />
    <glyph glyph-name="cent" unicode="&#xa2;" horiz-adv-x="618" 
d="M115 243c0 73.333 16.501 131.501 49.501 174.501s76.5 68.5 130.5 76.5v108h59v-106c54.667 -5.33301 101.667 -30 141 -74l-55 -56c-19.333 19.333 -37.333 33.333 -54 42s-36 13 -58 13c-20 0 -37.667 -4.33301 -53 -13s-28.166 -20.834 -38.499 -36.501
s-18.333 -34.167 -24 -55.5s-8.5 -44.666 -8.5 -69.999s2.66699 -49 8 -71s13.166 -41 23.499 -57s23.5 -28.5 39.5 -37.5s35 -13.5 57 -13.5s41.5 4.5 58.5 13.5s34.5 22.833 52.5 41.5l54 -51c-16.667 -22 -36.834 -39.833 -60.501 -53.5s-51.167 -22.167 -82.5 -25.5
v-109h-59v110c-26.667 3.33301 -51 11.333 -73 24s-41 29.5 -57 50.5s-28.333 46.167 -37 75.5s-13 62.666 -13 99.999z" />
    <glyph glyph-name="sterling" unicode="&#xa3;" horiz-adv-x="618" 
d="M79 77c28 27.333 48.832 55.1709 62.499 83.5039s21.167 62.833 22.5 103.5h-85v70h76c-3.33301 13.333 -7.16602 26.166 -11.499 38.499l-12.5 37c-4 12.333 -7.33301 24.666 -10 36.999s-4 25.166 -4 38.499c0 22.667 4.83301 44.667 14.5 66s23.5 40.166 41.5 56.499
s40 29.333 66 39s55 14.5 87 14.5c54 0 97.667 -9.66699 131 -29s61.666 -47 84.999 -83l-37 -24l-36 -25c-17.333 25.333 -37 45 -59 59s-49.667 21 -83 21c-14 0 -28 -2 -42 -6s-26.667 -10.333 -38 -19s-20.666 -19.667 -27.999 -33s-11 -29 -11 -47
c0 -10 1.33301 -20.5 4 -31.5s6 -22.5 10 -34.5l12 -36.5c4 -12.333 7.33301 -24.833 10 -37.5h155v-70h-147v-10c0 -31.333 -5.5 -62 -16.5 -92s-28.167 -58.333 -51.5 -85h354v-78h-459v77z" />
    <glyph glyph-name="currency" unicode="&#xa4;" horiz-adv-x="618" 
d="M72 501l49.998 51.9971l68 -68c17.333 11.333 36 20.333 56 27s41 10 63 10c42 0 81 -12.333 117 -37l68 68c8 -9.33301 16.333 -18.166 25 -26.499s17.334 -17.166 26.001 -26.499l-68 -67c11.333 -17.333 20.166 -35.833 26.499 -55.5s9.5 -40.167 9.5 -61.5
s-3.16699 -41.666 -9.5 -60.999s-15.166 -38.333 -26.499 -57l34 -32l34 -33l-51 -52l-34 34l-34 34c-18 -13.333 -36.833 -23 -56.5 -29s-40.167 -9 -61.5 -9s-41.666 3 -60.999 9s-38.333 15.667 -57 29l-68 -69l-50 52l68 66c-25.333 38 -38 77.333 -38 118
c0 20.667 3.33301 41 10 61s16 38.667 28 56zM173.998 315.997c0 -18.667 3.50098 -36.167 10.501 -52.5s16.5 -30.5 28.5 -42.5s26.167 -21.5 42.5 -28.5s33.5 -10.5 51.5 -10.5s35.167 3.5 51.5 10.5s30.666 16.5 42.999 28.5s22 26.167 29 42.5s10.5 33.833 10.5 52.5
s-3.5 36.167 -10.5 52.5s-16.5 30.5 -28.5 42.5s-26.167 21.5 -42.5 28.5s-33.833 10.5 -52.5 10.5c-18 0 -35.167 -3.5 -51.5 -10.5s-30.5 -16.5 -42.5 -28.5s-21.5 -26.167 -28.5 -42.5s-10.5 -33.833 -10.5 -52.5z" />
    <glyph glyph-name="yen" unicode="&#xa5;" horiz-adv-x="618" 
d="M74 295h164l-37 67h-127v65h92l-122 224h106l162 -326l163 326h103l-123 -224h95v-65h-131l-37 -67h168v-65h-194v-230h-92v230h-190v65z" />
    <glyph glyph-name="brokenbar" unicode="&#xa6;" horiz-adv-x="244" 
d="M87 309v439h81v-439h-81zM87 -197v437h81v-437h-81z" />
    <glyph glyph-name="section" unicode="&#xa7;" horiz-adv-x="559" 
d="M210 396l12.0029 -34.002c4 -11.333 8.33301 -22.666 13 -33.999c-16.667 -5.33301 -29.834 -12.666 -39.501 -21.999s-14.5 -19.666 -14.5 -30.999c0 -16 8.33301 -29.833 25 -41.5s44 -23.834 82 -36.501c26 -8.66699 51 -17.667 75 -27s45 -20 63 -32
s32.5 -26.167 43.5 -42.5s16.5 -35.5 16.5 -57.5c0 -22.667 -5.5 -42.834 -16.5 -60.501s-26 -32.5 -45 -44.5s-41.167 -21 -66.5 -27s-52.333 -9 -81 -9c-32.667 0 -66.334 4.33301 -101.001 13s-66 20.667 -94 36l17 32.5l17 31.5c26.667 -14 54.5 -24.5 83.5 -31.5
s56.167 -10.5 81.5 -10.5c13.333 0 26.833 1.16699 40.5 3.5s26.167 6.16602 37.5 11.499s20.5 12 27.5 20s10.5 18 10.5 30c0 10.667 -3.5 20.334 -10.5 29.001s-16.5 16.5 -28.5 23.5s-26.333 13.5 -43 19.5s-34.334 12 -53.001 18c-24 8 -46.167 16.5 -66.5 25.5
s-38 19.333 -53 31s-26.667 24.834 -35 39.501s-12.5 31.667 -12.5 51c0 30 10.167 56 30.5 78s48.5 38 84.5 48zM338.003 278.998c14 5.33301 25.668 12.667 35.001 22s14 21.333 14 36c0 11.333 -3 21.333 -9 30s-14.5 16.334 -25.5 23.001s-24 12.834 -39 18.501
s-31.5 11.5 -49.5 17.5c-24 8 -46.167 16.333 -66.5 25s-38 18.5 -53 29.5s-26.667 24 -35 39s-12.5 32.5 -12.5 52.5c0 40 16.667 72.5 50 97.5s80.333 37.5 141 37.5c59.333 0 115.666 -13 168.999 -39l-15.5 -33l-15.5 -33c-26 12.667 -51 21.667 -75 27s-44.667 8 -62 8
c-34 0 -60.167 -5.83301 -78.5 -17.5s-27.5 -25.834 -27.5 -42.501s8 -30.667 24 -42s43.333 -23.666 82 -36.999c26.667 -8.66699 51.334 -17.5 74.001 -26.5s42.167 -19.333 58.5 -31s29.166 -25.334 38.499 -41.001s14 -34.834 14 -57.501
c0 -32 -9.83301 -58.667 -29.5 -80s-45.5 -37.333 -77.5 -48z" />
    <glyph glyph-name="dieresis" unicode="&#xa8;" horiz-adv-x="489" 
d="M355 575c-14 0 -26.167 5 -36.5 15s-15.5 22 -15.5 36s5.16699 25.833 15.5 35.5s22.5 14.5 36.5 14.5c13.333 0 24.833 -4.83301 34.5 -14.5s14.5 -21.5 14.5 -35.5s-4.83301 -26 -14.5 -36s-21.167 -15 -34.5 -15zM156 575c-13.333 0 -25.166 5 -35.499 15
s-15.5 22 -15.5 36s5.16699 25.833 15.5 35.5s22.166 14.5 35.499 14.5s25.166 -4.83301 35.499 -14.5s15.5 -21.5 15.5 -35.5s-5.16699 -26 -15.5 -36s-22.166 -15 -35.499 -15z" />
    <glyph glyph-name="copyright" unicode="&#xa9;" horiz-adv-x="765" 
d="M386 -11c-47.333 0 -91.166 8.66699 -131.499 26s-75.333 41 -105 71s-53 65.667 -70 107s-25.5 86 -25.5 134s8.5 92.667 25.5 134s40.333 77 70 107s64.667 53.667 105 71s84.166 26 131.499 26c46.667 0 90.334 -8.66699 131.001 -26s75.834 -41 105.501 -71
s53 -65.667 70 -107s25.5 -86 25.5 -134s-8.5 -92.667 -25.5 -134s-40.333 -77 -70 -107s-64.834 -53.667 -105.501 -71s-84.334 -26 -131.001 -26zM386 611c-39.333 0 -76 -7.16699 -110 -21.5s-63.333 -34.333 -88 -60s-44 -55.834 -58 -90.501s-21 -72 -21 -112
s7 -77.333 21 -112s33.333 -64.834 58 -90.501s54 -45.667 88 -60s70.667 -21.5 110 -21.5s75.833 7.16699 109.5 21.5s63 34.333 88 60s44.5 55.834 58.5 90.501s21 72 21 112s-7 77.333 -21 112s-33.5 64.834 -58.5 90.501s-54.333 45.667 -88 60
s-70.167 21.5 -109.5 21.5zM220 324c0 30.667 3.99902 58.501 11.999 83.501s19.5 46.5 34.5 64.5s33 31.833 54 41.5s44.167 14.5 69.5 14.5c32 0 58.833 -6.33301 80.5 -19s39.834 -30.667 54.501 -54l-51 -31c-11.333 16.667 -23.333 29 -36 37s-28.667 12 -48 12
c-35.333 0 -62 -14 -80 -42s-27 -63.667 -27 -107s9 -78.833 27 -106.5s44.667 -41.5 80 -41.5c20 0 36.667 4 50 12s26 20 38 36l49 -32c-16.667 -22.667 -36.167 -40.334 -58.5 -53.001s-48.5 -19 -78.5 -19c-26 0 -49.5 4.83301 -70.5 14.5s-38.833 23.5 -53.5 41.5
s-26 39.5 -34 64.5s-12 52.833 -12 83.5z" />
    <glyph glyph-name="ordfeminine" unicode="&#xaa;" horiz-adv-x="340" 
d="M179 589c44.667 0 77.498 -9.66797 98.498 -29.001s31.5 -48.666 31.5 -87.999v-214h-70v28c-16.667 -12 -32.5 -20.5 -47.5 -25.5s-30.167 -7.83301 -45.5 -8.5c-14.667 0 -29.167 1.83301 -43.5 5.5s-27 9.66699 -38 18s-20 19 -27 32s-10.5 29.167 -10.5 48.5
c0 34 12.333 60.167 37 78.5s55.334 27.5 92.001 27.5c14.667 0 28.334 -1.16699 41.001 -3.5s26.667 -6.83301 42 -13.5v27c0 38.667 -22 58 -66 58c-15.333 0 -30.333 -2 -45 -6s-30 -9.66699 -46 -17l-23 53c18 9.33301 37 16.5 57 21.5s41 7.5 63 7.5zM238.998 391.999
c-11.333 6 -22.668 10.667 -34.001 14s-25.666 5 -42.999 5c-18.667 0 -34.5 -4.5 -47.5 -13.5s-19.5 -21.833 -19.5 -38.5c0 -16 5.83301 -29 17.5 -39s27.167 -15 46.5 -15c14 0 28.167 3.66699 42.5 11s26.833 16.333 37.5 27v49z" />
    <glyph glyph-name="guillemotleft" unicode="&#xab;" horiz-adv-x="499" 
d="M240 245l138 206h82l-136 -206l136 -205h-82zM51 245l138 206h82l-137 -206l137 -205h-82z" />
    <glyph glyph-name="logicalnot" unicode="&#xac;" horiz-adv-x="618" 
d="M512 119h-84v162h-323v78h407v-240z" />
    <glyph glyph-name="sfthyphen" unicode="&#xad;" horiz-adv-x="353" 
d="M54 352h243v-86h-243v86z" />
    <glyph glyph-name="registered" unicode="&#xae;" horiz-adv-x="528" 
d="M263 266c-28.667 0 -55.167 5 -79.5 15s-45.5 24 -63.5 42s-32 39.333 -42 64s-15 51.667 -15 81c0 28.667 5 55.334 15 80.001s24 46 42 64s39.167 32.167 63.5 42.5s50.833 15.5 79.5 15.5s55.167 -5.16699 79.5 -15.5s45.5 -24.5 63.5 -42.5s32.167 -39.333 42.5 -64
s15.5 -51.334 15.5 -80.001c0 -29.333 -5.16699 -56.333 -15.5 -81s-24.5 -46 -42.5 -64s-39.167 -32 -63.5 -42s-50.833 -15 -79.5 -15zM263 636c-23.333 0 -44.833 -4.33301 -64.5 -13s-36.667 -20.5 -51 -35.5s-25.666 -32.667 -33.999 -53s-12.5 -42.5 -12.5 -66.5
c0 -23.333 4.16699 -45.166 12.5 -65.499s19.666 -38 33.999 -53s31.333 -26.833 51 -35.5s41.167 -13 64.5 -13s44.833 4.33301 64.5 13s36.834 20.5 51.501 35.5s26 32.667 34 53s12 42.166 12 65.499s-4 45.333 -12 66s-19.333 38.5 -34 53.5
s-31.834 26.833 -51.501 35.5s-41.167 13 -64.5 13zM273 438h-47v-86h-41v233h96c22.667 0 41.167 -6 55.5 -18s21.5 -30.333 21.5 -55c0 -32 -14.333 -54.667 -43 -68l46 -92h-47zM226 547v-71.999h53c12.667 0 22 3.16699 28 9.5s9 15.166 9 26.499
c0 24 -12.333 36 -37 36h-53z" />
    <glyph glyph-name="macron" unicode="&#xaf;" horiz-adv-x="482" 
d="M139 663h250v-65h-250v65z" />
    <glyph glyph-name="degree" unicode="&#xb0;" horiz-adv-x="433" 
d="M214 367c-20 0 -38.833 3.66699 -56.5 11s-33 17.333 -46 30s-23.333 27.834 -31 45.501s-11.5 37.167 -11.5 58.5c0 20.667 3.83301 39.834 11.5 57.501s18 33 31 46s28.333 23.167 46 30.5s36.5 11 56.5 11s38.833 -3.66699 56.5 -11s32.834 -17.5 45.501 -30.5
s22.667 -28.333 30 -46s11 -36.834 11 -57.501c0 -21.333 -3.66699 -40.833 -11 -58.5s-17.333 -32.834 -30 -45.501s-27.834 -22.667 -45.501 -30s-36.5 -11 -56.5 -11zM214 603c-12 0 -23.334 -2.33301 -34.001 -7s-20 -11.167 -28 -19.5s-14.333 -18 -19 -29
s-7 -22.833 -7 -35.5c0 -26 8.5 -47.833 25.5 -65.5s37.833 -26.5 62.5 -26.5s45.334 8.66699 62.001 26s25 39.333 25 66c0 12.667 -2.16699 24.5 -6.5 35.5s-10.5 20.667 -18.5 29s-17.333 14.833 -28 19.5s-22 7 -34 7z" />
    <glyph glyph-name="plusminus" unicode="&#xb1;" horiz-adv-x="618" 
d="M349 378v-164h-81v164h-167v76h167v173h81v-173h167v-76h-167zM101 89v71h413v-71h-413z" />
    <glyph glyph-name="twosuperior" unicode="&#xb2;" horiz-adv-x="405" 
d="M40 345c2 30 8 56.166 18 78.499s22.833 42 38.5 59s33.5 32 53.5 45s40.667 25.167 62 36.5c25.333 14 42.833 25.833 52.5 35.5s14.5 21.167 14.5 34.5c0 15.333 -6.5 27.333 -19.5 36s-31.833 13 -56.5 13c-17.333 0 -35.5 -3.5 -54.5 -10.5
s-37.5 -16.833 -55.5 -29.5c-2 2.66699 -5 6.16699 -9 10.5s-8 9 -12 14l-12 14.5c-4 4.66699 -7 8 -9 10c23.333 18.667 48.333 32.667 75 42s53.667 14 81 14c46 0 82.333 -9.66699 109 -29s40 -45.666 40 -78.999c0 -28 -8.83301 -51.333 -26.5 -70
s-45.5 -38.334 -83.5 -59.001c-34.667 -18 -60.5 -34.667 -77.5 -50s-29.167 -32.666 -36.5 -51.999h227v-64h-319z" />
    <glyph glyph-name="threesuperior" unicode="&#xb3;" horiz-adv-x="405" 
d="M85 448c17.333 -15.333 35.6689 -26.8311 55.002 -34.498s37.666 -11.5 54.999 -11.5c30 0 52.667 5.5 68 16.5s23 26.167 23 45.5s-7 33.666 -21 42.999s-31.667 14 -53 14h-43v59h44c18.667 0 34 5.16699 46 15.5s18 22.5 18 36.5c0 13.333 -6 25.166 -18 35.499
s-32 15.5 -60 15.5c-15.333 0 -31.5 -3.16699 -48.5 -9.5s-33.167 -15.166 -48.5 -26.499l-39 48c20 17.333 42.5 30.333 67.5 39s50.833 13 77.5 13c45.333 0 81 -9.66699 107 -29s39 -45.666 39 -78.999c0 -16.667 -5 -33 -15 -49s-25 -28.667 -45 -38
c25.333 -9.33301 43.333 -22.5 54 -39.5s16 -33.167 16 -48.5c0 -20.667 -4.33301 -38.834 -13 -54.501s-20.667 -28.834 -36 -39.501s-33.333 -18.667 -54 -24s-42.667 -8 -66 -8c-30.667 0 -59.334 5.33301 -86.001 16s-49.667 25 -69 43z" />
    <glyph glyph-name="acute" unicode="&#xb4;" horiz-adv-x="489" 
d="M245 551l-47 16l72 169l95 -18z" />
    <glyph glyph-name="mu" unicode="&#xb5;" horiz-adv-x="506" 
d="M364 0l0.00195312 61.999h-2c-17.333 -24 -36.833 -41.5 -58.5 -52.5s-42.834 -16.5 -63.501 -16.5c-38.667 0 -70.667 12 -96 36h-1v-180l-88 -37v677h89v-286c0 -49.333 8.83301 -84.666 26.5 -105.999s44.167 -32 79.5 -32c26.667 0 49.167 7.83301 67.5 23.5
s31.166 36.167 38.499 61.5c3.33301 8 5.5 17 6.5 27s1.5 19 1.5 27v285h88v-489h-88z" />
    <glyph glyph-name="mu" unicode="&#x3bc;" horiz-adv-x="506" 
d="M364 0l0.00195312 61.999h-2c-17.333 -24 -36.833 -41.5 -58.5 -52.5s-42.834 -16.5 -63.501 -16.5c-38.667 0 -70.667 12 -96 36h-1v-180l-88 -37v677h89v-286c0 -49.333 8.83301 -84.666 26.5 -105.999s44.167 -32 79.5 -32c26.667 0 49.167 7.83301 67.5 23.5
s31.166 36.167 38.499 61.5c3.33301 8 5.5 17 6.5 27s1.5 19 1.5 27v285h88v-489h-88z" />
    <glyph glyph-name="paragraph" unicode="&#xb6;" horiz-adv-x="501" 
d="M444 -2c0 -30 -2.66895 -56.5 -8.00195 -79.5s-15.166 -42.5 -29.499 -58.5s-34 -28.5 -59 -37.5s-56.833 -14.5 -95.5 -16.5l-5 64c30.667 3.33301 54.834 9 72.501 17s30.667 17.833 39 29.5s13.5 25.167 15.5 40.5s3 32 3 50v640h67v-649zM219.998 280
c-26.667 0 -51.332 4.66797 -73.999 14.001s-42.167 22.333 -58.5 39s-29 36.167 -38 58.5s-13.5 46.166 -13.5 71.499c0 24.667 4.66699 48.167 14 70.5s22.166 42 38.499 59s35.833 30.333 58.5 40s47 14.5 73 14.5h92v-367h-92z" />
    <glyph glyph-name="periodcentered" unicode="&#xb7;" horiz-adv-x="245" 
d="M123 251c-16.667 0 -30.833 5.83301 -42.5 17.5s-17.5 26.167 -17.5 43.5c0 18 6 32.667 18 44s26 17 42 17c17.333 0 31.666 -5.83301 42.999 -17.5s17 -26.167 17 -43.5s-5.66699 -31.833 -17 -43.5s-25.666 -17.5 -42.999 -17.5z" />
    <glyph glyph-name="cedilla" unicode="&#xb8;" horiz-adv-x="530" 
d="M283 -208c-11.333 0 -24.1641 1.16699 -38.4971 3.5s-29.833 7.16602 -46.5 14.499l15 41c23.333 -9.33301 45.333 -14 66 -14c14.667 0 26.5 3.33301 35.5 10s13.5 15.667 13.5 27c0 13.333 -5 23.333 -15 30s-21.667 10 -35 10c-2 0 -4 -0.166992 -6 -0.5
s-3.66699 -0.5 -5 -0.5l-23 23l16 48l16 47l42 -3l-24 -70c19.333 -1.33301 35.333 -5 48 -11s22.667 -13 30 -21s12.5 -16.5 15.5 -25.5s4.5 -17.167 4.5 -24.5c0 -9.33301 -1.83301 -18.833 -5.5 -28.5s-9.83398 -18.667 -18.501 -27s-19.834 -15.166 -33.501 -20.499
s-30.834 -8 -51.501 -8z" />
    <glyph glyph-name="onesuperior" unicode="&#xb9;" horiz-adv-x="322" 
d="M131 345v303h-54v51c20.667 2 35.5 6.5 44.5 13.5s16.167 17.167 21.5 30.5h64v-398h-76z" />
    <glyph glyph-name="ordmasculine" unicode="&#xba;" horiz-adv-x="361" 
d="M178 251c-22 0 -42.168 4 -60.501 12s-34.333 19.333 -48 34s-24.334 32.5 -32.001 53.5s-11.5 44.5 -11.5 70.5c0 26.667 3.83301 50.5 11.5 71.5s18.334 38.667 32.001 53s29.834 25.166 48.501 32.499s39 11 61 11c22.667 0 43.5 -3.83301 62.5 -11.5
s35.5 -18.834 49.5 -33.501s24.833 -32.167 32.5 -52.5s11.5 -43.5 11.5 -69.5c0 -27.333 -4 -51.666 -12 -72.999s-19 -39.166 -33 -53.499s-30.5 -25.333 -49.5 -33s-39.833 -11.5 -62.5 -11.5zM177.999 528c-26 0 -45.666 -10.167 -58.999 -30.5s-20 -45.5 -20 -75.5
c0 -34 7.16699 -60.667 21.5 -80s34.166 -29 59.499 -29c26 0 45.833 10.5 59.5 31.5s20.5 46.5 20.5 76.5c0 31.333 -7 57 -21 77s-34.333 30 -61 30z" />
    <glyph glyph-name="guillemotright" unicode="&#xbb;" horiz-adv-x="499" 
d="M134 40h-82l137 205l-137 206h83l138 -206zM323 40h-82l137 205l-136 206h82l138 -206z" />
    <glyph glyph-name="onequarter" unicode="&#xbc;" horiz-adv-x="880" 
d="M714 0h-72v84h-235v57l234 256h73v-251h56v-62h-56v-84zM152 -21l415 696h75l-416 -696h-74zM164 254v303h-54v51c20.667 2 35.5 6.5 44.5 13.5s16.167 17.167 21.5 30.5h64v-398h-76zM642 300l-70.5 -77.5l-70.5 -76.5h141v154z" />
    <glyph glyph-name="onehalf" unicode="&#xbd;" horiz-adv-x="880" 
d="M152 254v303h-54v51c20.667 2 35.5 6.5 44.5 13.5s16.167 17.167 21.5 30.5h64v-398h-76zM127 -21l415 696h75l-416 -696h-74zM462 0c2 30 8 56.168 18 78.501s22.833 42 38.5 59s33.5 32.167 53.5 45.5s40.667 25.666 62 36.999c25.333 13.333 42.833 24.833 52.5 34.5
s14.5 21.167 14.5 34.5c0 15.333 -6.5 27.5 -19.5 36.5s-31.833 13.5 -56.5 13.5c-17.333 0 -35.5 -3.66699 -54.5 -11s-37.5 -17.333 -55.5 -30c-2 2.66699 -5 6.16699 -9 10.5s-8 9 -12 14l-12 14.5c-4 4.66699 -7 8 -9 10c23.333 18.667 48.333 32.5 75 41.5
s53.667 13.5 81 13.5c46 0 82.333 -9.5 109 -28.5s40 -45.167 40 -78.5c0 -28 -8.83301 -51.333 -26.5 -70s-45.5 -38.334 -83.5 -59.001c-34.667 -18 -60.5 -34.667 -77.5 -50s-29.167 -32.666 -36.5 -51.999h227v-64h-319z" />
    <glyph glyph-name="threequarters" unicode="&#xbe;" horiz-adv-x="880" 
d="M771 0h-72v84h-235v57l234 256h73v-251h56v-62h-56v-84zM98 358c17.333 -15.333 35.6689 -26.8311 55.002 -34.498s37.666 -11.5 54.999 -11.5c30 0 52.667 5.5 68 16.5s23 26.167 23 45.5s-7 33.666 -21 42.999s-31.667 14 -53 14h-43v59h44
c18.667 0 34 5.16699 46 15.5s18 22.5 18 36.5c0 13.333 -6 25.166 -18 35.499s-32 15.5 -60 15.5c-15.333 0 -31.5 -3.16699 -48.5 -9.5s-33.167 -15.166 -48.5 -26.499l-39 48c20 17.333 42.5 30.333 67.5 39s50.833 13 77.5 13c45.333 0 81 -9.66699 107 -29
s39 -45.666 39 -78.999c0 -16.667 -5 -33 -15 -49s-25 -28.667 -45 -38c25.333 -9.33301 43.333 -22.5 54 -39.5s16 -33.167 16 -48.5c0 -20.667 -4.33301 -38.834 -13 -54.501s-20.667 -28.834 -36 -39.501s-33.333 -18.667 -54 -24s-42.667 -8 -66 -8
c-30.667 0 -59.334 5.33301 -86.001 16s-49.667 25 -69 43zM231.003 -20.998l415 696h75l-416 -696h-74zM699.003 300.002l-70.5 -77.5l-70.5 -76.5h141v154z" />
    <glyph glyph-name="questiondown" unicode="&#xbf;" horiz-adv-x="496" 
d="M35 -9c0 27.333 6.33496 52.001 19.002 74.001s26 40 40 54l36.5 36.5c11.667 11.667 22.167 23.834 31.5 36.501s17.166 26.5 23.499 41.5s10.166 32.167 11.499 51.5h87c-0.666992 -18.667 -2.83398 -35.334 -6.50098 -50.001s-8.83398 -28.334 -15.501 -41.001
s-14.5 -24.834 -23.5 -36.501s-19.167 -23.5 -30.5 -35.5l-25 -26.5c-9.33301 -9.66699 -18.166 -20 -26.499 -31s-15.333 -22.167 -21 -33.5s-8.5 -23 -8.5 -35c0 -9.33301 1.83301 -19.666 5.5 -30.999s10.167 -22 19.5 -32s21.5 -18.333 36.5 -25s34.167 -10 57.5 -10
s42.333 4.33301 57 13s26.334 19 35.001 31s15 24.5 19 37.5s7 24.167 9 33.5h89c-2.66699 -31.333 -10.167 -59.166 -22.5 -83.499s-28.333 -44.833 -48 -61.5s-42 -29.334 -67 -38.001s-51.5 -13 -79.5 -13c-29.333 0 -56.5 4.5 -81.5 13.5s-46.5 21.333 -64.5 37
s-32 34 -42 55s-15 43.833 -15 68.5zM299.002 428.001c0 -19.333 -6.33301 -33.833 -19 -43.5s-25.667 -14.5 -39 -14.5c-16.667 0 -30.167 5.5 -40.5 16.5s-15.5 24.5 -15.5 40.5s5.5 29.667 16.5 41s24.5 17 40.5 17s29.5 -5.5 40.5 -16.5s16.5 -24.5 16.5 -40.5z" />
    <glyph glyph-name="Agrave" unicode="&#xc0;" horiz-adv-x="635" 
d="M169 149l-28 -75l-28 -74h-97l254 651h102l126 -325.5l128 -325.5h-99l-28 74l-28 75h-302zM442 228l-61 159.001c-20.667 51.333 -40.667 106.666 -60 165.999h-3l-121 -325h245zM143 765.001l72 64l140 -101l-32 -38z" />
    <glyph glyph-name="Aacute" unicode="&#xc1;" horiz-adv-x="635" 
d="M169 149l-28 -75l-28 -74h-97l254 651h102l126 -325.5l128 -325.5h-99l-28 74l-28 75h-302zM442 228l-61 159.001c-20.667 51.333 -40.667 106.666 -60 165.999h-3l-121 -325h245zM314 690.001l-31 38l139 101l72 -64z" />
    <glyph glyph-name="Acircumflex" unicode="&#xc2;" horiz-adv-x="635" 
d="M169 149l-28 -75l-28 -74h-97l254 651h102l126 -325.5l128 -325.5h-99l-28 74l-28 75h-302zM442 228l-61 159.001c-20.667 51.333 -40.667 106.666 -60 165.999h-3l-121 -325h245zM320 766.001l-131 -80l-36 29l131 119h77l129 -120l-34 -29z" />
    <glyph glyph-name="Atilde" unicode="&#xc3;" horiz-adv-x="635" 
d="M169 149l-28 -75l-28 -74h-97l254 651h102l126 -325.5l128 -325.5h-99l-28 74l-28 75h-302zM442 228l-61 159.001c-20.667 51.333 -40.667 106.666 -60 165.999h-3l-121 -325h245zM389 705.001c-11.333 0 -23 2.16895 -35 6.50195s-23.833 9.16602 -35.5 14.499
s-23.167 10.166 -34.5 14.499s-22 6.5 -32 6.5c-11.333 0 -22.166 -2.66699 -32.499 -8s-21.166 -16.333 -32.499 -33l-40 18c12.667 34.667 29 58.5 49 71.5s39 19.5 57 19.5c11.333 0 23.166 -2.33301 35.499 -7s24.5 -9.66699 36.5 -15l35 -15
c11.333 -4.66699 22 -7 32 -7c12 0 22.667 2.5 32 7.5s19.666 15.167 30.999 30.5l38 -19c-12 -31.333 -27 -53.333 -45 -66s-37.667 -19 -59 -19z" />
    <glyph glyph-name="Adieresis" unicode="&#xc4;" horiz-adv-x="635" 
d="M169 149l-28 -75l-28 -74h-97l254 651h102l126 -325.5l128 -325.5h-99l-28 74l-28 75h-302zM442 228l-61 159.001c-20.667 51.333 -40.667 106.666 -60 165.999h-3l-121 -325h245zM220 708.001c-13.333 0 -25.166 5 -35.499 15s-15.5 22 -15.5 36
s5.16699 25.833 15.5 35.5s22.166 14.5 35.499 14.5s25.166 -4.83301 35.499 -14.5s15.5 -21.5 15.5 -35.5s-5.16699 -26 -15.5 -36s-22.166 -15 -35.499 -15zM419 708.001c-14 0 -26.167 5 -36.5 15s-15.5 22 -15.5 36s5.16699 25.833 15.5 35.5s22.5 14.5 36.5 14.5
c13.333 0 24.833 -4.83301 34.5 -14.5s14.5 -21.5 14.5 -35.5s-4.83301 -26 -14.5 -36s-21.167 -15 -34.5 -15z" />
    <glyph glyph-name="Aring" unicode="&#xc5;" horiz-adv-x="635" 
d="M169 149l-28 -75l-28 -74h-97l254 651h102l126 -325.5l128 -325.5h-99l-28 74l-28 75h-302zM442 228l-61 159.001c-20.667 51.333 -40.667 106.666 -60 165.999h-3l-121 -325h245zM320 671.001c-26.667 0 -49.167 8.83203 -67.5 26.499s-27.5 40.834 -27.5 69.501
c0 26.667 9.16699 49 27.5 67s40.833 27 67.5 27c27.333 0 50.166 -9 68.499 -27s27.5 -40.333 27.5 -67c0 -28 -9.16699 -51 -27.5 -69s-41.166 -27 -68.499 -27zM320 815c-13.333 0 -24.666 -4.66699 -33.999 -14s-14 -20.666 -14 -33.999
c0 -14.667 4.66699 -26.834 14 -36.501s20.666 -14.5 33.999 -14.5c14 0 25.667 4.83301 35 14.5s14 21.834 14 36.501c0 13.333 -4.66699 24.666 -14 33.999s-21 14 -35 14z" />
    <glyph glyph-name="AE" unicode="&#xc6;" horiz-adv-x="906" 
d="M447 173h-231l-105 -173h-101l388 651h475v-83h-332v-182h234v-82h-234v-222h344v-82h-438v173zM260 253h187v314z" />
    <glyph glyph-name="Ccedilla" unicode="&#xc7;" horiz-adv-x="565" 
d="M308 -208c-11.333 0 -24.165 1.16797 -38.498 3.50098s-29.833 7.16602 -46.5 14.499l15 41c23.333 -9.33301 45.333 -14 66 -14c14.667 0 26.5 3.33301 35.5 10s13.5 15.667 13.5 27c0 13.333 -5 23.333 -15 30s-21.667 10 -35 10c-2 0 -4 -0.166992 -6 -0.5
s-3.66699 -0.5 -5 -0.5l-23 23l18 56c-36 4 -69 14.667 -99 32s-55.5 40.333 -76.5 69s-37.333 62.667 -49 102s-17.5 83.333 -17.5 132c0 51.333 6.66699 97.666 20 138.999s32.333 76.5 57 105.5s54.167 51.333 88.5 67s72.166 23.5 113.499 23.5
c46.667 0 87.167 -8 121.5 -24s64.166 -39.333 89.499 -70l-65 -62c-22 24.667 -44.833 42.5 -68.5 53.5s-49.834 16.5 -78.501 16.5c-29.333 0 -55.166 -6.16699 -77.499 -18.5s-41.333 -29.5 -57 -51.5s-27.5 -48.333 -35.5 -79s-12 -64 -12 -100
c0 -35.333 3.83301 -68.333 11.5 -99s19.334 -57.334 35.001 -80.001s35 -40.5 58 -53.5s49.5 -19.5 79.5 -19.5c56 0 105.667 24.667 149 74l65 -58c-24.667 -30.667 -53.667 -54.834 -87 -72.501s-74 -27.167 -122 -28.5
c-1.33301 -5.33301 -3.16602 -10.666 -5.49902 -15.999s-4.16602 -10.666 -5.49902 -15.999c19.333 -1.33301 35.333 -5 48 -11s22.667 -13 30 -21s12.5 -16.5 15.5 -25.5s4.5 -17.167 4.5 -24.5c0 -9.33301 -1.83301 -18.833 -5.5 -28.5s-9.83398 -18.667 -18.501 -27
s-19.834 -15.166 -33.501 -20.499s-30.834 -8 -51.501 -8z" />
    <glyph glyph-name="Egrave" unicode="&#xc8;" horiz-adv-x="522" 
d="M64 651h429v-83h-336v-181h238v-83h-238v-221h348v-83h-441v651zM150 765l72 64l140 -101l-32 -38z" />
    <glyph glyph-name="Eacute" unicode="&#xc9;" horiz-adv-x="522" 
d="M64 651h429v-83h-336v-181h238v-83h-238v-221h348v-83h-441v651zM254 690l-31 38l139 101l72 -64z" />
    <glyph glyph-name="Ecircumflex" unicode="&#xca;" horiz-adv-x="522" 
d="M64 651h429v-83h-336v-181h238v-83h-238v-221h348v-83h-441v651zM283 766l-131 -80l-36 29l131 119h77l129 -120l-34 -29z" />
    <glyph glyph-name="Edieresis" unicode="&#xcb;" horiz-adv-x="522" 
d="M64 651h429v-83h-336v-181h238v-83h-238v-221h348v-83h-441v651zM383 705c-14 0 -26.167 5 -36.5 15s-15.5 22 -15.5 36s5.16699 25.833 15.5 35.5s22.5 14.5 36.5 14.5c13.333 0 24.833 -4.83301 34.5 -14.5s14.5 -21.5 14.5 -35.5s-4.83301 -26 -14.5 -36
s-21.167 -15 -34.5 -15zM184 705c-13.333 0 -25.166 5 -35.499 15s-15.5 22 -15.5 36s5.16699 25.833 15.5 35.5s22.166 14.5 35.499 14.5s25.166 -4.83301 35.499 -14.5s15.5 -21.5 15.5 -35.5s-5.16699 -26 -15.5 -36s-22.166 -15 -35.499 -15z" />
    <glyph glyph-name="Igrave" unicode="&#xcc;" horiz-adv-x="254" 
d="M80 651h94v-651h-94v651zM-39 765l72 64l140 -101l-32 -38z" />
    <glyph glyph-name="Iacute" unicode="&#xcd;" horiz-adv-x="254" 
d="M80 651h94v-651h-94v651zM127 690l-31 38l139 101l72 -64z" />
    <glyph glyph-name="Icircumflex" unicode="&#xce;" horiz-adv-x="254" 
d="M80 651h94v-651h-94v651zM127 766l-131 -80l-36 29l131 119h77l129 -120l-34 -29z" />
    <glyph glyph-name="Idieresis" unicode="&#xcf;" horiz-adv-x="254" 
d="M80 651h94v-651h-94v651zM230 705c-14 0 -26.167 5 -36.5 15s-15.5 22 -15.5 36s5.16699 25.833 15.5 35.5s22.5 14.5 36.5 14.5c13.333 0 24.833 -4.83301 34.5 -14.5s14.5 -21.5 14.5 -35.5s-4.83301 -26 -14.5 -36s-21.167 -15 -34.5 -15zM31 705
c-13.333 0 -25.166 5 -35.499 15s-15.5 22 -15.5 36s5.16699 25.833 15.5 35.5s22.166 14.5 35.499 14.5s25.166 -4.83301 35.499 -14.5s15.5 -21.5 15.5 -35.5s-5.16699 -26 -15.5 -36s-22.166 -15 -35.499 -15z" />
    <glyph glyph-name="Eth" unicode="&#xd0;" horiz-adv-x="622" 
d="M71 0l0.00292969 298h-65v57h65v296h175c44.667 0 86.667 -5.83301 126 -17.5s73.666 -30.5 102.999 -56.5s52.666 -59.667 69.999 -101s26 -91.333 26 -150s-8.66699 -108.667 -26 -150s-41 -75 -71 -101s-64.833 -45 -104.5 -57s-81.834 -18 -126.501 -18h-172z
M163.003 568l-0.000976562 -213h119v-57h-119v-215h79c78.667 0 137.334 21.833 176.001 65.5s58 102.5 58 176.5c0 36.667 -4.83301 70 -14.5 100s-24.167 55.5 -43.5 76.5s-43.5 37.333 -72.5 49s-63.167 17.5 -102.5 17.5h-80z" />
    <glyph glyph-name="Ntilde" unicode="&#xd1;" horiz-adv-x="623" 
d="M478 0l-29.5 44l-41 62.5l-48 73l-50 76l-46.5 71.5l-38 59l-68 107h-3v-493h-92v651h90l48 -73.5l57.5 -87.5l58 -87l48.5 -73l104 -165h3v486h91v-651h-84zM384 704c-11.333 0 -23 2.16895 -35 6.50195s-23.833 9.16602 -35.5 14.499s-23.167 10.166 -34.5 14.499
s-22 6.5 -32 6.5c-11.333 0 -22.166 -2.66699 -32.499 -8s-21.166 -16.333 -32.499 -33l-40 18c12.667 34.667 29 58.5 49 71.5s39 19.5 57 19.5c11.333 0 23.166 -2.33301 35.499 -7s24.5 -9.66699 36.5 -15l35 -15c11.333 -4.66699 22 -7 32 -7c12 0 22.667 2.5 32 7.5
s19.666 15.167 30.999 30.5l38 -19c-12 -31.333 -27 -53.333 -45 -66s-37.667 -19 -59 -19z" />
    <glyph glyph-name="Ograve" unicode="&#xd2;" horiz-adv-x="644" 
d="M321 -10c-44 0 -83.166 8.33105 -117.499 24.998s-63.333 39.834 -87 69.501s-41.5 65 -53.5 106s-18 85.833 -18 134.5c0 48 6.16699 92.5 18.5 133.5s30.166 76.5 53.499 106.5s52.333 53.5 87 70.5s74 25.5 118 25.5c42 0 80 -8 114 -24s63 -38.833 87 -68.5
s42.5 -65 55.5 -106s19.5 -86.5 19.5 -136.5c0 -50.667 -6.5 -96.667 -19.5 -138s-31.5 -76.666 -55.5 -105.999s-53 -52 -87 -68s-72.333 -24 -115 -24zM321.001 576.998c-30 0 -56.333 -6.33105 -79 -18.998s-41.5 -30.167 -56.5 -52.5s-26.333 -48.833 -34 -79.5
s-11.5 -64 -11.5 -100c0 -34.667 3.83301 -67.334 11.5 -98.001s19 -57.334 34 -80.001s34 -40.667 57 -54s49.5 -20 79.5 -20s56.333 6.66699 79 20s41.5 31.5 56.5 54.5s26.333 49.667 34 80s11.5 62.5 11.5 96.5c0 36 -3.83301 69.5 -11.5 100.5s-19 57.667 -34 80
s-34 39.833 -57 52.5s-49.5 19 -79.5 19zM167.001 765l72 64l140 -101l-32 -38z" />
    <glyph glyph-name="Oacute" unicode="&#xd3;" horiz-adv-x="644" 
d="M321 -10c-44 0 -83.166 8.33105 -117.499 24.998s-63.333 39.834 -87 69.501s-41.5 65 -53.5 106s-18 85.833 -18 134.5c0 48 6.16699 92.5 18.5 133.5s30.166 76.5 53.499 106.5s52.333 53.5 87 70.5s74 25.5 118 25.5c42 0 80 -8 114 -24s63 -38.833 87 -68.5
s42.5 -65 55.5 -106s19.5 -86.5 19.5 -136.5c0 -50.667 -6.5 -96.667 -19.5 -138s-31.5 -76.666 -55.5 -105.999s-53 -52 -87 -68s-72.333 -24 -115 -24zM321.001 576.998c-30 0 -56.333 -6.33105 -79 -18.998s-41.5 -30.167 -56.5 -52.5s-26.333 -48.833 -34 -79.5
s-11.5 -64 -11.5 -100c0 -34.667 3.83301 -67.334 11.5 -98.001s19 -57.334 34 -80.001s34 -40.667 57 -54s49.5 -20 79.5 -20s56.333 6.66699 79 20s41.5 31.5 56.5 54.5s26.333 49.667 34 80s11.5 62.5 11.5 96.5c0 36 -3.83301 69.5 -11.5 100.5s-19 57.667 -34 80
s-34 39.833 -57 52.5s-49.5 19 -79.5 19zM292.001 690l-31 38l139 101l72 -64z" />
    <glyph glyph-name="Ocircumflex" unicode="&#xd4;" horiz-adv-x="644" 
d="M321 -10c-44 0 -83.166 8.33105 -117.499 24.998s-63.333 39.834 -87 69.501s-41.5 65 -53.5 106s-18 85.833 -18 134.5c0 48 6.16699 92.5 18.5 133.5s30.166 76.5 53.499 106.5s52.333 53.5 87 70.5s74 25.5 118 25.5c42 0 80 -8 114 -24s63 -38.833 87 -68.5
s42.5 -65 55.5 -106s19.5 -86.5 19.5 -136.5c0 -50.667 -6.5 -96.667 -19.5 -138s-31.5 -76.666 -55.5 -105.999s-53 -52 -87 -68s-72.333 -24 -115 -24zM321.001 576.998c-30 0 -56.333 -6.33105 -79 -18.998s-41.5 -30.167 -56.5 -52.5s-26.333 -48.833 -34 -79.5
s-11.5 -64 -11.5 -100c0 -34.667 3.83301 -67.334 11.5 -98.001s19 -57.334 34 -80.001s34 -40.667 57 -54s49.5 -20 79.5 -20s56.333 6.66699 79 20s41.5 31.5 56.5 54.5s26.333 49.667 34 80s11.5 62.5 11.5 96.5c0 36 -3.83301 69.5 -11.5 100.5s-19 57.667 -34 80
s-34 39.833 -57 52.5s-49.5 19 -79.5 19zM323.001 766l-131 -80l-36 29l131 119h77l129 -120l-34 -29z" />
    <glyph glyph-name="Otilde" unicode="&#xd5;" horiz-adv-x="644" 
d="M321 -10c-44 0 -83.166 8.33105 -117.499 24.998s-63.333 39.834 -87 69.501s-41.5 65 -53.5 106s-18 85.833 -18 134.5c0 48 6.16699 92.5 18.5 133.5s30.166 76.5 53.499 106.5s52.333 53.5 87 70.5s74 25.5 118 25.5c42 0 80 -8 114 -24s63 -38.833 87 -68.5
s42.5 -65 55.5 -106s19.5 -86.5 19.5 -136.5c0 -50.667 -6.5 -96.667 -19.5 -138s-31.5 -76.666 -55.5 -105.999s-53 -52 -87 -68s-72.333 -24 -115 -24zM321.001 576.998c-30 0 -56.333 -6.33105 -79 -18.998s-41.5 -30.167 -56.5 -52.5s-26.333 -48.833 -34 -79.5
s-11.5 -64 -11.5 -100c0 -34.667 3.83301 -67.334 11.5 -98.001s19 -57.334 34 -80.001s34 -40.667 57 -54s49.5 -20 79.5 -20s56.333 6.66699 79 20s41.5 31.5 56.5 54.5s26.333 49.667 34 80s11.5 62.5 11.5 96.5c0 36 -3.83301 69.5 -11.5 100.5s-19 57.667 -34 80
s-34 39.833 -57 52.5s-49.5 19 -79.5 19zM393.001 707c-11.333 0 -23 2.16895 -35 6.50195s-23.833 9.16602 -35.5 14.499s-23.167 10.166 -34.5 14.499s-22 6.5 -32 6.5c-11.333 0 -22.166 -2.66699 -32.499 -8s-21.166 -16.333 -32.499 -33l-40 18
c12.667 34.667 29 58.5 49 71.5s39 19.5 57 19.5c11.333 0 23.166 -2.33301 35.499 -7s24.5 -9.66699 36.5 -15l35 -15c11.333 -4.66699 22 -7 32 -7c12 0 22.667 2.5 32 7.5s19.666 15.167 30.999 30.5l38 -19c-12 -31.333 -27 -53.333 -45 -66s-37.667 -19 -59 -19z" />
    <glyph glyph-name="Odieresis" unicode="&#xd6;" horiz-adv-x="644" 
d="M321 -10c-44 0 -83.166 8.33105 -117.499 24.998s-63.333 39.834 -87 69.501s-41.5 65 -53.5 106s-18 85.833 -18 134.5c0 48 6.16699 92.5 18.5 133.5s30.166 76.5 53.499 106.5s52.333 53.5 87 70.5s74 25.5 118 25.5c42 0 80 -8 114 -24s63 -38.833 87 -68.5
s42.5 -65 55.5 -106s19.5 -86.5 19.5 -136.5c0 -50.667 -6.5 -96.667 -19.5 -138s-31.5 -76.666 -55.5 -105.999s-53 -52 -87 -68s-72.333 -24 -115 -24zM321.001 576.998c-30 0 -56.333 -6.33105 -79 -18.998s-41.5 -30.167 -56.5 -52.5s-26.333 -48.833 -34 -79.5
s-11.5 -64 -11.5 -100c0 -34.667 3.83301 -67.334 11.5 -98.001s19 -57.334 34 -80.001s34 -40.667 57 -54s49.5 -20 79.5 -20s56.333 6.66699 79 20s41.5 31.5 56.5 54.5s26.333 49.667 34 80s11.5 62.5 11.5 96.5c0 36 -3.83301 69.5 -11.5 100.5s-19 57.667 -34 80
s-34 39.833 -57 52.5s-49.5 19 -79.5 19zM421.001 704c-14 0 -26.167 5 -36.5 15s-15.5 22 -15.5 36s5.16699 25.833 15.5 35.5s22.5 14.5 36.5 14.5c13.333 0 24.833 -4.83301 34.5 -14.5s14.5 -21.5 14.5 -35.5s-4.83301 -26 -14.5 -36s-21.167 -15 -34.5 -15z
M222.001 704c-13.333 0 -25.166 5 -35.499 15s-15.5 22 -15.5 36s5.16699 25.833 15.5 35.5s22.166 14.5 35.499 14.5s25.166 -4.83301 35.499 -14.5s15.5 -21.5 15.5 -35.5s-5.16699 -26 -15.5 -36s-22.166 -15 -35.499 -15z" />
    <glyph glyph-name="multiply" unicode="&#xd7;" horiz-adv-x="618" 
d="M254 313l-141 142l28.5 28l28.5 28l141 -141l141 141l54 -53l-142 -142l139 -138l-55 -57l-139 138l-140 -140l-55 55z" />
    <glyph glyph-name="Oslash" unicode="&#xd8;" horiz-adv-x="644" 
d="M321 -10c-37.333 0 -70.8301 5.83301 -100.497 17.5s-55.834 28.167 -78.501 49.5l-57 -73l-37 30l62 79c-21.333 30 -37.5 64.5 -48.5 103.5s-16.5 81.833 -16.5 128.5c0 48 6.16699 92.5 18.5 133.5s30.166 76.5 53.499 106.5s52.333 53.5 87 70.5s74 25.5 118 25.5
c36 0 68.833 -6 98.5 -18s56.167 -28.667 79.5 -50l60 78l38 -31l-66 -84c21.333 -29.333 37.666 -63.333 48.999 -102s17 -81.334 17 -128.001c0 -50.667 -6.5 -96.667 -19.5 -138s-31.5 -76.666 -55.5 -105.999s-53 -52 -87 -68s-72.333 -24 -115 -24zM321.003 577
c-30 0 -56.334 -6.33301 -79.001 -19s-41.5 -30.167 -56.5 -52.5s-26.333 -48.833 -34 -79.5s-11.5 -64 -11.5 -100c0 -29.333 2.5 -57 7.5 -83s12.833 -49.667 23.5 -71l273 350c-15.333 17.333 -33.166 30.833 -53.499 40.5s-43.5 14.5 -69.5 14.5zM503.002 325
c0 30 -2.49902 57.833 -7.49902 83.5s-12.833 49.167 -23.5 70.5l-273 -349c15.333 -17.333 33.166 -31 53.499 -41s43.5 -15 69.5 -15c30 0 56.333 6.66699 79 20s41.5 31.5 56.5 54.5s26.333 49.667 34 80s11.5 62.5 11.5 96.5z" />
    <glyph glyph-name="Ugrave" unicode="&#xd9;" horiz-adv-x="627" 
d="M313 -10c-78.667 0 -139.834 23.5 -183.501 70.5s-65.5 117.5 -65.5 211.5v379h93v-375c0 -62.667 13.167 -111.834 39.5 -147.501s65.833 -53.5 118.5 -53.5c54.667 0 94.834 17.333 120.501 52s38.5 82.334 38.5 143.001v381h94v-380
c0 -94.667 -22.5 -165.167 -67.5 -211.5s-107.5 -69.5 -187.5 -69.5zM168 765l72 64l140 -101l-32 -38z" />
    <glyph glyph-name="Uacute" unicode="&#xda;" horiz-adv-x="627" 
d="M313 -10c-78.667 0 -139.834 23.5 -183.501 70.5s-65.5 117.5 -65.5 211.5v379h93v-375c0 -62.667 13.167 -111.834 39.5 -147.501s65.833 -53.5 118.5 -53.5c54.667 0 94.834 17.333 120.501 52s38.5 82.334 38.5 143.001v381h94v-380
c0 -94.667 -22.5 -165.167 -67.5 -211.5s-107.5 -69.5 -187.5 -69.5zM289 690l-31 38l139 101l72 -64z" />
    <glyph glyph-name="Ucircumflex" unicode="&#xdb;" horiz-adv-x="627" 
d="M313 -10c-78.667 0 -139.834 23.5 -183.501 70.5s-65.5 117.5 -65.5 211.5v379h93v-375c0 -62.667 13.167 -111.834 39.5 -147.501s65.833 -53.5 118.5 -53.5c54.667 0 94.834 17.333 120.501 52s38.5 82.334 38.5 143.001v381h94v-380
c0 -94.667 -22.5 -165.167 -67.5 -211.5s-107.5 -69.5 -187.5 -69.5zM316 766l-131 -80l-36 29l131 119h77l129 -120l-34 -29z" />
    <glyph glyph-name="Udieresis" unicode="&#xdc;" horiz-adv-x="627" 
d="M313 -10c-78.667 0 -139.834 23.5 -183.501 70.5s-65.5 117.5 -65.5 211.5v379h93v-375c0 -62.667 13.167 -111.834 39.5 -147.501s65.833 -53.5 118.5 -53.5c54.667 0 94.834 17.333 120.501 52s38.5 82.334 38.5 143.001v381h94v-380
c0 -94.667 -22.5 -165.167 -67.5 -211.5s-107.5 -69.5 -187.5 -69.5zM420 707c-14 0 -26.167 5 -36.5 15s-15.5 22 -15.5 36s5.16699 25.833 15.5 35.5s22.5 14.5 36.5 14.5c13.333 0 24.833 -4.83301 34.5 -14.5s14.5 -21.5 14.5 -35.5s-4.83301 -26 -14.5 -36
s-21.167 -15 -34.5 -15zM221 707c-13.333 0 -25.166 5 -35.499 15s-15.5 22 -15.5 36s5.16699 25.833 15.5 35.5s22.166 14.5 35.499 14.5s25.166 -4.83301 35.499 -14.5s15.5 -21.5 15.5 -35.5s-5.16699 -26 -15.5 -36s-22.166 -15 -35.499 -15z" />
    <glyph glyph-name="Yacute" unicode="&#xdd;" horiz-adv-x="580" 
d="M335 228v-228h-92v228l-237 423h105l44 -85l45 -86l45 -85l44 -86l45.5 86.5l45.5 85.5l44 84.5l45 85.5h103zM276 690l-31 38l139 101l72 -64z" />
    <glyph glyph-name="Thorn" unicode="&#xde;" horiz-adv-x="563" 
d="M155 125v-125h-92v651h92v-120h179c31.333 0 60 -4.16699 86 -12.5s48.5 -20.833 67.5 -37.5s33.667 -37.5 44 -62.5s15.5 -54.5 15.5 -88.5s-5.33301 -63.833 -16 -89.5s-25.667 -47 -45 -64s-42.5 -29.833 -69.5 -38.5s-56.833 -13 -89.5 -13h-172zM155 449v-241h172
c40 0 71 10 93 30s33 50 33 90s-11.5 70.167 -34.5 90.5s-53.167 30.5 -90.5 30.5h-173z" />
    <glyph glyph-name="germandbls" unicode="&#xdf;" horiz-adv-x="512" 
d="M257 414c10.667 0.666992 21.334 3.83105 32.001 9.49805s20.167 13 28.5 22s15 19.667 20 32s7.5 25.833 7.5 40.5c0 10 -2 20.833 -6 32.5s-10.167 22.5 -18.5 32.5s-18.5 18.5 -30.5 25.5s-26 10.5 -42 10.5s-30 -3.16699 -42 -9.5s-22.167 -14.833 -30.5 -25.5
s-14.666 -23.334 -18.999 -38.001s-6.5 -30 -6.5 -46v-499c-14.667 -5.33301 -29.167 -11.166 -43.5 -17.499l-42.5 -18.5v532c0 28.667 4.33301 55 13 79s21.167 44.5 37.5 61.5s35.833 30.333 58.5 40s48 14.5 76 14.5c27.333 0 52 -4.83301 74 -14.5
s40.667 -22.5 56 -38.5s27.166 -34.167 35.499 -54.5s12.5 -41.166 12.5 -62.499c0 -27.333 -7.16699 -53.166 -21.5 -77.499s-34.833 -42.833 -61.5 -55.5v-4c17.333 -4 33.666 -11.5 48.999 -22.5s28.833 -24.5 40.5 -40.5s21 -34.167 28 -54.5s10.5 -42.166 10.5 -65.499
c0 -29.333 -4.33301 -56.833 -13 -82.5s-21.334 -48.167 -38.001 -67.5s-36.667 -34.5 -60 -45.5s-49.666 -16.5 -78.999 -16.5c-7.33301 0 -16.5 0.666992 -27.5 2s-20.833 3.66602 -29.5 6.99902c2.66699 10 5 20.333 7 31s4.33301 21.667 7 33
c3.33301 0 6.33301 -0.166992 9 -0.5s5.66699 -0.5 9 -0.5c20.667 0 39 3.5 55 10.5s29.5 16.833 40.5 29.5s19.167 27.334 24.5 44.001s8 34.667 8 54c0 20 -3.33301 38.667 -10 56s-15.667 32.833 -27 46.5s-24.833 24.667 -40.5 33s-32.5 13.166 -50.5 14.499v64z" />
    <glyph glyph-name="agrave" unicode="&#xe0;" horiz-adv-x="488" 
d="M346 0l-0.000976562 46.001h-2c-24.667 -22.667 -49.667 -37.667 -75 -45s-49 -11 -71 -11c-19.333 0 -38.833 2.83301 -58.5 8.5s-37.334 14.5 -53.001 26.5s-28.334 27.667 -38.001 47s-14.5 42.666 -14.5 69.999c0 25.333 4.66699 48 14 68s22.166 37 38.499 51
s35.833 24.667 58.5 32s47.334 11 74.001 11c20.667 0 41.334 -2 62.001 -6s42.334 -12 65.001 -24v52c0 65.333 -35.333 98 -106 98c-23.333 0 -45.5 -2.83301 -66.5 -8.5s-42.167 -13.5 -63.5 -23.5l-27 67c24.667 12 50.5 21.5 77.5 28.5s56.833 10.5 89.5 10.5
c58.667 0 103.834 -13.667 135.501 -41s47.5 -68 47.5 -122v-335h-87zM345.999 205.001c-17.333 10 -35.333 18.1689 -54 24.502s-40.667 9.5 -66 9.5c-28.667 0 -53.167 -7.83301 -73.5 -23.5s-30.5 -37.834 -30.5 -66.501s8.5 -50.667 25.5 -66s41.5 -23 73.5 -23
c23.333 1.33301 46 7.66602 68 18.999s41 25.333 57 42v84zM135.999 716.003l96 18l73 -167l-47 -16z" />
    <glyph glyph-name="aacute" unicode="&#xe1;" horiz-adv-x="488" 
d="M346 0l-0.000976562 46.001h-2c-24.667 -22.667 -49.667 -37.667 -75 -45s-49 -11 -71 -11c-19.333 0 -38.833 2.83301 -58.5 8.5s-37.334 14.5 -53.001 26.5s-28.334 27.667 -38.001 47s-14.5 42.666 -14.5 69.999c0 25.333 4.66699 48 14 68s22.166 37 38.499 51
s35.833 24.667 58.5 32s47.334 11 74.001 11c20.667 0 41.334 -2 62.001 -6s42.334 -12 65.001 -24v52c0 65.333 -35.333 98 -106 98c-23.333 0 -45.5 -2.83301 -66.5 -8.5s-42.167 -13.5 -63.5 -23.5l-27 67c24.667 12 50.5 21.5 77.5 28.5s56.833 10.5 89.5 10.5
c58.667 0 103.834 -13.667 135.501 -41s47.5 -68 47.5 -122v-335h-87zM345.999 205.001c-17.333 10 -35.333 18.1689 -54 24.502s-40.667 9.5 -66 9.5c-28.667 0 -53.167 -7.83301 -73.5 -23.5s-30.5 -37.834 -30.5 -66.501s8.5 -50.667 25.5 -66s41.5 -23 73.5 -23
c23.333 1.33301 46 7.66602 68 18.999s41 25.333 57 42v84zM270.999 551.003l-47 16l72 169l95 -18z" />
    <glyph glyph-name="acircumflex" unicode="&#xe2;" horiz-adv-x="488" 
d="M346 0l-0.000976562 46.001h-2c-24.667 -22.667 -49.667 -37.667 -75 -45s-49 -11 -71 -11c-19.333 0 -38.833 2.83301 -58.5 8.5s-37.334 14.5 -53.001 26.5s-28.334 27.667 -38.001 47s-14.5 42.666 -14.5 69.999c0 25.333 4.66699 48 14 68s22.166 37 38.499 51
s35.833 24.667 58.5 32s47.334 11 74.001 11c20.667 0 41.334 -2 62.001 -6s42.334 -12 65.001 -24v52c0 65.333 -35.333 98 -106 98c-23.333 0 -45.5 -2.83301 -66.5 -8.5s-42.167 -13.5 -63.5 -23.5l-27 67c24.667 12 50.5 21.5 77.5 28.5s56.833 10.5 89.5 10.5
c58.667 0 103.834 -13.667 135.501 -41s47.5 -68 47.5 -122v-335h-87zM345.999 205.001c-17.333 10 -35.333 18.1689 -54 24.502s-40.667 9.5 -66 9.5c-28.667 0 -53.167 -7.83301 -73.5 -23.5s-30.5 -37.834 -30.5 -66.501s8.5 -50.667 25.5 -66s41.5 -23 73.5 -23
c23.333 1.33301 46 7.66602 68 18.999s41 25.333 57 42v84zM253.999 643.003l-132 -92l-35 28l130 131h78l129 -131l-34 -29z" />
    <glyph glyph-name="atilde" unicode="&#xe3;" horiz-adv-x="488" 
d="M346 0l-0.000976562 46.001h-2c-24.667 -22.667 -49.667 -37.667 -75 -45s-49 -11 -71 -11c-19.333 0 -38.833 2.83301 -58.5 8.5s-37.334 14.5 -53.001 26.5s-28.334 27.667 -38.001 47s-14.5 42.666 -14.5 69.999c0 25.333 4.66699 48 14 68s22.166 37 38.499 51
s35.833 24.667 58.5 32s47.334 11 74.001 11c20.667 0 41.334 -2 62.001 -6s42.334 -12 65.001 -24v52c0 65.333 -35.333 98 -106 98c-23.333 0 -45.5 -2.83301 -66.5 -8.5s-42.167 -13.5 -63.5 -23.5l-27 67c24.667 12 50.5 21.5 77.5 28.5s56.833 10.5 89.5 10.5
c58.667 0 103.834 -13.667 135.501 -41s47.5 -68 47.5 -122v-335h-87zM345.999 205.001c-17.333 10 -35.333 18.1689 -54 24.502s-40.667 9.5 -66 9.5c-28.667 0 -53.167 -7.83301 -73.5 -23.5s-30.5 -37.834 -30.5 -66.501s8.5 -50.667 25.5 -66s41.5 -23 73.5 -23
c23.333 1.33301 46 7.66602 68 18.999s41 25.333 57 42v84zM320.999 571.003c-11.333 0 -23 2.16895 -35 6.50195s-23.833 9.16602 -35.5 14.499s-23.167 10.166 -34.5 14.499s-22 6.5 -32 6.5c-11.333 0 -22.166 -2.66699 -32.499 -8s-21.166 -16.333 -32.499 -33l-40 18
c12.667 34.667 29 58.5 49 71.5s39 19.5 57 19.5c11.333 0 23.166 -2.33301 35.499 -7s24.5 -9.66699 36.5 -15l35 -15c11.333 -4.66699 22 -7 32 -7c12 0 22.667 2.5 32 7.5s19.666 15.167 30.999 30.5l38 -19c-12 -31.333 -27 -53.333 -45 -66s-37.667 -19 -59 -19z" />
    <glyph glyph-name="adieresis" unicode="&#xe4;" horiz-adv-x="488" 
d="M346 0l-0.000976562 46.001h-2c-24.667 -22.667 -49.667 -37.667 -75 -45s-49 -11 -71 -11c-19.333 0 -38.833 2.83301 -58.5 8.5s-37.334 14.5 -53.001 26.5s-28.334 27.667 -38.001 47s-14.5 42.666 -14.5 69.999c0 25.333 4.66699 48 14 68s22.166 37 38.499 51
s35.833 24.667 58.5 32s47.334 11 74.001 11c20.667 0 41.334 -2 62.001 -6s42.334 -12 65.001 -24v52c0 65.333 -35.333 98 -106 98c-23.333 0 -45.5 -2.83301 -66.5 -8.5s-42.167 -13.5 -63.5 -23.5l-27 67c24.667 12 50.5 21.5 77.5 28.5s56.833 10.5 89.5 10.5
c58.667 0 103.834 -13.667 135.501 -41s47.5 -68 47.5 -122v-335h-87zM345.999 205.001c-17.333 10 -35.333 18.1689 -54 24.502s-40.667 9.5 -66 9.5c-28.667 0 -53.167 -7.83301 -73.5 -23.5s-30.5 -37.834 -30.5 -66.501s8.5 -50.667 25.5 -66s41.5 -23 73.5 -23
c23.333 1.33301 46 7.66602 68 18.999s41 25.333 57 42v84zM354.999 575.003c-14 0 -26.167 5 -36.5 15s-15.5 22 -15.5 36s5.16699 25.833 15.5 35.5s22.5 14.5 36.5 14.5c13.333 0 24.833 -4.83301 34.5 -14.5s14.5 -21.5 14.5 -35.5s-4.83301 -26 -14.5 -36
s-21.167 -15 -34.5 -15zM155.999 575.003c-13.333 0 -25.166 5 -35.499 15s-15.5 22 -15.5 36s5.16699 25.833 15.5 35.5s22.166 14.5 35.499 14.5s25.166 -4.83301 35.499 -14.5s15.5 -21.5 15.5 -35.5s-5.16699 -26 -15.5 -36s-22.166 -15 -35.499 -15z" />
    <glyph glyph-name="aring" unicode="&#xe5;" horiz-adv-x="488" 
d="M346 0l-0.000976562 46.001h-2c-24.667 -22.667 -49.667 -37.667 -75 -45s-49 -11 -71 -11c-19.333 0 -38.833 2.83301 -58.5 8.5s-37.334 14.5 -53.001 26.5s-28.334 27.667 -38.001 47s-14.5 42.666 -14.5 69.999c0 25.333 4.66699 48 14 68s22.166 37 38.499 51
s35.833 24.667 58.5 32s47.334 11 74.001 11c20.667 0 41.334 -2 62.001 -6s42.334 -12 65.001 -24v52c0 65.333 -35.333 98 -106 98c-23.333 0 -45.5 -2.83301 -66.5 -8.5s-42.167 -13.5 -63.5 -23.5l-27 67c24.667 12 50.5 21.5 77.5 28.5s56.833 10.5 89.5 10.5
c58.667 0 103.834 -13.667 135.501 -41s47.5 -68 47.5 -122v-335h-87zM345.999 205.001c-17.333 10 -35.333 18.1689 -54 24.502s-40.667 9.5 -66 9.5c-28.667 0 -53.167 -7.83301 -73.5 -23.5s-30.5 -37.834 -30.5 -66.501s8.5 -50.667 25.5 -66s41.5 -23 73.5 -23
c23.333 1.33301 46 7.66602 68 18.999s41 25.333 57 42v84zM261.999 542.003c-26.667 0 -49.167 8.83203 -67.5 26.499s-27.5 40.834 -27.5 69.501c0 26.667 9.16699 49 27.5 67s40.833 27 67.5 27c27.333 0 50.166 -9 68.499 -27s27.5 -40.333 27.5 -67
c0 -28 -9.16699 -51 -27.5 -69s-41.166 -27 -68.499 -27zM261.999 686.002c-13.333 0 -24.666 -4.66699 -33.999 -14s-14 -20.666 -14 -33.999c0 -14.667 4.66699 -26.834 14 -36.501s20.666 -14.5 33.999 -14.5c14 0 25.667 4.83301 35 14.5s14 21.834 14 36.501
c0 13.333 -4.66699 24.666 -14 33.999s-21 14 -35 14z" />
    <glyph glyph-name="ae" unicode="&#xe6;" horiz-adv-x="809" 
d="M771 214l-330 -0.00195312c2.66699 -52 16.5 -90 41.5 -114s54.833 -36 89.5 -36c21.333 0 42.166 4.16699 62.499 12.5s37.833 19.166 52.5 32.499l47 -56c-27.333 -23.333 -54.166 -39.666 -80.499 -48.999s-55.833 -14 -88.5 -14c-34 0 -65 6.83301 -93 20.5
s-51.667 34.834 -71 63.501c-22.667 -18.667 -42.834 -33.5 -60.501 -44.5s-34.167 -19.5 -49.5 -25.5s-29.666 -9.83301 -42.999 -11.5s-27 -2.5 -41 -2.5c-20 0 -40 3 -60 9s-38 15.167 -54 27.5s-28.833 28.5 -38.5 48.5s-14.5 44 -14.5 72
c0 24 4.83301 45.833 14.5 65.5s22.667 36.167 39 49.5s35.666 23.666 57.999 30.999s46.5 11 72.5 11c22.667 0 44 -2.5 64 -7.5s41.667 -12.833 65 -23.5c0 6.66699 0.166992 14.334 0.5 23.001s0.833008 17.667 1.5 27c1.33301 32 -7.66699 57 -27 75s-47 27 -83 27
c-23.333 0 -45 -2.66699 -65 -8s-40.667 -13.333 -62 -24l-28 67c24 12 49.667 21.333 77 28s57.333 10 90 10c39.333 0 71.833 -6.83301 97.5 -20.5s45.167 -33.167 58.5 -58.5c17.333 24.667 39.333 43.834 66 57.501s55.334 20.5 86.001 20.5
c33.333 0 62.833 -6.16699 88.5 -18.5s47.167 -29.333 64.5 -51s30.5 -47.5 39.5 -77.5s13.5 -62.667 13.5 -98v-38zM227 57.998c24.667 0 50.167 7.16797 76.5 21.501s48.5 32.166 66.5 53.499c-4 10 -7.33301 21.5 -10 34.5s-4.33398 26.5 -5.00098 40.5
c-17.333 9.33301 -36.166 17 -56.499 23s-42.5 9 -66.5 9c-14.667 0 -28.667 -2 -42 -6s-25 -9.83301 -35 -17.5s-17.833 -17.167 -23.5 -28.5s-8.5 -24 -8.5 -38c0 -28.667 9.33301 -51.167 28 -67.5s44 -24.5 76 -24.5zM683 277.999
c0 19.333 -2.33398 37.8359 -7.00098 55.5029s-12 33.167 -22 46.5s-22.667 23.833 -38 31.5s-33.666 11.5 -54.999 11.5c-15.333 0 -30 -3.33301 -44 -10s-26.5 -16.334 -37.5 -29.001s-20 -27.834 -27 -45.501s-10.833 -37.834 -11.5 -60.501h242z" />
    <glyph glyph-name="ccedilla" unicode="&#xe7;" horiz-adv-x="448" 
d="M241 -208c-11.333 0 -24.1689 1.16016 -38.502 3.49316s-29.833 7.16602 -46.5 14.499l15 41c23.333 -9.33301 45.333 -14 66 -14c14.667 0 26.5 3.33301 35.5 10s13.5 15.667 13.5 27c0 13.333 -5 23.333 -15 30s-21.667 10 -35 10c-2 0 -4 -0.166992 -6 -0.5
s-3.66699 -0.5 -5 -0.5l-23 23l18 57c-25.333 3.33301 -48.666 10.833 -69.999 22.5s-39.666 27.334 -54.999 47.001s-27.5 43.334 -36.5 71.001s-13.5 59.167 -13.5 94.5c0 42.667 5.16699 80.834 15.5 114.501s24.833 61.834 43.5 84.501s41 40 67 52s54.667 18 86 18
c34 0 64.333 -5.5 91 -16.5s51.334 -29.167 74.001 -54.5l-56 -57c-18 18.667 -35.667 32 -53 40s-36.333 12 -57 12c-20 0 -37.5 -4.83301 -52.5 -14.5s-27.667 -22.834 -38 -39.501s-18.166 -36.667 -23.499 -60s-8 -48.333 -8 -75c0 -48 10.833 -87.5 32.5 -118.5
s52.5 -46.5 92.5 -46.5c20.667 0 39.667 4.33301 57 13s34.666 22 51.999 40l56 -53c-20.667 -23.333 -43.667 -41.666 -69 -54.999s-56 -20.666 -92 -21.999c-1.33301 -5.33301 -3.16602 -10.666 -5.49902 -15.999s-4.16602 -10.666 -5.49902 -15.999
c19.333 -1.33301 35.333 -5 48 -11s22.667 -13 30 -21s12.5 -16.5 15.5 -25.5s4.5 -17.167 4.5 -24.5c0 -9.33301 -1.83301 -18.833 -5.5 -28.5s-9.83398 -18.667 -18.501 -27s-19.834 -15.166 -33.501 -20.499s-30.834 -8 -51.501 -8z" />
    <glyph glyph-name="egrave" unicode="&#xe8;" horiz-adv-x="499" 
d="M257 497c34 0 63.835 -5.99902 89.502 -17.999s47.167 -28.833 64.5 -50.5s30.333 -47.834 39 -78.501s13 -64.667 13 -102v-35h-331c3.33301 -48.667 17.5 -85.667 42.5 -111s55.5 -38 91.5 -38c20.667 0 41.167 4 61.5 12s38.166 18.667 53.499 32l46 -55
c-24.667 -22.667 -50.834 -38.834 -78.501 -48.501s-58.167 -14.5 -91.5 -14.5c-32 0 -61 5.33301 -87 16s-48.333 26.5 -67 47.5s-33.167 47 -43.5 78s-15.5 66.5 -15.5 106.5s5.33301 75.833 16 107.5s25.5 58.834 44.5 81.501s41.5 40 67.5 52s54.333 18 85 18z
M376.002 278.001c0 20 -2.50098 38.833 -7.50098 56.5s-12.333 33 -22 46s-22.167 23.333 -37.5 31s-33.666 11.5 -54.999 11.5c-32 0 -59.5 -13.167 -82.5 -39.5s-36.167 -61.5 -39.5 -105.5h244zM136.001 716.001l96 18l73 -167l-47 -16z" />
    <glyph glyph-name="eacute" unicode="&#xe9;" horiz-adv-x="499" 
d="M257 497c34 0 63.835 -5.99902 89.502 -17.999s47.167 -28.833 64.5 -50.5s30.333 -47.834 39 -78.501s13 -64.667 13 -102v-35h-331c3.33301 -48.667 17.5 -85.667 42.5 -111s55.5 -38 91.5 -38c20.667 0 41.167 4 61.5 12s38.166 18.667 53.499 32l46 -55
c-24.667 -22.667 -50.834 -38.834 -78.501 -48.501s-58.167 -14.5 -91.5 -14.5c-32 0 -61 5.33301 -87 16s-48.333 26.5 -67 47.5s-33.167 47 -43.5 78s-15.5 66.5 -15.5 106.5s5.33301 75.833 16 107.5s25.5 58.834 44.5 81.501s41.5 40 67.5 52s54.333 18 85 18z
M376.002 278.001c0 20 -2.50098 38.833 -7.50098 56.5s-12.333 33 -22 46s-22.167 23.333 -37.5 31s-33.666 11.5 -54.999 11.5c-32 0 -59.5 -13.167 -82.5 -39.5s-36.167 -61.5 -39.5 -105.5h244zM268.001 551.001l-47 16l72 169l95 -18z" />
    <glyph glyph-name="ecircumflex" unicode="&#xea;" horiz-adv-x="499" 
d="M257 497c34 0 63.835 -5.99902 89.502 -17.999s47.167 -28.833 64.5 -50.5s30.333 -47.834 39 -78.501s13 -64.667 13 -102v-35h-331c3.33301 -48.667 17.5 -85.667 42.5 -111s55.5 -38 91.5 -38c20.667 0 41.167 4 61.5 12s38.166 18.667 53.499 32l46 -55
c-24.667 -22.667 -50.834 -38.834 -78.501 -48.501s-58.167 -14.5 -91.5 -14.5c-32 0 -61 5.33301 -87 16s-48.333 26.5 -67 47.5s-33.167 47 -43.5 78s-15.5 66.5 -15.5 106.5s5.33301 75.833 16 107.5s25.5 58.834 44.5 81.501s41.5 40 67.5 52s54.333 18 85 18z
M376.002 278.001c0 20 -2.50098 38.833 -7.50098 56.5s-12.333 33 -22 46s-22.167 23.333 -37.5 31s-33.666 11.5 -54.999 11.5c-32 0 -59.5 -13.167 -82.5 -39.5s-36.167 -61.5 -39.5 -105.5h244zM259.001 643.001l-132 -92l-35 28l130 131h78l129 -131l-34 -29z" />
    <glyph glyph-name="edieresis" unicode="&#xeb;" horiz-adv-x="499" 
d="M257 497c34 0 63.835 -5.99902 89.502 -17.999s47.167 -28.833 64.5 -50.5s30.333 -47.834 39 -78.501s13 -64.667 13 -102v-35h-331c3.33301 -48.667 17.5 -85.667 42.5 -111s55.5 -38 91.5 -38c20.667 0 41.167 4 61.5 12s38.166 18.667 53.499 32l46 -55
c-24.667 -22.667 -50.834 -38.834 -78.501 -48.501s-58.167 -14.5 -91.5 -14.5c-32 0 -61 5.33301 -87 16s-48.333 26.5 -67 47.5s-33.167 47 -43.5 78s-15.5 66.5 -15.5 106.5s5.33301 75.833 16 107.5s25.5 58.834 44.5 81.501s41.5 40 67.5 52s54.333 18 85 18z
M376.002 278.001c0 20 -2.50098 38.833 -7.50098 56.5s-12.333 33 -22 46s-22.167 23.333 -37.5 31s-33.666 11.5 -54.999 11.5c-32 0 -59.5 -13.167 -82.5 -39.5s-36.167 -61.5 -39.5 -105.5h244zM160.001 568.001c-13.333 0 -25.166 5 -35.499 15s-15.5 22 -15.5 36
s5.16699 25.833 15.5 35.5s22.166 14.5 35.499 14.5s25.166 -4.83301 35.499 -14.5s15.5 -21.5 15.5 -35.5s-5.16699 -26 -15.5 -36s-22.166 -15 -35.499 -15zM359.001 568.001c-14 0 -26.167 5 -36.5 15s-15.5 22 -15.5 36s5.16699 25.833 15.5 35.5s22.5 14.5 36.5 14.5
c13.333 0 24.833 -4.83301 34.5 -14.5s14.5 -21.5 14.5 -35.5s-4.83301 -26 -14.5 -36s-21.167 -15 -34.5 -15z" />
    <glyph glyph-name="igrave" unicode="&#xec;" horiz-adv-x="241" 
d="M-6 716l96 18l73 -167l-47 -16zM78 487h88v-487h-88v487z" />
    <glyph glyph-name="iacute" unicode="&#xed;" horiz-adv-x="241" 
d="M138 551l-47 16l72 169l95 -18zM78 487h88v-487h-88v487z" />
    <glyph glyph-name="icircumflex" unicode="&#xee;" horiz-adv-x="327" 
d="M162 640l-132 -92l-35 28l130 131h78l129 -131l-34 -29zM117 487h88v-487h-88v487z" />
    <glyph glyph-name="idieresis" unicode="&#xef;" horiz-adv-x="289" 
d="M245 575c-14 0 -26.167 5 -36.5 15s-15.5 22 -15.5 36s5.16699 25.833 15.5 35.5s22.5 14.5 36.5 14.5c13.333 0 24.833 -4.83301 34.5 -14.5s14.5 -21.5 14.5 -35.5s-4.83301 -26 -14.5 -36s-21.167 -15 -34.5 -15zM46 575c-13.333 0 -25.166 5 -35.499 15
s-15.5 22 -15.5 36s5.16699 25.833 15.5 35.5s22.166 14.5 35.499 14.5s25.166 -4.83301 35.499 -14.5s15.5 -21.5 15.5 -35.5s-5.16699 -26 -15.5 -36s-22.166 -15 -35.499 -15zM99 487h88v-487h-88v487z" />
    <glyph glyph-name="eth" unicode="&#xf0;" horiz-adv-x="527" 
d="M420 713l35.999 -29l-28.5 -33l-28.5 -33c30.667 -32 53.834 -70.833 69.501 -116.5s23.5 -101.834 23.5 -168.501c0 -45.333 -3.83301 -88.666 -11.5 -129.999s-20.667 -77.833 -39 -109.5s-42.5 -56.834 -72.5 -75.501s-67 -28 -111 -28
c-31.333 0 -59.833 5.66699 -85.5 17s-47.834 27.666 -66.501 48.999s-33.167 47 -43.5 77s-15.5 63.667 -15.5 101c0 38 5.5 71.833 16.5 101.5s26 54.834 45 75.501s41.333 36.334 67 47.001s53.167 16 82.5 16c12.667 0 26 -1.66699 40 -5s27.5 -8.33301 40.5 -15
s25.333 -15 37 -25s21.5 -21.667 29.5 -35h4c-1.33301 32.667 -7.16602 63 -17.499 91s-25.166 52.667 -44.499 74l-51 -59l-37 32l52 59c-34.667 26 -78.334 42 -131.001 48l12 70c35.333 -3.33301 66.833 -9.83301 94.5 -19.5s53.167 -23.167 76.5 -40.5zM390.999 237
c0 50 -11.667 89.8311 -35 119.498s-56 44.5 -98 44.5c-19.333 0 -36.833 -4.16699 -52.5 -12.5s-29 -19.666 -40 -33.999s-19.333 -31.666 -25 -51.999s-8.5 -42.5 -8.5 -66.5c0 -54 12.167 -96.167 36.5 -126.5s54.833 -45.5 91.5 -45.5c19.333 0 37 4.5 53 13.5
s29.833 21.333 41.5 37s20.667 34 27 55s9.5 43.5 9.5 67.5z" />
    <glyph glyph-name="ntilde" unicode="&#xf1;" horiz-adv-x="501" 
d="M452 0l-87.999 -0.00195312v289c0 42.667 -8.33301 75.334 -25 98.001s-43.667 34 -81 34c-28 0 -51.833 -8.66699 -71.5 -26s-32.834 -39.333 -39.501 -66c-3.33301 -13.333 -5 -27.666 -5 -42.999v-286h-88v488h88v-64l3 -1c17.333 26 39 44.833 65 56.5
s51 17.5 75 17.5c58 0 100.333 -16.667 127 -50s40 -81 40 -143v-304zM315.001 570.998c-11.333 0 -23 2.16895 -35 6.50195s-23.833 9.16602 -35.5 14.499s-23.167 10.166 -34.5 14.499s-22 6.5 -32 6.5c-11.333 0 -22.166 -2.66699 -32.499 -8
s-21.166 -16.333 -32.499 -33l-40 18c12.667 34.667 29 58.5 49 71.5s39 19.5 57 19.5c11.333 0 23.166 -2.33301 35.499 -7s24.5 -9.66699 36.5 -15l35 -15c11.333 -4.66699 22 -7 32 -7c12 0 22.667 2.5 32 7.5s19.666 15.167 30.999 30.5l38 -19
c-12 -31.333 -27 -53.333 -45 -66s-37.667 -19 -59 -19z" />
    <glyph glyph-name="ograve" unicode="&#xf2;" horiz-adv-x="525" 
d="M119 716l96 18l73 -167l-47 -16zM257 -10c-32 0 -61 5.66504 -87 16.998s-48.333 27.833 -67 49.5s-33 47.834 -43 78.501s-15 65.334 -15 104.001c0 41.333 5.5 78 16.5 110s26.333 59 46 81s42.834 38.667 69.501 50s56 17 88 17c31.333 0 60.166 -5.66699 86.499 -17
s49 -27.666 68 -48.999s33.833 -47.333 44.5 -78s16 -65.334 16 -104.001c0 -41.333 -5.66699 -78 -17 -110s-27 -59 -47 -81s-43.5 -38.833 -70.5 -50.5s-56.5 -17.5 -88.5 -17.5zM262 421.998c-20.667 0 -38.832 -4.50098 -54.499 -13.501s-29 -21.5 -40 -37.5
s-19.333 -34.667 -25 -56s-8.5 -44.333 -8.5 -69c0 -56 10.667 -100.167 32 -132.5s53 -48.5 95 -48.5c20.667 0 39.167 4.83301 55.5 14.5s30.166 22.667 41.499 39s19.833 35.333 25.5 57s8.5 44.5 8.5 68.5c0 26 -2.66699 49.833 -8 71.5s-13.5 40.334 -24.5 56.001
s-24.5 28 -40.5 37s-35 13.5 -57 13.5z" />
    <glyph glyph-name="oacute" unicode="&#xf3;" horiz-adv-x="525" 
d="M275 551l-47 16l72 169l95 -18zM257 -10c-32 0 -61 5.66504 -87 16.998s-48.333 27.833 -67 49.5s-33 47.834 -43 78.501s-15 65.334 -15 104.001c0 41.333 5.5 78 16.5 110s26.333 59 46 81s42.834 38.667 69.501 50s56 17 88 17c31.333 0 60.166 -5.66699 86.499 -17
s49 -27.666 68 -48.999s33.833 -47.333 44.5 -78s16 -65.334 16 -104.001c0 -41.333 -5.66699 -78 -17 -110s-27 -59 -47 -81s-43.5 -38.833 -70.5 -50.5s-56.5 -17.5 -88.5 -17.5zM262 421.998c-20.667 0 -38.832 -4.50098 -54.499 -13.501s-29 -21.5 -40 -37.5
s-19.333 -34.667 -25 -56s-8.5 -44.333 -8.5 -69c0 -56 10.667 -100.167 32 -132.5s53 -48.5 95 -48.5c20.667 0 39.167 4.83301 55.5 14.5s30.166 22.667 41.499 39s19.833 35.333 25.5 57s8.5 44.5 8.5 68.5c0 26 -2.66699 49.833 -8 71.5s-13.5 40.334 -24.5 56.001
s-24.5 28 -40.5 37s-35 13.5 -57 13.5z" />
    <glyph glyph-name="ocircumflex" unicode="&#xf4;" horiz-adv-x="525" 
d="M261 640l-132 -92l-35 28l130 131h78l129 -131l-34 -29zM257 -10c-32 0 -61 5.66504 -87 16.998s-48.333 27.833 -67 49.5s-33 47.834 -43 78.501s-15 65.334 -15 104.001c0 41.333 5.5 78 16.5 110s26.333 59 46 81s42.834 38.667 69.501 50s56 17 88 17
c31.333 0 60.166 -5.66699 86.499 -17s49 -27.666 68 -48.999s33.833 -47.333 44.5 -78s16 -65.334 16 -104.001c0 -41.333 -5.66699 -78 -17 -110s-27 -59 -47 -81s-43.5 -38.833 -70.5 -50.5s-56.5 -17.5 -88.5 -17.5zM262 421.998
c-20.667 0 -38.832 -4.50098 -54.499 -13.501s-29 -21.5 -40 -37.5s-19.333 -34.667 -25 -56s-8.5 -44.333 -8.5 -69c0 -56 10.667 -100.167 32 -132.5s53 -48.5 95 -48.5c20.667 0 39.167 4.83301 55.5 14.5s30.166 22.667 41.499 39s19.833 35.333 25.5 57
s8.5 44.5 8.5 68.5c0 26 -2.66699 49.833 -8 71.5s-13.5 40.334 -24.5 56.001s-24.5 28 -40.5 37s-35 13.5 -57 13.5z" />
    <glyph glyph-name="otilde" unicode="&#xf5;" horiz-adv-x="525" 
d="M330 571c-11.333 0 -23 2.16895 -35 6.50195s-23.833 9.16602 -35.5 14.499s-23.167 10.166 -34.5 14.499s-22 6.5 -32 6.5c-11.333 0 -22.166 -2.66699 -32.499 -8s-21.166 -16.333 -32.499 -33l-40 18c12.667 34.667 29 58.5 49 71.5s39 19.5 57 19.5
c11.333 0 23.166 -2.33301 35.499 -7s24.5 -9.66699 36.5 -15l35 -15c11.333 -4.66699 22 -7 32 -7c12 0 22.667 2.5 32 7.5s19.666 15.167 30.999 30.5l38 -19c-12 -31.333 -27 -53.333 -45 -66s-37.667 -19 -59 -19zM257 -9.99805c-32 0 -61 5.66504 -87 16.998
s-48.333 27.833 -67 49.5s-33 47.834 -43 78.501s-15 65.334 -15 104.001c0 41.333 5.5 78 16.5 110s26.333 59 46 81s42.834 38.667 69.501 50s56 17 88 17c31.333 0 60.166 -5.66699 86.499 -17s49 -27.666 68 -48.999s33.833 -47.333 44.5 -78s16 -65.334 16 -104.001
c0 -41.333 -5.66699 -78 -17 -110s-27 -59 -47 -81s-43.5 -38.833 -70.5 -50.5s-56.5 -17.5 -88.5 -17.5zM262 422c-20.667 0 -38.832 -4.50098 -54.499 -13.501s-29 -21.5 -40 -37.5s-19.333 -34.667 -25 -56s-8.5 -44.333 -8.5 -69c0 -56 10.667 -100.167 32 -132.5
s53 -48.5 95 -48.5c20.667 0 39.167 4.83301 55.5 14.5s30.166 22.667 41.499 39s19.833 35.333 25.5 57s8.5 44.5 8.5 68.5c0 26 -2.66699 49.833 -8 71.5s-13.5 40.334 -24.5 56.001s-24.5 28 -40.5 37s-35 13.5 -57 13.5z" />
    <glyph glyph-name="odieresis" unicode="&#xf6;" horiz-adv-x="525" 
d="M363 575c-14 0 -26.167 5 -36.5 15s-15.5 22 -15.5 36s5.16699 25.833 15.5 35.5s22.5 14.5 36.5 14.5c13.333 0 24.833 -4.83301 34.5 -14.5s14.5 -21.5 14.5 -35.5s-4.83301 -26 -14.5 -36s-21.167 -15 -34.5 -15zM164 575c-13.333 0 -25.166 5 -35.499 15
s-15.5 22 -15.5 36s5.16699 25.833 15.5 35.5s22.166 14.5 35.499 14.5s25.166 -4.83301 35.499 -14.5s15.5 -21.5 15.5 -35.5s-5.16699 -26 -15.5 -36s-22.166 -15 -35.499 -15zM257 -10c-32 0 -61 5.66504 -87 16.998s-48.333 27.833 -67 49.5s-33 47.834 -43 78.501
s-15 65.334 -15 104.001c0 41.333 5.5 78 16.5 110s26.333 59 46 81s42.834 38.667 69.501 50s56 17 88 17c31.333 0 60.166 -5.66699 86.499 -17s49 -27.666 68 -48.999s33.833 -47.333 44.5 -78s16 -65.334 16 -104.001c0 -41.333 -5.66699 -78 -17 -110s-27 -59 -47 -81
s-43.5 -38.833 -70.5 -50.5s-56.5 -17.5 -88.5 -17.5zM262 421.998c-20.667 0 -38.832 -4.50098 -54.499 -13.501s-29 -21.5 -40 -37.5s-19.333 -34.667 -25 -56s-8.5 -44.333 -8.5 -69c0 -56 10.667 -100.167 32 -132.5s53 -48.5 95 -48.5
c20.667 0 39.167 4.83301 55.5 14.5s30.166 22.667 41.499 39s19.833 35.333 25.5 57s8.5 44.5 8.5 68.5c0 26 -2.66699 49.833 -8 71.5s-13.5 40.334 -24.5 56.001s-24.5 28 -40.5 37s-35 13.5 -57 13.5z" />
    <glyph glyph-name="divide" unicode="&#xf7;" horiz-adv-x="618" 
d="M101 273v76h416v-76h-416zM364 475c0 -14.667 -5.33301 -27.5 -16 -38.5s-23.667 -16.5 -39 -16.5s-28.333 5.33301 -39 16s-16 23.667 -16 39c0 16.667 5.33301 30.167 16 40.5s23.667 15.5 39 15.5s28.333 -5.16699 39 -15.5s16 -23.833 16 -40.5zM364 139
c0 -14.667 -5.33301 -27.332 -16 -37.999s-23.667 -16 -39 -16s-28.333 5.16699 -39 15.5s-16 23.166 -16 38.499c0 16.667 5.33301 30.334 16 41.001s23.667 16 39 16s28.333 -5.33301 39 -16s16 -24.334 16 -41.001z" />
    <glyph glyph-name="oslash" unicode="&#xf8;" horiz-adv-x="525" 
d="M257 -10c-50 0 -92.334 13.333 -127.001 40l-41 -54l-36 27l45 60c-35.333 43.333 -53 102 -53 176c0 41.333 5.5 78 16.5 110s26.333 59 46 81s42.834 38.667 69.501 50s56 17 88 17c49.333 0 92 -14 128 -42l38 51l37 -30l-41 -54
c16.667 -21.333 29.667 -46.5 39 -75.5s14 -61.5 14 -97.5c0 -41.333 -5.66699 -78 -17 -110s-27 -59 -47 -81s-43.5 -38.833 -70.5 -50.5s-56.5 -17.5 -88.5 -17.5zM261.999 422c-20.667 0 -38.834 -4.5 -54.501 -13.5s-29 -21.5 -40 -37.5s-19.333 -34.667 -25 -56
s-8.5 -44.333 -8.5 -69c0 -42.667 6.66699 -79 20 -109l190 253c-10.667 10 -22.667 17.833 -36 23.5s-28.666 8.5 -45.999 8.5zM391.999 244c0 40 -6.66602 75 -19.999 105l-192 -253c22 -20.667 49 -31 81 -31c20.667 0 39.167 4.83301 55.5 14.5s30.166 22.667 41.499 39
s19.833 35.333 25.5 57s8.5 44.5 8.5 68.5z" />
    <glyph glyph-name="ugrave" unicode="&#xf9;" horiz-adv-x="500" 
d="M52 488l88.002 0.000976562v-290c0 -42.667 8 -74.834 24 -96.501s42.333 -32.5 79 -32.5c28 0 51.167 8 69.5 24s31.166 37 38.499 63c4 14 6 29.333 6 46v286h88v-488h-88v63h-3c-18.667 -26 -40.334 -44.667 -65.001 -56s-48.667 -17 -72 -17c-110 0 -165 62 -165 186
v312zM128.002 716.001l96 18l73 -167l-47 -16z" />
    <glyph glyph-name="uacute" unicode="&#xfa;" horiz-adv-x="500" 
d="M52 488l88.002 0.000976562v-290c0 -42.667 8 -74.834 24 -96.501s42.333 -32.5 79 -32.5c28 0 51.167 8 69.5 24s31.166 37 38.499 63c4 14 6 29.333 6 46v286h88v-488h-88v63h-3c-18.667 -26 -40.334 -44.667 -65.001 -56s-48.667 -17 -72 -17c-110 0 -165 62 -165 186
v312zM259.002 551.001l-47 16l72 169l95 -18z" />
    <glyph glyph-name="ucircumflex" unicode="&#xfb;" horiz-adv-x="500" 
d="M52 488l88.002 0.000976562v-290c0 -42.667 8 -74.834 24 -96.501s42.333 -32.5 79 -32.5c28 0 51.167 8 69.5 24s31.166 37 38.499 63c4 14 6 29.333 6 46v286h88v-488h-88v63h-3c-18.667 -26 -40.334 -44.667 -65.001 -56s-48.667 -17 -72 -17c-110 0 -165 62 -165 186
v312zM256.002 641.001l-132 -92l-35 28l130 131h78l129 -131l-34 -29z" />
    <glyph glyph-name="udieresis" unicode="&#xfc;" horiz-adv-x="500" 
d="M52 488l88.002 0.000976562v-290c0 -42.667 8 -74.834 24 -96.501s42.333 -32.5 79 -32.5c28 0 51.167 8 69.5 24s31.166 37 38.499 63c4 14 6 29.333 6 46v286h88v-488h-88v63h-3c-18.667 -26 -40.334 -44.667 -65.001 -56s-48.667 -17 -72 -17c-110 0 -165 62 -165 186
v312zM357.002 575.001c-14 0 -26.167 5 -36.5 15s-15.5 22 -15.5 36s5.16699 25.833 15.5 35.5s22.5 14.5 36.5 14.5c13.333 0 24.833 -4.83301 34.5 -14.5s14.5 -21.5 14.5 -35.5s-4.83301 -26 -14.5 -36s-21.167 -15 -34.5 -15zM158.002 575.001
c-13.333 0 -25.166 5 -35.499 15s-15.5 22 -15.5 36s5.16699 25.833 15.5 35.5s22.166 14.5 35.499 14.5s25.166 -4.83301 35.499 -14.5s15.5 -21.5 15.5 -35.5s-5.16699 -26 -15.5 -36s-22.166 -15 -35.499 -15z" />
    <glyph glyph-name="yacute" unicode="&#xfd;" horiz-adv-x="478" 
d="M134 -188l63.999 178.999l-26 68l-31.5 85.5l-35 94l-35 94.5l-31.5 86l-26 69h92l85 -246l10 -32l13 -40l13 -40c4 -12.667 7.66699 -23.334 11 -32.001h3c2.66699 8.66699 6.33398 19.334 11.001 32.001s9.16699 26 13.5 40l13 40
c4.33301 12.667 7.83301 23.334 10.5 32.001l87 246h88l-34 -93.5l-42.5 -116.5l-46.5 -128.5l-46.5 -128.5l-42.5 -116.5l-34 -92.5h-83zM246.999 550.999l-47 16l72 169l95 -18z" />
    <glyph glyph-name="thorn" unicode="&#xfe;" horiz-adv-x="511" 
d="M466 247c0 -46 -5.83008 -85.168 -17.4971 -117.501s-26.834 -58.666 -45.501 -78.999s-39.834 -35.333 -63.501 -45s-47.5 -14.5 -71.5 -14.5s-46 4 -66 12s-39.667 21.333 -59 40h-2v-192l-43.5 -19l-44.5 -18v837h89v-210h2c22.667 22 45.667 36.833 69 44.5
s46.333 11.5 69 11.5c23.333 0 46.166 -4.83301 68.499 -14.5s42 -24.667 59 -45s30.667 -46.333 41 -78s15.5 -69.167 15.5 -112.5zM378.003 247.999c0 56 -10.834 99.335 -32.501 130.002s-50.5 46 -86.5 46c-24.667 0 -47.167 -6.5 -67.5 -19.5
s-37.166 -27.833 -50.499 -44.5v-232c12.667 -16.667 29 -31.334 49 -44.001s41.667 -19 65 -19c40 0 70.5 15.667 91.5 47s31.5 76.666 31.5 135.999z" />
    <glyph glyph-name="ydieresis" unicode="&#xff;" horiz-adv-x="478" 
d="M134 -188l63.999 178.999l-26 68l-31.5 85.5l-35 94l-35 94.5l-31.5 86l-26 69h92l85 -246l10 -32l13 -40l13 -40c4 -12.667 7.66699 -23.334 11 -32.001h3c2.66699 8.66699 6.33398 19.334 11.001 32.001s9.16699 26 13.5 40l13 40
c4.33301 12.667 7.83301 23.334 10.5 32.001l87 246h88l-34 -93.5l-42.5 -116.5l-46.5 -128.5l-46.5 -128.5l-42.5 -116.5l-34 -92.5h-83zM142.999 574.999c-13.333 0 -25.166 5 -35.499 15s-15.5 22 -15.5 36s5.16699 25.833 15.5 35.5s22.166 14.5 35.499 14.5
s25.166 -4.83301 35.499 -14.5s15.5 -21.5 15.5 -35.5s-5.16699 -26 -15.5 -36s-22.166 -15 -35.499 -15zM341.999 574.999c-14 0 -26.167 5 -36.5 15s-15.5 22 -15.5 36s5.16699 25.833 15.5 35.5s22.5 14.5 36.5 14.5c13.333 0 24.833 -4.83301 34.5 -14.5
s14.5 -21.5 14.5 -35.5s-4.83301 -26 -14.5 -36s-21.167 -15 -34.5 -15z" />
    <glyph glyph-name="Amacron" unicode="&#x100;" horiz-adv-x="635" 
d="M169 149l-28 -75l-28 -74h-97l254 651h102l126 -325.5l128 -325.5h-99l-28 74l-28 75h-302zM442 228l-61 159.001c-20.667 51.333 -40.667 106.666 -60 165.999h-3l-121 -325h245zM195 791.001h250v-65h-250v65z" />
    <glyph glyph-name="amacron" unicode="&#x101;" horiz-adv-x="488" 
d="M346 0l-0.000976562 46.001h-2c-24.667 -22.667 -49.667 -37.667 -75 -45s-49 -11 -71 -11c-19.333 0 -38.833 2.83301 -58.5 8.5s-37.334 14.5 -53.001 26.5s-28.334 27.667 -38.001 47s-14.5 42.666 -14.5 69.999c0 25.333 4.66699 48 14 68s22.166 37 38.499 51
s35.833 24.667 58.5 32s47.334 11 74.001 11c20.667 0 41.334 -2 62.001 -6s42.334 -12 65.001 -24v52c0 65.333 -35.333 98 -106 98c-23.333 0 -45.5 -2.83301 -66.5 -8.5s-42.167 -13.5 -63.5 -23.5l-27 67c24.667 12 50.5 21.5 77.5 28.5s56.833 10.5 89.5 10.5
c58.667 0 103.834 -13.667 135.501 -41s47.5 -68 47.5 -122v-335h-87zM345.999 205.001c-17.333 10 -35.333 18.1689 -54 24.502s-40.667 9.5 -66 9.5c-28.667 0 -53.167 -7.83301 -73.5 -23.5s-30.5 -37.834 -30.5 -66.501s8.5 -50.667 25.5 -66s41.5 -23 73.5 -23
c23.333 1.33301 46 7.66602 68 18.999s41 25.333 57 42v84zM131.999 663.003h250v-65h-250v65z" />
    <glyph glyph-name="Abreve" unicode="&#x102;" horiz-adv-x="635" 
d="M169 149l-28 -75l-28 -74h-97l254 651h102l126 -325.5l128 -325.5h-99l-28 74l-28 75h-302zM442 228l-61 159.001c-20.667 51.333 -40.667 106.666 -60 165.999h-3l-121 -325h245zM248 820.001c3.33301 -18.667 10.6719 -34 22.0049 -46s27.666 -18 48.999 -18
c22.667 0 39.667 6.83301 51 20.5s17.333 28.167 18 43.5h65c-0.666992 -12.667 -3.33398 -26.334 -8.00098 -41.001s-12.167 -28.167 -22.5 -40.5s-23.833 -22.5 -40.5 -30.5s-37.334 -12 -62.001 -12c-25.333 0 -46.5 4 -63.5 12s-30.833 18.167 -41.5 30.5
s-18.334 25.833 -23.001 40.5s-7.33398 28.334 -8.00098 41.001h64z" />
    <glyph glyph-name="abreve" unicode="&#x103;" horiz-adv-x="488" 
d="M346 0l-0.000976562 46.001h-2c-24.667 -22.667 -49.667 -37.667 -75 -45s-49 -11 -71 -11c-19.333 0 -38.833 2.83301 -58.5 8.5s-37.334 14.5 -53.001 26.5s-28.334 27.667 -38.001 47s-14.5 42.666 -14.5 69.999c0 25.333 4.66699 48 14 68s22.166 37 38.499 51
s35.833 24.667 58.5 32s47.334 11 74.001 11c20.667 0 41.334 -2 62.001 -6s42.334 -12 65.001 -24v52c0 65.333 -35.333 98 -106 98c-23.333 0 -45.5 -2.83301 -66.5 -8.5s-42.167 -13.5 -63.5 -23.5l-27 67c24.667 12 50.5 21.5 77.5 28.5s56.833 10.5 89.5 10.5
c58.667 0 103.834 -13.667 135.501 -41s47.5 -68 47.5 -122v-335h-87zM345.999 205.001c-17.333 10 -35.333 18.1689 -54 24.502s-40.667 9.5 -66 9.5c-28.667 0 -53.167 -7.83301 -73.5 -23.5s-30.5 -37.834 -30.5 -66.501s8.5 -50.667 25.5 -66s41.5 -23 73.5 -23
c23.333 1.33301 46 7.66602 68 18.999s41 25.333 57 42v84zM185.999 687.003c3.33301 -18.667 10.6719 -34 22.0049 -46s27.666 -18 48.999 -18c22.667 0 39.667 6.83301 51 20.5s17.333 28.167 18 43.5h65c-0.666992 -12.667 -3.33398 -26.334 -8.00098 -41.001
s-12.167 -28.167 -22.5 -40.5s-23.833 -22.5 -40.5 -30.5s-37.334 -12 -62.001 -12c-25.333 0 -46.5 4 -63.5 12s-30.833 18.167 -41.5 30.5s-18.334 25.833 -23.001 40.5s-7.33398 28.334 -8.00098 41.001h64z" />
    <glyph glyph-name="Aogonek" unicode="&#x104;" horiz-adv-x="635" 
d="M169 149l-28.002 -75l-28 -74h-97l254 651h102l126 -325.5l128 -325.5h-51c-16 -21.333 -27.667 -40 -35 -56s-11 -30.667 -11 -44c0 -15.333 4.83301 -27 14.5 -35s22.167 -12 37.5 -12c16 0 34 4.33301 54 13c0.666992 -1.33301 1.83398 -4.16602 3.50098 -8.49902
s3.5 -8.83301 5.5 -13.5s3.83301 -9.16699 5.5 -13.5s2.83398 -7.16602 3.50098 -8.49902c-13.333 -6.66699 -27.5 -12 -42.5 -16s-30.167 -6 -45.5 -6c-27.333 0 -50.333 7.5 -69 22.5s-28 35.833 -28 62.5c0 15.333 4.5 32.666 13.5 51.999s23.833 41 44.5 65l-28 72.5
c-9.33301 24.333 -18.333 49.166 -27 74.499h-302zM441.998 228l-61 159.001c-20.667 51.333 -40.667 106.666 -60 165.999h-3l-121 -325h245z" />
    <glyph glyph-name="aogonek" unicode="&#x105;" horiz-adv-x="488" 
d="M395 0c-16 -21.333 -27.6699 -39.999 -35.0029 -55.999s-11 -30.667 -11 -44c0 -15.333 4.83301 -27 14.5 -35s22.167 -12 37.5 -12c16 0 34 4.33301 54 13c0.666992 -1.33301 1.83398 -4.16602 3.50098 -8.49902s3.5 -8.83301 5.5 -13.5s3.83301 -9.16699 5.5 -13.5
s2.83398 -7.16602 3.50098 -8.49902c-13.333 -6.66699 -27.5 -12 -42.5 -16s-30.167 -6 -45.5 -6c-27.333 0 -50.333 7.5 -69 22.5s-28 35.833 -28 62.5c0 15.333 4.5 32.666 13.5 51.999s23.833 40.666 44.5 63.999v45h-2c-24.667 -22.667 -49.667 -37.667 -75 -45
s-49 -11 -71 -11c-19.333 0 -38.833 2.83301 -58.5 8.5s-37.334 14.5 -53.001 26.5s-28.334 27.667 -38.001 47s-14.5 42.666 -14.5 69.999c0 25.333 4.66699 48 14 68s22.166 37 38.499 51s35.833 24.667 58.5 32s47.334 11 74.001 11c20.667 0 41.334 -2 62.001 -6
s42.334 -12 65.001 -24v52c0 65.333 -35.333 98 -106 98c-23.333 0 -45.5 -2.83301 -66.5 -8.5s-42.167 -13.5 -63.5 -23.5l-27 67c24.667 12 50.5 21.5 77.5 28.5s56.833 10.5 89.5 10.5c58.667 0 103.834 -13.667 135.501 -41s47.5 -68 47.5 -122v-335h-38z
M345.997 205.001c-17.333 10 -35.333 18.1689 -54 24.502s-40.667 9.5 -66 9.5c-28.667 0 -53.167 -7.83301 -73.5 -23.5s-30.5 -37.834 -30.5 -66.501s8.5 -50.667 25.5 -66s41.5 -23 73.5 -23c23.333 1.33301 46 7.66602 68 18.999s41 25.333 57 42v84z" />
    <glyph glyph-name="Cacute" unicode="&#x106;" horiz-adv-x="565" 
d="M45 327c0 51.333 6.66699 97.667 20 139s32.333 76.5 57 105.5s54.167 51.333 88.5 67s72.166 23.5 113.499 23.5c46.667 0 87.167 -8 121.5 -24s64.166 -39.333 89.499 -70l-65 -62c-22 24.667 -44.833 42.5 -68.5 53.5s-49.834 16.5 -78.501 16.5
c-29.333 0 -55.166 -6.16699 -77.499 -18.5s-41.333 -29.5 -57 -51.5s-27.5 -48.333 -35.5 -79s-12 -64 -12 -100c0 -35.333 3.83301 -68.333 11.5 -99s19.334 -57.334 35.001 -80.001s35 -40.5 58 -53.5s49.5 -19.5 79.5 -19.5c56 0 105.667 24.667 149 74l65 -58
c-25.333 -31.333 -55.166 -56 -89.499 -74s-76.5 -27 -126.5 -27c-41.333 0 -79 7.66699 -113 23s-63.333 37.5 -88 66.5s-43.667 64.333 -57 106s-20 88.834 -20 141.501zM294 690.001l-31 38l139 101l72 -64z" />
    <glyph glyph-name="cacute" unicode="&#x107;" horiz-adv-x="448" 
d="M257 497c34 0 64.3311 -5.50098 90.998 -16.501s51.334 -29.167 74.001 -54.5l-56 -57c-18 18.667 -35.667 32 -53 40s-36.333 12 -57 12c-20 0 -37.5 -4.83301 -52.5 -14.5s-27.667 -22.834 -38 -39.501s-18.166 -36.667 -23.499 -60s-8 -48.333 -8 -75
c0 -48 10.833 -87.5 32.5 -118.5s52.5 -46.5 92.5 -46.5c20.667 0 39.667 4.33301 57 13s34.666 22 51.999 40l56 -53c-21.333 -24 -45.333 -42.833 -72 -56.5s-59 -20.5 -97 -20.5c-29.333 0 -56.666 5 -81.999 15s-47.5 25 -66.5 45s-34 44.833 -45 74.5
s-16.5 64.167 -16.5 103.5c0 42.667 5.16699 80.834 15.5 114.501s24.833 61.834 43.5 84.501s41 40 67 52s54.667 18 86 18zM252.998 550.999l-47 16l72 169l95 -18z" />
    <glyph glyph-name="Ccircumflex" unicode="&#x108;" horiz-adv-x="565" 
d="M45 327c0 51.333 6.66699 97.667 20 139s32.333 76.5 57 105.5s54.167 51.333 88.5 67s72.166 23.5 113.499 23.5c46.667 0 87.167 -8 121.5 -24s64.166 -39.333 89.499 -70l-65 -62c-22 24.667 -44.833 42.5 -68.5 53.5s-49.834 16.5 -78.501 16.5
c-29.333 0 -55.166 -6.16699 -77.499 -18.5s-41.333 -29.5 -57 -51.5s-27.5 -48.333 -35.5 -79s-12 -64 -12 -100c0 -35.333 3.83301 -68.333 11.5 -99s19.334 -57.334 35.001 -80.001s35 -40.5 58 -53.5s49.5 -19.5 79.5 -19.5c56 0 105.667 24.667 149 74l65 -58
c-25.333 -31.333 -55.166 -56 -89.499 -74s-76.5 -27 -126.5 -27c-41.333 0 -79 7.66699 -113 23s-63.333 37.5 -88 66.5s-43.667 64.333 -57 106s-20 88.834 -20 141.501zM319 766.001l-131 -80l-36 29l131 119h77l129 -120l-34 -29z" />
    <glyph glyph-name="ccircumflex" unicode="&#x109;" horiz-adv-x="448" 
d="M257 497c34 0 64.3311 -5.50098 90.998 -16.501s51.334 -29.167 74.001 -54.5l-56 -57c-18 18.667 -35.667 32 -53 40s-36.333 12 -57 12c-20 0 -37.5 -4.83301 -52.5 -14.5s-27.667 -22.834 -38 -39.501s-18.166 -36.667 -23.499 -60s-8 -48.333 -8 -75
c0 -48 10.833 -87.5 32.5 -118.5s52.5 -46.5 92.5 -46.5c20.667 0 39.667 4.33301 57 13s34.666 22 51.999 40l56 -53c-21.333 -24 -45.333 -42.833 -72 -56.5s-59 -20.5 -97 -20.5c-29.333 0 -56.666 5 -81.999 15s-47.5 25 -66.5 45s-34 44.833 -45 74.5
s-16.5 64.167 -16.5 103.5c0 42.667 5.16699 80.834 15.5 114.501s24.833 61.834 43.5 84.501s41 40 67 52s54.667 18 86 18zM247.998 639.999l-132 -92l-35 28l130 131h78l129 -131l-34 -29z" />
    <glyph glyph-name="Cdotaccent" unicode="&#x10a;" horiz-adv-x="565" 
d="M45 327c0 51.333 6.66699 97.667 20 139s32.333 76.5 57 105.5s54.167 51.333 88.5 67s72.166 23.5 113.499 23.5c46.667 0 87.167 -8 121.5 -24s64.166 -39.333 89.499 -70l-65 -62c-22 24.667 -44.833 42.5 -68.5 53.5s-49.834 16.5 -78.501 16.5
c-29.333 0 -55.166 -6.16699 -77.499 -18.5s-41.333 -29.5 -57 -51.5s-27.5 -48.333 -35.5 -79s-12 -64 -12 -100c0 -35.333 3.83301 -68.333 11.5 -99s19.334 -57.334 35.001 -80.001s35 -40.5 58 -53.5s49.5 -19.5 79.5 -19.5c56 0 105.667 24.667 149 74l65 -58
c-25.333 -31.333 -55.166 -56 -89.499 -74s-76.5 -27 -126.5 -27c-41.333 0 -79 7.66699 -113 23s-63.333 37.5 -88 66.5s-43.667 64.333 -57 106s-20 88.834 -20 141.501zM264 758.001c0 15.333 5.16699 28.166 15.5 38.499s22.833 15.5 37.5 15.5
s27.167 -5.16699 37.5 -15.5s15.5 -23.166 15.5 -38.499c0 -14 -5.16699 -26.333 -15.5 -37s-22.833 -16 -37.5 -16s-27.167 5.33301 -37.5 16s-15.5 23 -15.5 37z" />
    <glyph glyph-name="cdotaccent" unicode="&#x10b;" horiz-adv-x="448" 
d="M257 497c34 0 64.3311 -5.50098 90.998 -16.501s51.334 -29.167 74.001 -54.5l-56 -57c-18 18.667 -35.667 32 -53 40s-36.333 12 -57 12c-20 0 -37.5 -4.83301 -52.5 -14.5s-27.667 -22.834 -38 -39.501s-18.166 -36.667 -23.499 -60s-8 -48.333 -8 -75
c0 -48 10.833 -87.5 32.5 -118.5s52.5 -46.5 92.5 -46.5c20.667 0 39.667 4.33301 57 13s34.666 22 51.999 40l56 -53c-21.333 -24 -45.333 -42.833 -72 -56.5s-59 -20.5 -97 -20.5c-29.333 0 -56.666 5 -81.999 15s-47.5 25 -66.5 45s-34 44.833 -45 74.5
s-16.5 64.167 -16.5 103.5c0 42.667 5.16699 80.834 15.5 114.501s24.833 61.834 43.5 84.501s41 40 67 52s54.667 18 86 18zM201.998 625.999c0 15.333 5.16699 28.166 15.5 38.499s22.833 15.5 37.5 15.5s27.167 -5.16699 37.5 -15.5s15.5 -23.166 15.5 -38.499
c0 -14 -5.16699 -26.333 -15.5 -37s-22.833 -16 -37.5 -16s-27.167 5.33301 -37.5 16s-15.5 23 -15.5 37z" />
    <glyph glyph-name="Ccaron" unicode="&#x10c;" horiz-adv-x="565" 
d="M45 327c0 51.333 6.66699 97.667 20 139s32.333 76.5 57 105.5s54.167 51.333 88.5 67s72.166 23.5 113.499 23.5c46.667 0 87.167 -8 121.5 -24s64.166 -39.333 89.499 -70l-65 -62c-22 24.667 -44.833 42.5 -68.5 53.5s-49.834 16.5 -78.501 16.5
c-29.333 0 -55.166 -6.16699 -77.499 -18.5s-41.333 -29.5 -57 -51.5s-27.5 -48.333 -35.5 -79s-12 -64 -12 -100c0 -35.333 3.83301 -68.333 11.5 -99s19.334 -57.334 35.001 -80.001s35 -40.5 58 -53.5s49.5 -19.5 79.5 -19.5c56 0 105.667 24.667 149 74l65 -58
c-25.333 -31.333 -55.166 -56 -89.499 -74s-76.5 -27 -126.5 -27c-41.333 0 -79 7.66699 -113 23s-63.333 37.5 -88 66.5s-43.667 64.333 -57 106s-20 88.834 -20 141.501zM455 840.001l35 -29l-131 -120h-77l-130 119l35 29l132 -81z" />
    <glyph glyph-name="ccaron" unicode="&#x10d;" horiz-adv-x="448" 
d="M257 497c34 0 64.3311 -5.50098 90.998 -16.501s51.334 -29.167 74.001 -54.5l-56 -57c-18 18.667 -35.667 32 -53 40s-36.333 12 -57 12c-20 0 -37.5 -4.83301 -52.5 -14.5s-27.667 -22.834 -38 -39.501s-18.166 -36.667 -23.499 -60s-8 -48.333 -8 -75
c0 -48 10.833 -87.5 32.5 -118.5s52.5 -46.5 92.5 -46.5c20.667 0 39.667 4.33301 57 13s34.666 22 51.999 40l56 -53c-21.333 -24 -45.333 -42.833 -72 -56.5s-59 -20.5 -97 -20.5c-29.333 0 -56.666 5 -81.999 15s-47.5 25 -66.5 45s-34 44.833 -45 74.5
s-16.5 64.167 -16.5 103.5c0 42.667 5.16699 80.834 15.5 114.501s24.833 61.834 43.5 84.501s41 40 67 52s54.667 18 86 18zM387.998 711.999l34 -28l-129 -132h-78l-130 132l35 28l132 -93z" />
    <glyph glyph-name="Dcaron" unicode="&#x10e;" horiz-adv-x="622" 
d="M71 0l0.00292969 651h175c44.667 0 86.667 -5.83301 126 -17.5s73.666 -30.5 102.999 -56.5s52.666 -59.667 69.999 -101s26 -91.333 26 -150s-8.66699 -108.667 -26 -150s-41 -75 -71 -101s-64.833 -45 -104.5 -57s-81.834 -18 -126.501 -18h-172zM163.003 568
l-0.000976562 -485h79c78.667 0 137.334 21.833 176.001 65.5s58 102.5 58 176.5c0 36.667 -4.83301 70 -14.5 100s-24.167 55.5 -43.5 76.5s-43.5 37.333 -72.5 49s-63.167 17.5 -102.5 17.5h-80zM398.002 840l35 -29l-131 -120h-77l-130 119l35 29l132 -81z" />
    <glyph glyph-name="dcaron" unicode="&#x10f;" horiz-adv-x="615" 
d="M517 560c13.333 9.33301 23.501 17.999 30.501 25.999s11.167 19.667 12.5 35c-14.667 0 -27.167 4.5 -37.5 13.5s-15.5 21.833 -15.5 38.5c0 15.333 5.16699 28.5 15.5 39.5s23.166 16.5 38.499 16.5c17.333 0 32 -6.66699 44 -20s18 -31.666 18 -54.999
c0 -32 -7.83301 -57.833 -23.5 -77.5s-35.5 -35.167 -59.5 -46.5l-12 15c-5.33301 6.66699 -9 11.667 -11 15zM246.001 496.999c24 0 45.834 -4.33301 65.501 -13s37.834 -20.667 54.501 -36h3v212l88 37v-697h-88v46h-2c-22.667 -22 -45.667 -36.833 -69 -44.5
s-46.333 -11.5 -69 -11.5c-25.333 0 -49.333 4.5 -72 13.5s-42.334 23 -59.001 42s-29.834 43.333 -39.501 73s-14.5 65.167 -14.5 106.5c0 48.667 6 90.167 18 124.5s27.5 62.5 46.5 84.5s40.5 38 64.5 48s48.333 15 73 15zM258.002 421.999c-40 0 -71 -16.833 -93 -50.5
s-33 -81.834 -33 -144.501c0 -52 10.333 -92.167 31 -120.5s50 -42.5 88 -42.5c25.333 0 48 6.5 68 19.5s37 27.833 51 44.5v231c-13.333 16.667 -29.5 31.334 -48.5 44.001s-40.167 19 -63.5 19z" />
    <glyph glyph-name="Dcroat" unicode="&#x110;" horiz-adv-x="622" 
d="M71 0l0.00292969 298h-64v57h64v296h175c44.667 0 86.667 -5.83301 126 -17.5s73.666 -30.5 102.999 -56.5s52.666 -59.667 69.999 -101s26 -91.333 26 -150s-8.66699 -108.667 -26 -150s-41 -75 -71 -101s-64.833 -45 -104.5 -57s-81.834 -18 -126.501 -18h-172z
M163.003 568l-0.000976562 -213h119v-57h-119v-215h79c78.667 0 137.334 21.833 176.001 65.5s58 102.5 58 176.5c0 36.667 -4.83301 70 -14.5 100s-24.167 55.5 -43.5 76.5s-43.5 37.333 -72.5 49s-63.167 17.5 -102.5 17.5h-80z" />
    <glyph glyph-name="dcroat" unicode="&#x111;" horiz-adv-x="520" 
d="M44 230c0 46 5.83008 84.668 17.4971 116.001s26.834 56.666 45.501 75.999s39.834 33.333 63.501 42s47.5 13 71.5 13s46 -4 66 -12s39.333 -21.333 58 -40h3v101h-135v55h135v72l88 37v-109h47v-55h-47v-526h-88v46h-2c-22.667 -22 -45.667 -36.833 -69 -44.5
s-46.333 -11.5 -69 -11.5c-24 0 -47 4.33301 -69 13s-41.667 22.5 -59 41.5s-31.166 43.833 -41.499 74.5s-15.5 67.667 -15.5 111zM131.997 230.001c0 -54 10.833 -95.167 32.5 -123.5s50.5 -42.5 86.5 -42.5c25.333 0 48 6.5 68 19.5s37 27.833 51 44.5v211
c-13.333 17.333 -29.833 32.333 -49.5 45s-41.167 19 -64.5 19c-40 0 -70.667 -14.833 -92 -44.5s-32 -72.5 -32 -128.5z" />
    <glyph glyph-name="Emacron" unicode="&#x112;" horiz-adv-x="522" 
d="M64 651h429v-83h-336v-181h238v-83h-238v-221h348v-83h-441v651zM158 789h250v-65h-250v65z" />
    <glyph glyph-name="emacron" unicode="&#x113;" horiz-adv-x="499" 
d="M257 497c34 0 63.835 -5.99902 89.502 -17.999s47.167 -28.833 64.5 -50.5s30.333 -47.834 39 -78.501s13 -64.667 13 -102v-35h-331c3.33301 -48.667 17.5 -85.667 42.5 -111s55.5 -38 91.5 -38c20.667 0 41.167 4 61.5 12s38.166 18.667 53.499 32l46 -55
c-24.667 -22.667 -50.834 -38.834 -78.501 -48.501s-58.167 -14.5 -91.5 -14.5c-32 0 -61 5.33301 -87 16s-48.333 26.5 -67 47.5s-33.167 47 -43.5 78s-15.5 66.5 -15.5 106.5s5.33301 75.833 16 107.5s25.5 58.834 44.5 81.501s41.5 40 67.5 52s54.333 18 85 18z
M376.002 278.001c0 20 -2.50098 38.833 -7.50098 56.5s-12.333 33 -22 46s-22.167 23.333 -37.5 31s-33.666 11.5 -54.999 11.5c-32 0 -59.5 -13.167 -82.5 -39.5s-36.167 -61.5 -39.5 -105.5h244zM137.001 663.001h250v-65h-250v65z" />
    <glyph glyph-name="Ebreve" unicode="&#x114;" horiz-adv-x="522" 
d="M64 651h429v-83h-336v-181h238v-83h-238v-221h348v-83h-441v651zM210 820c3.33301 -18.667 10.6719 -34 22.0049 -46s27.666 -18 48.999 -18c22.667 0 39.667 6.83301 51 20.5s17.333 28.167 18 43.5h65c-0.666992 -12.667 -3.33398 -26.334 -8.00098 -41.001
s-12.167 -28.167 -22.5 -40.5s-23.833 -22.5 -40.5 -30.5s-37.334 -12 -62.001 -12c-25.333 0 -46.5 4 -63.5 12s-30.833 18.167 -41.5 30.5s-18.334 25.833 -23.001 40.5s-7.33398 28.334 -8.00098 41.001h64z" />
    <glyph glyph-name="ebreve" unicode="&#x115;" horiz-adv-x="499" 
d="M257 497c34 0 63.835 -5.99902 89.502 -17.999s47.167 -28.833 64.5 -50.5s30.333 -47.834 39 -78.501s13 -64.667 13 -102v-35h-331c3.33301 -48.667 17.5 -85.667 42.5 -111s55.5 -38 91.5 -38c20.667 0 41.167 4 61.5 12s38.166 18.667 53.499 32l46 -55
c-24.667 -22.667 -50.834 -38.834 -78.501 -48.501s-58.167 -14.5 -91.5 -14.5c-32 0 -61 5.33301 -87 16s-48.333 26.5 -67 47.5s-33.167 47 -43.5 78s-15.5 66.5 -15.5 106.5s5.33301 75.833 16 107.5s25.5 58.834 44.5 81.501s41.5 40 67.5 52s54.333 18 85 18z
M376.002 278.001c0 20 -2.50098 38.833 -7.50098 56.5s-12.333 33 -22 46s-22.167 23.333 -37.5 31s-33.666 11.5 -54.999 11.5c-32 0 -59.5 -13.167 -82.5 -39.5s-36.167 -61.5 -39.5 -105.5h244zM189.001 687.001c3.33301 -18.667 10.6719 -34 22.0049 -46
s27.666 -18 48.999 -18c22.667 0 39.667 6.83301 51 20.5s17.333 28.167 18 43.5h65c-0.666992 -12.667 -3.33398 -26.334 -8.00098 -41.001s-12.167 -28.167 -22.5 -40.5s-23.833 -22.5 -40.5 -30.5s-37.334 -12 -62.001 -12c-25.333 0 -46.5 4 -63.5 12
s-30.833 18.167 -41.5 30.5s-18.334 25.833 -23.001 40.5s-7.33398 28.334 -8.00098 41.001h64z" />
    <glyph glyph-name="Edotaccent" unicode="&#x116;" horiz-adv-x="522" 
d="M64 651h429v-83h-336v-181h238v-83h-238v-221h348v-83h-441v651zM234 756c0 15.333 5.16699 28.166 15.5 38.499s22.833 15.5 37.5 15.5s27.167 -5.16699 37.5 -15.5s15.5 -23.166 15.5 -38.499c0 -14 -5.16699 -26.333 -15.5 -37s-22.833 -16 -37.5 -16
s-27.167 5.33301 -37.5 16s-15.5 23 -15.5 37z" />
    <glyph glyph-name="edotaccent" unicode="&#x117;" horiz-adv-x="499" 
d="M257 497c34 0 63.835 -5.99902 89.502 -17.999s47.167 -28.833 64.5 -50.5s30.333 -47.834 39 -78.501s13 -64.667 13 -102v-35h-331c3.33301 -48.667 17.5 -85.667 42.5 -111s55.5 -38 91.5 -38c20.667 0 41.167 4 61.5 12s38.166 18.667 53.499 32l46 -55
c-24.667 -22.667 -50.834 -38.834 -78.501 -48.501s-58.167 -14.5 -91.5 -14.5c-32 0 -61 5.33301 -87 16s-48.333 26.5 -67 47.5s-33.167 47 -43.5 78s-15.5 66.5 -15.5 106.5s5.33301 75.833 16 107.5s25.5 58.834 44.5 81.501s41.5 40 67.5 52s54.333 18 85 18z
M376.002 278.001c0 20 -2.50098 38.833 -7.50098 56.5s-12.333 33 -22 46s-22.167 23.333 -37.5 31s-33.666 11.5 -54.999 11.5c-32 0 -59.5 -13.167 -82.5 -39.5s-36.167 -61.5 -39.5 -105.5h244zM207.001 615.001c0 15.333 5.16699 28.166 15.5 38.499
s22.833 15.5 37.5 15.5s27.167 -5.16699 37.5 -15.5s15.5 -23.166 15.5 -38.499c0 -14 -5.16699 -26.333 -15.5 -37s-22.833 -16 -37.5 -16s-27.167 5.33301 -37.5 16s-15.5 23 -15.5 37z" />
    <glyph glyph-name="Eogonek" unicode="&#x118;" horiz-adv-x="522" 
d="M64 651l428.998 -0.00195312v-83h-336v-181h238v-83h-238v-221h348v-83h-8c-16 -21.333 -27.667 -40 -35 -56s-11 -30.667 -11 -44c0 -15.333 4.83301 -27 14.5 -35s22.167 -12 37.5 -12c16 0 34 4.33301 54 13c0.666992 -1.33301 1.83398 -4.16602 3.50098 -8.49902
s3.5 -8.83301 5.5 -13.5s3.83301 -9.16699 5.5 -13.5s2.83398 -7.16602 3.50098 -8.49902c-13.333 -6.66699 -27.5 -12 -42.5 -16s-30.167 -6 -45.5 -6c-27.333 0 -50.333 7.5 -69 22.5s-28 35.833 -28 62.5c0 15.333 4.5 32.5 13.5 51.5s23.167 40.167 42.5 63.5h-382v651z
" />
    <glyph glyph-name="eogonek" unicode="&#x119;" horiz-adv-x="499" 
d="M257 497c34 0 63.832 -6.00195 89.499 -18.002s47.167 -28.833 64.5 -50.5s30.333 -47.834 39 -78.501s13 -64.667 13 -102v-35h-331c3.33301 -48.667 17.5 -85.667 42.5 -111s55.5 -38 91.5 -38c20.667 0 41.167 4 61.5 12s38.166 18.667 53.499 32l46 -55
c-18.667 -16.667 -38 -30 -58 -40c-13.333 -17.333 -22.833 -33.333 -28.5 -48s-8.5 -27.667 -8.5 -39c0 -15.333 4.83301 -27 14.5 -35s22.167 -12 37.5 -12c16 0 34 4.33301 54 13c0.666992 -1.33301 1.83398 -4.16602 3.50098 -8.49902s3.5 -8.83301 5.5 -13.5
s3.83301 -9.16699 5.5 -13.5s2.83398 -7.16602 3.50098 -8.49902c-13.333 -6.66699 -27.5 -12 -42.5 -16s-30.167 -6 -45.5 -6c-27.333 0 -50.333 7.5 -69 22.5s-28 35.833 -28 62.5c0 11.333 2.33301 23.833 7 37.5s12.667 28.5 24 44.5c-14 -2 -29 -3 -45 -3
c-32 0 -61 5.33301 -87 16s-48.333 26.5 -67 47.5s-33.167 47 -43.5 78s-15.5 66.5 -15.5 106.5s5.33301 75.833 16 107.5s25.5 58.834 44.5 81.501s41.5 40 67.5 52s54.333 18 85 18zM375.999 277.998c0 20 -2.50098 38.833 -7.50098 56.5s-12.333 33 -22 46
s-22.167 23.333 -37.5 31s-33.666 11.5 -54.999 11.5c-32 0 -59.5 -13.167 -82.5 -39.5s-36.167 -61.5 -39.5 -105.5h244z" />
    <glyph glyph-name="Ecaron" unicode="&#x11a;" horiz-adv-x="522" 
d="M64 651h429v-83h-336v-181h238v-83h-238v-221h348v-83h-441v651zM411 840l35 -29l-131 -120h-77l-130 119l35 29l132 -81z" />
    <glyph glyph-name="ecaron" unicode="&#x11b;" horiz-adv-x="499" 
d="M257 497c34 0 63.835 -5.99902 89.502 -17.999s47.167 -28.833 64.5 -50.5s30.333 -47.834 39 -78.501s13 -64.667 13 -102v-35h-331c3.33301 -48.667 17.5 -85.667 42.5 -111s55.5 -38 91.5 -38c20.667 0 41.167 4 61.5 12s38.166 18.667 53.499 32l46 -55
c-24.667 -22.667 -50.834 -38.834 -78.501 -48.501s-58.167 -14.5 -91.5 -14.5c-32 0 -61 5.33301 -87 16s-48.333 26.5 -67 47.5s-33.167 47 -43.5 78s-15.5 66.5 -15.5 106.5s5.33301 75.833 16 107.5s25.5 58.834 44.5 81.501s41.5 40 67.5 52s54.333 18 85 18z
M376.002 278.001c0 20 -2.50098 38.833 -7.50098 56.5s-12.333 33 -22 46s-22.167 23.333 -37.5 31s-33.666 11.5 -54.999 11.5c-32 0 -59.5 -13.167 -82.5 -39.5s-36.167 -61.5 -39.5 -105.5h244zM389.001 712.001l34 -28l-129 -132h-78l-130 132l35 28l132 -93z" />
    <glyph glyph-name="Gcircumflex" unicode="&#x11c;" horiz-adv-x="605" 
d="M319 660c46 0 86.3359 -7.83789 121.003 -23.5049s65 -39.5 91 -71.5l-67 -62c-41.333 47.333 -90.333 71 -147 71c-30 0 -56.167 -6.16699 -78.5 -18.5s-41.166 -29.666 -56.499 -51.999s-26.833 -48.666 -34.5 -78.999s-11.5 -63.5 -11.5 -99.5
c0 -38 3.83301 -72.5 11.5 -103.5s19.334 -57.5 35.001 -79.5s35 -39 58 -51s49.833 -18 80.5 -18c32 0 58.333 5.83301 79 17.5s36.667 26.334 48 44.001s19.166 36.667 23.499 57s6.5 39.5 6.5 57.5h-107v78h201v-67c0 -42 -5.83301 -79.667 -17.5 -113
s-28.5 -61.666 -50.5 -84.999s-48.667 -41.166 -80 -53.499s-66.333 -18.5 -105 -18.5c-44 0 -83.167 7.83301 -117.5 23.5s-63.333 38.167 -87 67.5s-41.834 64.5 -54.501 105.5s-19 87.167 -19 138.5c0 52 6.66699 98.667 20 140s32.166 76.5 56.499 105.5
s53.666 51.167 87.999 66.5s72.166 23 113.499 23zM317.003 765.995l-131 -80l-36 29l131 119h77l129 -120l-34 -29z" />
    <glyph glyph-name="gcircumflex" unicode="&#x11d;" horiz-adv-x="513" 
d="M458 36c0 -59.333 -16.168 -110.667 -48.501 -154s-85.833 -74 -160.5 -92l-27 73c32.667 10 58.834 21.333 78.501 34s34.667 25.667 45 39s17.166 27 20.499 41s5 27.333 5 40v34h-3c-25.333 -22.667 -48.833 -37.834 -70.5 -45.501s-43.834 -11.5 -66.501 -11.5
c-25.333 0 -49.166 4.16699 -71.499 12.5s-42 22 -59 41s-30.5 43.833 -40.5 74.5s-15 68.334 -15 113.001c0 44 5.33301 82.333 16 115s24.834 60 42.501 82s37.834 38.333 60.501 49s46.334 16 71.001 16c23.333 0 46.166 -4.16699 68.499 -12.5
s44.166 -22.5 65.499 -42.5v46h89v-452zM369.999 357.999c-13.333 16.667 -29.9971 31.667 -49.9971 45s-42.667 20 -68 20c-34.667 0 -62.834 -15.833 -84.501 -47.5s-33.167 -74.167 -34.5 -127.5c0 -120 40.333 -180 121 -180c23.333 0 45.166 6.83301 65.499 20.5
s37.166 28.167 50.499 43.5v226zM267.002 639.999l-132 -92l-35 28l130 131h78l129 -131l-34 -29z" />
    <glyph glyph-name="Gbreve" unicode="&#x11e;" horiz-adv-x="605" 
d="M319 660c46 0 86.3359 -7.83789 121.003 -23.5049s65 -39.5 91 -71.5l-67 -62c-41.333 47.333 -90.333 71 -147 71c-30 0 -56.167 -6.16699 -78.5 -18.5s-41.166 -29.666 -56.499 -51.999s-26.833 -48.666 -34.5 -78.999s-11.5 -63.5 -11.5 -99.5
c0 -38 3.83301 -72.5 11.5 -103.5s19.334 -57.5 35.001 -79.5s35 -39 58 -51s49.833 -18 80.5 -18c32 0 58.333 5.83301 79 17.5s36.667 26.334 48 44.001s19.166 36.667 23.499 57s6.5 39.5 6.5 57.5h-107v78h201v-67c0 -42 -5.83301 -79.667 -17.5 -113
s-28.5 -61.666 -50.5 -84.999s-48.667 -41.166 -80 -53.499s-66.333 -18.5 -105 -18.5c-44 0 -83.167 7.83301 -117.5 23.5s-63.333 38.167 -87 67.5s-41.834 64.5 -54.501 105.5s-19 87.167 -19 138.5c0 52 6.66699 98.667 20 140s32.166 76.5 56.499 105.5
s53.666 51.167 87.999 66.5s72.166 23 113.499 23zM245.003 820.995c3.33301 -18.667 10.6719 -34 22.0049 -46s27.666 -18 48.999 -18c22.667 0 39.667 6.83301 51 20.5s17.333 28.167 18 43.5h65c-0.666992 -12.667 -3.33398 -26.334 -8.00098 -41.001
s-12.167 -28.167 -22.5 -40.5s-23.833 -22.5 -40.5 -30.5s-37.334 -12 -62.001 -12c-25.333 0 -46.5 4 -63.5 12s-30.833 18.167 -41.5 30.5s-18.334 25.833 -23.001 40.5s-7.33398 28.334 -8.00098 41.001h64z" />
    <glyph glyph-name="gbreve" unicode="&#x11f;" horiz-adv-x="513" 
d="M458 36c0 -59.333 -16.168 -110.667 -48.501 -154s-85.833 -74 -160.5 -92l-27 73c32.667 10 58.834 21.333 78.501 34s34.667 25.667 45 39s17.166 27 20.499 41s5 27.333 5 40v34h-3c-25.333 -22.667 -48.833 -37.834 -70.5 -45.501s-43.834 -11.5 -66.501 -11.5
c-25.333 0 -49.166 4.16699 -71.499 12.5s-42 22 -59 41s-30.5 43.833 -40.5 74.5s-15 68.334 -15 113.001c0 44 5.33301 82.333 16 115s24.834 60 42.501 82s37.834 38.333 60.501 49s46.334 16 71.001 16c23.333 0 46.166 -4.16699 68.499 -12.5
s44.166 -22.5 65.499 -42.5v46h89v-452zM369.999 357.999c-13.333 16.667 -29.9971 31.667 -49.9971 45s-42.667 20 -68 20c-34.667 0 -62.834 -15.833 -84.501 -47.5s-33.167 -74.167 -34.5 -127.5c0 -120 40.333 -180 121 -180c23.333 0 45.166 6.83301 65.499 20.5
s37.166 28.167 50.499 43.5v226zM195.002 686.999c3.33301 -18.667 10.6719 -34 22.0049 -46s27.666 -18 48.999 -18c22.667 0 39.667 6.83301 51 20.5s17.333 28.167 18 43.5h65c-0.666992 -12.667 -3.33398 -26.334 -8.00098 -41.001s-12.167 -28.167 -22.5 -40.5
s-23.833 -22.5 -40.5 -30.5s-37.334 -12 -62.001 -12c-25.333 0 -46.5 4 -63.5 12s-30.833 18.167 -41.5 30.5s-18.334 25.833 -23.001 40.5s-7.33398 28.334 -8.00098 41.001h64z" />
    <glyph glyph-name="Gdotaccent" unicode="&#x120;" horiz-adv-x="605" 
d="M319 660c46 0 86.3359 -7.83789 121.003 -23.5049s65 -39.5 91 -71.5l-67 -62c-41.333 47.333 -90.333 71 -147 71c-30 0 -56.167 -6.16699 -78.5 -18.5s-41.166 -29.666 -56.499 -51.999s-26.833 -48.666 -34.5 -78.999s-11.5 -63.5 -11.5 -99.5
c0 -38 3.83301 -72.5 11.5 -103.5s19.334 -57.5 35.001 -79.5s35 -39 58 -51s49.833 -18 80.5 -18c32 0 58.333 5.83301 79 17.5s36.667 26.334 48 44.001s19.166 36.667 23.499 57s6.5 39.5 6.5 57.5h-107v78h201v-67c0 -42 -5.83301 -79.667 -17.5 -113
s-28.5 -61.666 -50.5 -84.999s-48.667 -41.166 -80 -53.499s-66.333 -18.5 -105 -18.5c-44 0 -83.167 7.83301 -117.5 23.5s-63.333 38.167 -87 67.5s-41.834 64.5 -54.501 105.5s-19 87.167 -19 138.5c0 52 6.66699 98.667 20 140s32.166 76.5 56.499 105.5
s53.666 51.167 87.999 66.5s72.166 23 113.499 23zM271.003 755.995c0 15.333 5.16699 28.166 15.5 38.499s22.833 15.5 37.5 15.5s27.167 -5.16699 37.5 -15.5s15.5 -23.166 15.5 -38.499c0 -14 -5.16699 -26.333 -15.5 -37s-22.833 -16 -37.5 -16
s-27.167 5.33301 -37.5 16s-15.5 23 -15.5 37z" />
    <glyph glyph-name="gdotaccent" unicode="&#x121;" horiz-adv-x="513" 
d="M458 36c0 -59.333 -16.168 -110.667 -48.501 -154s-85.833 -74 -160.5 -92l-27 73c32.667 10 58.834 21.333 78.501 34s34.667 25.667 45 39s17.166 27 20.499 41s5 27.333 5 40v34h-3c-25.333 -22.667 -48.833 -37.834 -70.5 -45.501s-43.834 -11.5 -66.501 -11.5
c-25.333 0 -49.166 4.16699 -71.499 12.5s-42 22 -59 41s-30.5 43.833 -40.5 74.5s-15 68.334 -15 113.001c0 44 5.33301 82.333 16 115s24.834 60 42.501 82s37.834 38.333 60.501 49s46.334 16 71.001 16c23.333 0 46.166 -4.16699 68.499 -12.5
s44.166 -22.5 65.499 -42.5v46h89v-452zM369.999 357.999c-13.333 16.667 -29.9971 31.667 -49.9971 45s-42.667 20 -68 20c-34.667 0 -62.834 -15.833 -84.501 -47.5s-33.167 -74.167 -34.5 -127.5c0 -120 40.333 -180 121 -180c23.333 0 45.166 6.83301 65.499 20.5
s37.166 28.167 50.499 43.5v226zM227.002 625.999c0 15.333 5.16699 28.166 15.5 38.499s22.833 15.5 37.5 15.5s27.167 -5.16699 37.5 -15.5s15.5 -23.166 15.5 -38.499c0 -14 -5.16699 -26.333 -15.5 -37s-22.833 -16 -37.5 -16s-27.167 5.33301 -37.5 16
s-15.5 23 -15.5 37z" />
    <glyph glyph-name="Gcommaaccent" unicode="&#x122;" horiz-adv-x="605" 
d="M319 660c46 0 86.3359 -7.83789 121.003 -23.5049s65 -39.5 91 -71.5l-67 -62c-41.333 47.333 -90.333 71 -147 71c-30 0 -56.167 -6.16699 -78.5 -18.5s-41.166 -29.666 -56.499 -51.999s-26.833 -48.666 -34.5 -78.999s-11.5 -63.5 -11.5 -99.5
c0 -38 3.83301 -72.5 11.5 -103.5s19.334 -57.5 35.001 -79.5s35 -39 58 -51s49.833 -18 80.5 -18c32 0 58.333 5.83301 79 17.5s36.667 26.334 48 44.001s19.166 36.667 23.499 57s6.5 39.5 6.5 57.5h-107v78h201v-67c0 -42 -5.83301 -79.667 -17.5 -113
s-28.5 -61.666 -50.5 -84.999s-48.667 -41.166 -80 -53.499s-66.333 -18.5 -105 -18.5c-44 0 -83.167 7.83301 -117.5 23.5s-63.333 38.167 -87 67.5s-41.834 64.5 -54.501 105.5s-19 87.167 -19 138.5c0 52 6.66699 98.667 20 140s32.166 76.5 56.499 105.5
s53.666 51.167 87.999 66.5s72.166 23 113.499 23zM266.003 -219.005c13.333 9.33301 23.668 18.166 31.001 26.499s11.666 19.833 12.999 34.5c-15.333 0 -28.5 3.83301 -39.5 11.5s-16.5 20.834 -16.5 39.501c0 16.667 5.5 30.5 16.5 41.5s24.5 16.5 40.5 16.5
c17.333 0 32 -6.83301 44 -20.5s18 -32.167 18 -55.5c0 -31.333 -7.66699 -57 -23 -77s-35.333 -35.667 -60 -47z" />
    <glyph glyph-name="gcommaaccent" unicode="&#x123;" horiz-adv-x="513" 
d="M457 36c0 -59.333 -16 -110.504 -48 -153.504s-85.333 -73.833 -160 -92.5c-5.33301 12.667 -10 25 -14 37s-8.66699 24 -14 36c32.667 10.667 59 22.167 79 34.5s35.167 25.333 45.5 39s17.166 27.334 20.499 41.001s5 26.834 5 39.501v34h-3
c-25.333 -22.667 -48.833 -37.667 -70.5 -45s-44.167 -11 -67.5 -11c-24 0 -47.167 4.16699 -69.5 12.5s-42 22.333 -59 42s-30.667 45.334 -41 77.001s-15.5 70.834 -15.5 117.501c0 42.667 5.33301 79.667 16 111s24.834 57.5 42.501 78.5s38 36.667 61 47
s46.5 15.5 70.5 15.5c22.667 0 45 -3.83301 67 -11.5s43.333 -22.167 64 -43.5c0.666992 0 1.16699 0.166992 1.5 0.5s0.833008 0.5 1.5 0.5v46h88v-452zM369 357.996c-13.333 16.667 -29.999 31.667 -49.999 45s-42.333 20 -67 20c-34.667 0 -63.334 -15.833 -86.001 -47.5
s-34 -74.167 -34 -127.5c0 -120 40.667 -180 122 -180c23.333 0 45 6.66699 65 20s36.667 28 50 44v226zM325.001 718.996c-17.333 -8.66699 -29.835 -18.6689 -37.502 -30.002s-12.167 -23.666 -13.5 -36.999c0.666992 0 1.33398 0.166992 2.00098 0.5s1.66699 0.5 3 0.5
c12 0 22.833 -4.5 32.5 -13.5s14.5 -21.5 14.5 -37.5c0 -15.333 -5.5 -27.666 -16.5 -36.999s-24.167 -14 -39.5 -14s-28.666 5.83301 -39.999 17.5s-17 28.834 -17 51.501c0 28.667 8.33301 54.667 25 78s38.667 40.666 66 51.999z" />
    <glyph glyph-name="Hcircumflex" unicode="&#x124;" horiz-adv-x="632" 
d="M475 297h-318v-297h-94v651h94v-270h318v270h93v-651h-93v297zM317 766l-131 -80l-36 29l131 119h77l129 -120l-34 -29z" />
    <glyph glyph-name="hcircumflex" unicode="&#x125;" horiz-adv-x="501" 
d="M453 0h-87.999v289c0 41.333 -8.33301 73.666 -25 96.999s-43.667 35 -81 35c-28 0 -51.833 -8.66699 -71.5 -26s-32.834 -39.333 -39.501 -66c-3.33301 -13.333 -5 -27.666 -5 -42.999v-286h-88v660l88 37v-271h3c18 24.667 40 42.667 66 54s50.667 17 74 17
c57.333 0 99.5 -16.667 126.5 -50s40.5 -81 40.5 -143v-304zM106.001 768l-131 -80l-36 29l131 119h77l129 -120l-34 -29z" />
    <glyph glyph-name="Hbar" unicode="&#x126;" horiz-adv-x="632" 
d="M475 297h-318v-297h-94v503h-41v56h41v92h94v-92h318v92h93v-92h44v-56h-44v-503h-93v297zM475 381v122h-318v-122h318z" />
    <glyph glyph-name="hbar" unicode="&#x127;" horiz-adv-x="503" 
d="M453 0h-87.9971v263c0 41.333 -8.33301 73.666 -25 96.999s-43.667 35 -81 35c-28 0 -51.833 -8.83301 -71.5 -26.5s-32.834 -39.5 -39.501 -65.5c-3.33301 -13.333 -5 -27.666 -5 -42.999v-260h-88v530h-41v54h41v77c3.33301 1.33301 9.16602 3.83301 17.499 7.5
l26.5 11.5l26.5 11.5c8.33301 3.66699 14.166 6.16699 17.499 7.5v-115h195v-54h-195v-130h3c18 24.667 40 42.667 66 54s50.667 17 74 17c57.333 0 99.5 -16.667 126.5 -50s40.5 -81.333 40.5 -144v-277z" />
    <glyph glyph-name="Itilde" unicode="&#x128;" horiz-adv-x="306" 
d="M101 651h94v-651h-94v651zM222 706c-11.333 0 -23 2.16895 -35 6.50195s-23.833 9.16602 -35.5 14.499s-23.167 10.166 -34.5 14.499s-22 6.5 -32 6.5c-11.333 0 -22.166 -2.66699 -32.499 -8s-21.166 -16.333 -32.499 -33l-40 18c12.667 34.667 29 58.5 49 71.5
s39 19.5 57 19.5c11.333 0 23.166 -2.33301 35.499 -7s24.5 -9.66699 36.5 -15l35 -15c11.333 -4.66699 22 -7 32 -7c12 0 22.667 2.5 32 7.5s19.666 15.167 30.999 30.5l38 -19c-12 -31.333 -27 -53.333 -45 -66s-37.667 -19 -59 -19z" />
    <glyph glyph-name="itilde" unicode="&#x129;" horiz-adv-x="326" 
d="M232 571c-11.333 0 -23 2.16895 -35 6.50195s-23.833 9.16602 -35.5 14.499s-23.167 10.166 -34.5 14.499s-22 6.5 -32 6.5c-11.333 0 -22.166 -2.66699 -32.499 -8s-21.166 -16.333 -32.499 -33l-40 18c12.667 34.667 29 58.5 49 71.5s39 19.5 57 19.5
c11.333 0 23.166 -2.33301 35.499 -7s24.5 -9.66699 36.5 -15l35 -15c11.333 -4.66699 22 -7 32 -7c12 0 22.667 2.5 32 7.5s19.666 15.167 30.999 30.5l38 -19c-12 -31.333 -27 -53.333 -45 -66s-37.667 -19 -59 -19zM114 487.002h88v-487h-88v487z" />
    <glyph glyph-name="Imacron" unicode="&#x12a;" horiz-adv-x="254" 
d="M80 651h94v-651h-94v651zM4 787h250v-65h-250v65z" />
    <glyph glyph-name="imacron" unicode="&#x12b;" horiz-adv-x="241" 
d="M-3 663h250v-65h-250v65zM78 487h88v-487h-88v487z" />
    <glyph glyph-name="Ibreve" unicode="&#x12c;" horiz-adv-x="254" 
d="M80 651h94v-651h-94v651zM58 820c3.33301 -18.667 10.6719 -34 22.0049 -46s27.666 -18 48.999 -18c22.667 0 39.667 6.83301 51 20.5s17.333 28.167 18 43.5h65c-0.666992 -12.667 -3.33398 -26.334 -8.00098 -41.001s-12.167 -28.167 -22.5 -40.5
s-23.833 -22.5 -40.5 -30.5s-37.334 -12 -62.001 -12c-25.333 0 -46.5 4 -63.5 12s-30.833 18.167 -41.5 30.5s-18.334 25.833 -23.001 40.5s-7.33398 28.334 -8.00098 41.001h64z" />
    <glyph glyph-name="ibreve" unicode="&#x12d;" horiz-adv-x="259" 
d="M59 687c3.33301 -18.667 10.6719 -34 22.0049 -46s27.666 -18 48.999 -18c22.667 0 39.667 6.83301 51 20.5s17.333 28.167 18 43.5h65c-0.666992 -12.667 -3.33398 -26.334 -8.00098 -41.001s-12.167 -28.167 -22.5 -40.5s-23.833 -22.5 -40.5 -30.5
s-37.334 -12 -62.001 -12c-25.333 0 -46.5 4 -63.5 12s-30.833 18.167 -41.5 30.5s-18.334 25.833 -23.001 40.5s-7.33398 28.334 -8.00098 41.001h64zM84.0059 487h88v-487h-88v487z" />
    <glyph glyph-name="Iogonek" unicode="&#x12e;" horiz-adv-x="254" 
d="M80 651l93.998 -0.00195312v-651h-23c-16 -21.333 -27.667 -40 -35 -56s-11 -30.667 -11 -44c0 -15.333 4.83301 -27 14.5 -35s22.167 -12 37.5 -12c16 0 34 4.33301 54 13c0.666992 -1.33301 1.83398 -4.16602 3.50098 -8.49902s3.5 -8.83301 5.5 -13.5
s3.83301 -9.16699 5.5 -13.5s2.83398 -7.16602 3.50098 -8.49902c-13.333 -6.66699 -27.5 -12 -42.5 -16s-30.167 -6 -45.5 -6c-27.333 0 -50.333 7.5 -69 22.5s-28 35.833 -28 62.5c0 15.333 4.5 32.5 13.5 51.5s23.167 40.167 42.5 63.5h-20v651z" />
    <glyph glyph-name="iogonek" unicode="&#x12f;" horiz-adv-x="241" 
d="M77 488l87.998 -0.00195312v-488h-20c-16 -21.333 -27.667 -40 -35 -56s-11 -30.667 -11 -44c0 -15.333 4.83301 -27 14.5 -35s22.167 -12 37.5 -12c16 0 34 4.33301 54 13c0.666992 -1.33301 1.83398 -4.16602 3.50098 -8.49902s3.5 -8.83301 5.5 -13.5
s3.83301 -9.16699 5.5 -13.5s2.83398 -7.16602 3.50098 -8.49902c-13.333 -6.66699 -27.5 -12 -42.5 -16s-30.167 -6 -45.5 -6c-27.333 0 -50.333 7.5 -69 22.5s-28 35.833 -28 62.5c0 15.333 4.5 32.5 13.5 51.5s23.167 40.167 42.5 63.5h-17v488zM66.998 619.998
c0 15.333 5.16699 28.166 15.5 38.499s23.166 15.5 38.499 15.5c14.667 0 27.334 -5.16699 38.001 -15.5s16 -23.166 16 -38.499c0 -14.667 -5.33301 -27.334 -16 -38.001s-23.334 -16 -38.001 -16c-15.333 0 -28.166 5.33301 -38.499 16s-15.5 23.334 -15.5 38.001z" />
    <glyph glyph-name="Idotaccent" unicode="&#x130;" horiz-adv-x="254" 
d="M80 651h94v-651h-94v651zM74 754c0 15.333 5.16699 28.166 15.5 38.499s22.833 15.5 37.5 15.5s27.167 -5.16699 37.5 -15.5s15.5 -23.166 15.5 -38.499c0 -14 -5.16699 -26.333 -15.5 -37s-22.833 -16 -37.5 -16s-27.167 5.33301 -37.5 16s-15.5 23 -15.5 37z" />
    <glyph glyph-name="dotlessi" unicode="&#x131;" horiz-adv-x="241" 
d="M78 487h88v-487h-88v487z" />
    <glyph glyph-name="IJ" unicode="&#x132;" horiz-adv-x="761" 
d="M80 651h94v-651h-94v651zM689 256c0 -89.333 -19.166 -156.001 -57.499 -200.001s-97.5 -66 -177.5 -66c-63.333 0 -113 14 -149 42s-62.667 67.667 -80 119l88 32c13.333 -35.333 31 -62.166 53 -80.499s51.667 -27.5 89 -27.5c51.333 0 87.666 16.167 108.999 48.5
s32 78.5 32 138.5v389h93v-395z" />
    <glyph glyph-name="ij" unicode="&#x133;" horiz-adv-x="445" 
d="M77 488h88v-488h-88v488zM67 620c0 15.333 5.16699 28.166 15.5 38.499s23.166 15.5 38.499 15.5c14.667 0 27.334 -5.16699 38.001 -15.5s16 -23.166 16 -38.499c0 -14.667 -5.33301 -27.334 -16 -38.001s-23.334 -16 -38.001 -16c-15.333 0 -28.166 5.33301 -38.499 16
s-15.5 23.334 -15.5 38.001zM373 -8c0 -31.333 -2.49902 -58.832 -7.49902 -82.499s-14.167 -43.5 -27.5 -59.5s-31.833 -28.333 -55.5 -37s-54.5 -13.334 -92.5 -14.001l-6 73c23.333 4 41.666 8.83301 54.999 14.5s23.5 13 30.5 22s11.5 20 13.5 33s3 28.833 3 47.5v499
h87v-496zM277.001 620.001c0 15.333 5.16699 28.166 15.5 38.499s23.166 15.5 38.499 15.5c14.667 0 27.167 -5.16699 37.5 -15.5s15.5 -23.166 15.5 -38.499c0 -14.667 -5.16699 -27.334 -15.5 -38.001s-22.833 -16 -37.5 -16c-15.333 0 -28.166 5.33301 -38.499 16
s-15.5 23.334 -15.5 38.001z" />
    <glyph glyph-name="Jcircumflex" unicode="&#x134;" horiz-adv-x="595" 
d="M489 257c0 -89.333 -19.166 -156.001 -57.499 -200.001s-97.5 -66 -177.5 -66c-63.333 0 -113 14 -149 42s-62.667 67.667 -80 119l88 32c13.333 -35.333 31 -62.166 53 -80.499s51.667 -27.5 89 -27.5c51.333 0 87.666 16.167 108.999 48.5s32 78.5 32 138.5v389h93
v-395zM440.001 765.999l-131 -80l-36 29l131 119h77l129 -120l-34 -29z" />
    <glyph glyph-name="jcircumflex" unicode="&#x135;" horiz-adv-x="327" 
d="M205 -7c0 -31.333 -2.49902 -58.667 -7.49902 -82s-14.167 -43.166 -27.5 -59.499s-31.833 -28.833 -55.5 -37.5s-54.167 -13.334 -91.5 -14.001l-7 74c23.333 4 41.666 8.83301 54.999 14.5s23.5 13 30.5 22s11.5 20.167 13.5 33.5s3 29.333 3 48v496h87v-495z
M163.001 639.999l-132 -92l-36 28l131 131h77l129 -131l-34 -29z" />
    <glyph glyph-name="Kcommaaccent" unicode="&#x136;" horiz-adv-x="591" 
d="M469 0l-20 37.5l-32.5 61l-38.5 73l-38.5 73l-32.5 61.5l-20 38l-25.5 -32.5l-39.5 -50l-40 -50l-26 -32.5v-179h-93v651h93v-344h3l79 103l40.5 52l53 68l53 68l40.5 53h107l-40 -49.5l-52 -65l-51.5 -65l-39.5 -50.5l30.5 -56.5l39.5 -73l43.5 -81l43.5 -81l39 -73
l30 -56.5h-106zM248 -191c13.333 9.33301 23.668 18.166 31.001 26.499s11.666 19.833 12.999 34.5c-15.333 0 -28.5 3.83301 -39.5 11.5s-16.5 20.834 -16.5 39.501c0 16.667 5.5 30.5 16.5 41.5s24.5 16.5 40.5 16.5c17.333 0 32 -6.83301 44 -20.5s18 -32.167 18 -55.5
c0 -31.333 -7.66699 -57 -23 -77s-35.333 -35.667 -60 -47z" />
    <glyph glyph-name="kcommaaccent" unicode="&#x137;" horiz-adv-x="459" 
d="M349 0l-24.5 56l-31.5 72.5l-31.5 73l-24.5 56.5l-95 -120v-138h-87v660l87 37v-434h2l64 83l111 141h106l-128 -158l32.5 -72l42 -93l42 -92.5l32.5 -71.5h-97zM194 -206c13.333 9.33301 23.668 18.166 31.001 26.499s11.666 19.833 12.999 34.5
c-15.333 0 -28.5 3.83301 -39.5 11.5s-16.5 20.834 -16.5 39.501c0 16.667 5.5 30.5 16.5 41.5s24.5 16.5 40.5 16.5c17.333 0 32 -6.83301 44 -20.5s18 -32.167 18 -55.5c0 -31.333 -7.66699 -57 -23 -77s-35.333 -35.667 -60 -47z" />
    <glyph glyph-name="kgreenlandic" unicode="&#x138;" horiz-adv-x="465" 
d="M351 0l-115.001 256l-92 -118v-138h-88v487h88v-230h1l65 85l25 31.5l31.5 41l32 41l25.5 31.5h103l-24.5 -29.5l-40 -49l-40 -49.5c-12.333 -15.333 -20.166 -25.333 -23.499 -30l32.5 -71.5l42 -93l42 -93l32.5 -71.5h-97z" />
    <glyph glyph-name="Lacute" unicode="&#x139;" horiz-adv-x="495" 
d="M63 651h93v-567h332v-84h-425v651zM111 690l-31 38l139 101l72 -64z" />
    <glyph glyph-name="lacute" unicode="&#x13a;" horiz-adv-x="218" 
d="M65 0v660l88 38v-698h-88zM95 702l-31 38l139 101l72 -64z" />
    <glyph glyph-name="Lcommaaccent" unicode="&#x13b;" horiz-adv-x="495" 
d="M63 651h93v-567h332v-84h-425v651zM222 -219c13.333 9.33301 23.668 18.166 31.001 26.499s11.666 19.833 12.999 34.5c-15.333 0 -28.5 3.83301 -39.5 11.5s-16.5 20.834 -16.5 39.501c0 16.667 5.5 30.5 16.5 41.5s24.5 16.5 40.5 16.5c17.333 0 32 -6.83301 44 -20.5
s18 -32.167 18 -55.5c0 -31.333 -7.66699 -57 -23 -77s-35.333 -35.667 -60 -47z" />
    <glyph glyph-name="lcommaaccent" unicode="&#x13c;" horiz-adv-x="218" 
d="M65 0v660l88 38v-698h-88zM60 -211c13.333 9.33301 23.668 18.166 31.001 26.499s11.666 19.833 12.999 34.5c-15.333 0 -28.5 3.83301 -39.5 11.5s-16.5 20.834 -16.5 39.501c0 16.667 5.5 30.5 16.5 41.5s24.5 16.5 40.5 16.5c17.333 0 32 -6.83301 44 -20.5
s18 -32.167 18 -55.5c0 -31.333 -7.66699 -57 -23 -77s-35.333 -35.667 -60 -47z" />
    <glyph glyph-name="Lcaron" unicode="&#x13d;" horiz-adv-x="495" 
d="M63 651h93v-567h332v-84h-425v651zM297 479c13.333 9.33301 23.6699 18.165 31.0029 26.498s11.666 20.166 12.999 35.499c-15.333 0 -28.5 3.83301 -39.5 11.5s-16.5 20.834 -16.5 39.501c0 16.667 5.33301 30.334 16 41.001s24 16 40 16
c17.333 0 32.166 -6.66699 44.499 -20s18.5 -31.666 18.5 -54.999c0 -32 -7.83301 -57.833 -23.5 -77.5s-35.834 -35.5 -60.501 -47.5z" />
    <glyph glyph-name="lcaron" unicode="&#x13e;" horiz-adv-x="318" 
d="M65 0v660l88 38v-698h-88zM215 507c13.333 9.33301 23.668 18.168 31.001 26.501s11.333 20.166 12 35.499c-15.333 0 -28.333 4 -39 12s-16 21 -16 39c0 16 5.5 29.5 16.5 40.5s24.167 16.5 39.5 16.5c18 0 33 -6.83301 45 -20.5s18 -32.167 18 -55.5
c0 -31.333 -7.83301 -57 -23.5 -77s-35.834 -35.667 -60.501 -47z" />
    <glyph glyph-name="Ldot" unicode="&#x13f;" horiz-adv-x="495" 
d="M63 651h93v-567h332v-84h-425v651zM265 345c0 15.333 5.16699 28.166 15.5 38.499s22.833 15.5 37.5 15.5s27.167 -5.16699 37.5 -15.5s15.5 -23.166 15.5 -38.499c0 -14 -5.16699 -26.333 -15.5 -37s-22.833 -16 -37.5 -16s-27.167 5.33301 -37.5 16s-15.5 23 -15.5 37z
" />
    <glyph glyph-name="ldot" unicode="&#x140;" horiz-adv-x="298" 
d="M200 353c0 15.333 5.16699 28.166 15.5 38.499s22.833 15.5 37.5 15.5s27.167 -5.16699 37.5 -15.5s15.5 -23.166 15.5 -38.499c0 -14 -5.16699 -26.333 -15.5 -37s-22.833 -16 -37.5 -16s-27.167 5.33301 -37.5 16s-15.5 23 -15.5 37zM65 0v660l88 38v-698h-88z" />
    <glyph glyph-name="Lslash" unicode="&#x141;" horiz-adv-x="499" 
d="M-24 235l87 50v366h93v-313l114 66l29 -51l-143 -84v-185h332v-84h-425v215l-56 -32z" />
    <glyph glyph-name="lslash" unicode="&#x142;" horiz-adv-x="272" 
d="M85 0v226l-58 -34l-29 52l43.5 24.5l43.5 25.5v366l88 38v-353l84 48c4.66699 -8.66699 9.5 -17.167 14.5 -25.5s9.83301 -16.833 14.5 -25.5l-113 -66v-276h-88z" />
    <glyph glyph-name="Nacute" unicode="&#x143;" horiz-adv-x="623" 
d="M478 0l-29.5 44l-41 62.5l-48 73l-50 76l-46.5 71.5l-38 59l-68 107h-3v-493h-92v651h90l48 -73.5l57.5 -87.5l58 -87l48.5 -73l104 -165h3v486h91v-651h-84zM295 690l-31 38l139 101l72 -64z" />
    <glyph glyph-name="nacute" unicode="&#x144;" horiz-adv-x="501" 
d="M452 0l-87.999 -0.00195312v289c0 42.667 -8.33301 75.334 -25 98.001s-43.667 34 -81 34c-28 0 -51.833 -8.66699 -71.5 -26s-32.834 -39.333 -39.501 -66c-3.33301 -13.333 -5 -27.666 -5 -42.999v-286h-88v488h88v-64l3 -1c17.333 26 39 44.833 65 56.5
s51 17.5 75 17.5c58 0 100.333 -16.667 127 -50s40 -81 40 -143v-304zM242.001 550.998l-47 16l72 169l95 -18z" />
    <glyph glyph-name="Ncommaaccent" unicode="&#x145;" horiz-adv-x="623" 
d="M478 0l-29.5 44l-41 62.5l-48 73l-50 76l-46.5 71.5l-38 59l-68 107h-3v-493h-92v651h90l48 -73.5l57.5 -87.5l58 -87l48.5 -73l104 -165h3v486h91v-651h-84zM261 -189c13.333 9.33301 23.668 18.166 31.001 26.499s11.666 19.833 12.999 34.5
c-15.333 0 -28.5 3.83301 -39.5 11.5s-16.5 20.834 -16.5 39.501c0 16.667 5.5 30.5 16.5 41.5s24.5 16.5 40.5 16.5c17.333 0 32 -6.83301 44 -20.5s18 -32.167 18 -55.5c0 -31.333 -7.66699 -57 -23 -77s-35.333 -35.667 -60 -47z" />
    <glyph glyph-name="ncommaaccent" unicode="&#x146;" horiz-adv-x="501" 
d="M452 0l-87.999 -0.00195312v289c0 42.667 -8.33301 75.334 -25 98.001s-43.667 34 -81 34c-28 0 -51.833 -8.66699 -71.5 -26s-32.834 -39.333 -39.501 -66c-3.33301 -13.333 -5 -27.666 -5 -42.999v-286h-88v488h88v-64l3 -1c17.333 26 39 44.833 65 56.5
s51 17.5 75 17.5c58 0 100.333 -16.667 127 -50s40 -81 40 -143v-304zM206.001 -219.002c13.333 9.33301 23.668 18.166 31.001 26.499s11.666 19.833 12.999 34.5c-15.333 0 -28.5 3.83301 -39.5 11.5s-16.5 20.834 -16.5 39.501c0 16.667 5.5 30.5 16.5 41.5
s24.5 16.5 40.5 16.5c17.333 0 32 -6.83301 44 -20.5s18 -32.167 18 -55.5c0 -31.333 -7.66699 -57 -23 -77s-35.333 -35.667 -60 -47z" />
    <glyph glyph-name="Ncaron" unicode="&#x147;" horiz-adv-x="623" 
d="M478 0l-29.5 44l-41 62.5l-48 73l-50 76l-46.5 71.5l-38 59l-68 107h-3v-493h-92v651h90l48 -73.5l57.5 -87.5l58 -87l48.5 -73l104 -165h3v486h91v-651h-84zM446 840l35 -29l-131 -120h-77l-130 119l35 29l132 -81z" />
    <glyph glyph-name="ncaron" unicode="&#x148;" horiz-adv-x="501" 
d="M452 0l-87.999 -0.00195312v289c0 42.667 -8.33301 75.334 -25 98.001s-43.667 34 -81 34c-28 0 -51.833 -8.66699 -71.5 -26s-32.834 -39.333 -39.501 -66c-3.33301 -13.333 -5 -27.666 -5 -42.999v-286h-88v488h88v-64l3 -1c17.333 26 39 44.833 65 56.5
s51 17.5 75 17.5c58 0 100.333 -16.667 127 -50s40 -81 40 -143v-304zM377.001 711.998l34 -28l-129 -132h-78l-130 132l35 28l132 -93z" />
    <glyph glyph-name="napostrophe" unicode="&#x149;" horiz-adv-x="555" 
d="M506 0l-87.999 -0.00195312v289c0 42.667 -8.33301 75.334 -25 98.001s-43.667 34 -81 34c-28 0 -51.833 -8.66699 -71.5 -26s-32.834 -39.333 -39.501 -66c-3.33301 -13.333 -5 -27.666 -5 -42.999v-286h-88v488h88v-64l3 -1c17.333 26 39 44.833 65 56.5
s51 17.5 75 17.5c58 0 100.333 -16.667 127 -50s40 -81 40 -143v-304zM7.00098 509.998c13.333 9.33301 23.668 18.166 31.001 26.499s11.666 19.833 12.999 34.5c-15.333 0 -28.5 3.83301 -39.5 11.5s-16.5 20.834 -16.5 39.501c0 16.667 5.5 30.5 16.5 41.5
s24.5 16.5 40.5 16.5c17.333 0 32 -6.83301 44 -20.5s18 -32.167 18 -55.5c0 -31.333 -7.66699 -57 -23 -77s-35.333 -35.667 -60 -47z" />
    <glyph glyph-name="Eng" unicode="&#x14a;" horiz-adv-x="623" 
d="M434 -115c11.333 0 20.832 2.99805 28.499 8.99805s11.5 18.333 11.5 37v74l-58.5 89.5l-71 108l-71 107.5l-58.5 89l-28 44l-30 49h-3v-492h-91v651h89l255 -386l15 -24l18 -28.5l16.5 -26.5l11.5 -18h3v483h91v-734c0 -18.667 -2.83301 -34.667 -8.5 -48
s-13.5 -24.166 -23.5 -32.499s-21.5 -14.5 -34.5 -18.5s-26.833 -6 -41.5 -6c-13.333 0 -27.166 1.33301 -41.499 4s-29.166 7.33398 -44.499 14.001c0.666992 3.33301 1.83398 7.83301 3.50098 13.5l5.5 18c2 6.33301 3.66699 12.333 5 18s2.66602 10.167 3.99902 13.5
c10 -2.66699 18.667 -4.66699 26 -6s14.666 -2 21.999 -2z" />
    <glyph glyph-name="eng" unicode="&#x14b;" horiz-adv-x="501" 
d="M452 -84c0 -18.667 -2.83496 -34.501 -8.50195 -47.501s-13.5 -23.667 -23.5 -32s-21.667 -14.5 -35 -18.5s-27.333 -6 -42 -6c-12.667 0 -26.167 1.33301 -40.5 4s-29.166 7.33398 -44.499 14.001c0.666992 2 1.83398 6 3.50098 12l5.5 19.5l5.5 19.5
c1.66699 6 2.83398 10 3.50098 12c9.33301 -2.66699 17.833 -4.66699 25.5 -6s15.167 -2 22.5 -2c11.333 0 20.833 3 28.5 9s11.5 18.333 11.5 37v358c0 41.333 -8.16699 73.666 -24.5 96.999s-43.5 35 -81.5 35c-28 0 -51.833 -8.66699 -71.5 -26
s-32.834 -39.333 -39.501 -66c-3.33301 -13.333 -5 -27.666 -5 -42.999v-286h-88v488h88v-64l3 -1c17.333 26 39 44.833 65 56.5s51 17.5 75 17.5c58 0 100.333 -16.667 127 -50s40 -81 40 -143v-388z" />
    <glyph glyph-name="Omacron" unicode="&#x14c;" horiz-adv-x="644" 
d="M321 -10c-44 0 -83.166 8.33105 -117.499 24.998s-63.333 39.834 -87 69.501s-41.5 65 -53.5 106s-18 85.833 -18 134.5c0 48 6.16699 92.5 18.5 133.5s30.166 76.5 53.499 106.5s52.333 53.5 87 70.5s74 25.5 118 25.5c42 0 80 -8 114 -24s63 -38.833 87 -68.5
s42.5 -65 55.5 -106s19.5 -86.5 19.5 -136.5c0 -50.667 -6.5 -96.667 -19.5 -138s-31.5 -76.666 -55.5 -105.999s-53 -52 -87 -68s-72.333 -24 -115 -24zM321.001 576.998c-30 0 -56.333 -6.33105 -79 -18.998s-41.5 -30.167 -56.5 -52.5s-26.333 -48.833 -34 -79.5
s-11.5 -64 -11.5 -100c0 -34.667 3.83301 -67.334 11.5 -98.001s19 -57.334 34 -80.001s34 -40.667 57 -54s49.5 -20 79.5 -20s56.333 6.66699 79 20s41.5 31.5 56.5 54.5s26.333 49.667 34 80s11.5 62.5 11.5 96.5c0 36 -3.83301 69.5 -11.5 100.5s-19 57.667 -34 80
s-34 39.833 -57 52.5s-49.5 19 -79.5 19zM192.001 793h250v-65h-250v65z" />
    <glyph glyph-name="omacron" unicode="&#x14d;" horiz-adv-x="525" 
d="M135 663h250v-65h-250v65zM257 -10c-32 0 -61 5.66504 -87 16.998s-48.333 27.833 -67 49.5s-33 47.834 -43 78.501s-15 65.334 -15 104.001c0 41.333 5.5 78 16.5 110s26.333 59 46 81s42.834 38.667 69.501 50s56 17 88 17c31.333 0 60.166 -5.66699 86.499 -17
s49 -27.666 68 -48.999s33.833 -47.333 44.5 -78s16 -65.334 16 -104.001c0 -41.333 -5.66699 -78 -17 -110s-27 -59 -47 -81s-43.5 -38.833 -70.5 -50.5s-56.5 -17.5 -88.5 -17.5zM262 421.998c-20.667 0 -38.832 -4.50098 -54.499 -13.501s-29 -21.5 -40 -37.5
s-19.333 -34.667 -25 -56s-8.5 -44.333 -8.5 -69c0 -56 10.667 -100.167 32 -132.5s53 -48.5 95 -48.5c20.667 0 39.167 4.83301 55.5 14.5s30.166 22.667 41.499 39s19.833 35.333 25.5 57s8.5 44.5 8.5 68.5c0 26 -2.66699 49.833 -8 71.5s-13.5 40.334 -24.5 56.001
s-24.5 28 -40.5 37s-35 13.5 -57 13.5z" />
    <glyph glyph-name="Obreve" unicode="&#x14e;" horiz-adv-x="644" 
d="M321 -10c-44 0 -83.166 8.33105 -117.499 24.998s-63.333 39.834 -87 69.501s-41.5 65 -53.5 106s-18 85.833 -18 134.5c0 48 6.16699 92.5 18.5 133.5s30.166 76.5 53.499 106.5s52.333 53.5 87 70.5s74 25.5 118 25.5c42 0 80 -8 114 -24s63 -38.833 87 -68.5
s42.5 -65 55.5 -106s19.5 -86.5 19.5 -136.5c0 -50.667 -6.5 -96.667 -19.5 -138s-31.5 -76.666 -55.5 -105.999s-53 -52 -87 -68s-72.333 -24 -115 -24zM321.001 576.998c-30 0 -56.333 -6.33105 -79 -18.998s-41.5 -30.167 -56.5 -52.5s-26.333 -48.833 -34 -79.5
s-11.5 -64 -11.5 -100c0 -34.667 3.83301 -67.334 11.5 -98.001s19 -57.334 34 -80.001s34 -40.667 57 -54s49.5 -20 79.5 -20s56.333 6.66699 79 20s41.5 31.5 56.5 54.5s26.333 49.667 34 80s11.5 62.5 11.5 96.5c0 36 -3.83301 69.5 -11.5 100.5s-19 57.667 -34 80
s-34 39.833 -57 52.5s-49.5 19 -79.5 19zM253.001 821c3.33301 -18.667 10.6719 -34 22.0049 -46s27.666 -18 48.999 -18c22.667 0 39.667 6.83301 51 20.5s17.333 28.167 18 43.5h65c-0.666992 -12.667 -3.33398 -26.334 -8.00098 -41.001s-12.167 -28.167 -22.5 -40.5
s-23.833 -22.5 -40.5 -30.5s-37.334 -12 -62.001 -12c-25.333 0 -46.5 4 -63.5 12s-30.833 18.167 -41.5 30.5s-18.334 25.833 -23.001 40.5s-7.33398 28.334 -8.00098 41.001h64z" />
    <glyph glyph-name="obreve" unicode="&#x14f;" horiz-adv-x="525" 
d="M189 687c3.33301 -18.667 10.6719 -34 22.0049 -46s27.666 -18 48.999 -18c22.667 0 39.667 6.83301 51 20.5s17.333 28.167 18 43.5h65c-0.666992 -12.667 -3.33398 -26.334 -8.00098 -41.001s-12.167 -28.167 -22.5 -40.5s-23.833 -22.5 -40.5 -30.5
s-37.334 -12 -62.001 -12c-25.333 0 -46.5 4 -63.5 12s-30.833 18.167 -41.5 30.5s-18.334 25.833 -23.001 40.5s-7.33398 28.334 -8.00098 41.001h64zM257.006 -10c-32 0 -61 5.66504 -87 16.998s-48.333 27.833 -67 49.5s-33 47.834 -43 78.501s-15 65.334 -15 104.001
c0 41.333 5.5 78 16.5 110s26.333 59 46 81s42.834 38.667 69.501 50s56 17 88 17c31.333 0 60.166 -5.66699 86.499 -17s49 -27.666 68 -48.999s33.833 -47.333 44.5 -78s16 -65.334 16 -104.001c0 -41.333 -5.66699 -78 -17 -110s-27 -59 -47 -81
s-43.5 -38.833 -70.5 -50.5s-56.5 -17.5 -88.5 -17.5zM262.006 421.998c-20.667 0 -38.832 -4.50098 -54.499 -13.501s-29 -21.5 -40 -37.5s-19.333 -34.667 -25 -56s-8.5 -44.333 -8.5 -69c0 -56 10.667 -100.167 32 -132.5s53 -48.5 95 -48.5
c20.667 0 39.167 4.83301 55.5 14.5s30.166 22.667 41.499 39s19.833 35.333 25.5 57s8.5 44.5 8.5 68.5c0 26 -2.66699 49.833 -8 71.5s-13.5 40.334 -24.5 56.001s-24.5 28 -40.5 37s-35 13.5 -57 13.5z" />
    <glyph glyph-name="Ohungarumlaut" unicode="&#x150;" horiz-adv-x="644" 
d="M321 -10c-44 0 -83.166 8.33105 -117.499 24.998s-63.333 39.834 -87 69.501s-41.5 65 -53.5 106s-18 85.833 -18 134.5c0 48 6.16699 92.5 18.5 133.5s30.166 76.5 53.499 106.5s52.333 53.5 87 70.5s74 25.5 118 25.5c42 0 80 -8 114 -24s63 -38.833 87 -68.5
s42.5 -65 55.5 -106s19.5 -86.5 19.5 -136.5c0 -50.667 -6.5 -96.667 -19.5 -138s-31.5 -76.666 -55.5 -105.999s-53 -52 -87 -68s-72.333 -24 -115 -24zM321.001 576.998c-30 0 -56.333 -6.33105 -79 -18.998s-41.5 -30.167 -56.5 -52.5s-26.333 -48.833 -34 -79.5
s-11.5 -64 -11.5 -100c0 -34.667 3.83301 -67.334 11.5 -98.001s19 -57.334 34 -80.001s34 -40.667 57 -54s49.5 -20 79.5 -20s56.333 6.66699 79 20s41.5 31.5 56.5 54.5s26.333 49.667 34 80s11.5 62.5 11.5 96.5c0 36 -3.83301 69.5 -11.5 100.5s-19 57.667 -34 80
s-34 39.833 -57 52.5s-49.5 19 -79.5 19zM237.001 690l-37 33l124 119l82 -52zM397.001 688l-37 33l124 119l81 -51z" />
    <glyph glyph-name="ohungarumlaut" unicode="&#x151;" horiz-adv-x="525" 
d="M194 552l-48 17l67 159l95 -18zM323 551l-46 17l66 159l96 -17zM257 -10c-32 0 -61 5.66504 -87 16.998s-48.333 27.833 -67 49.5s-33 47.834 -43 78.501s-15 65.334 -15 104.001c0 41.333 5.5 78 16.5 110s26.333 59 46 81s42.834 38.667 69.501 50s56 17 88 17
c31.333 0 60.166 -5.66699 86.499 -17s49 -27.666 68 -48.999s33.833 -47.333 44.5 -78s16 -65.334 16 -104.001c0 -41.333 -5.66699 -78 -17 -110s-27 -59 -47 -81s-43.5 -38.833 -70.5 -50.5s-56.5 -17.5 -88.5 -17.5zM262 421.998
c-20.667 0 -38.832 -4.50098 -54.499 -13.501s-29 -21.5 -40 -37.5s-19.333 -34.667 -25 -56s-8.5 -44.333 -8.5 -69c0 -56 10.667 -100.167 32 -132.5s53 -48.5 95 -48.5c20.667 0 39.167 4.83301 55.5 14.5s30.166 22.667 41.499 39s19.833 35.333 25.5 57
s8.5 44.5 8.5 68.5c0 26 -2.66699 49.833 -8 71.5s-13.5 40.334 -24.5 56.001s-24.5 28 -40.5 37s-35 13.5 -57 13.5z" />
    <glyph glyph-name="OE" unicode="&#x152;" horiz-adv-x="869" 
d="M324 661c28 0 53.001 -3.33398 75.001 -10.001h421v-83h-333v-181h235v-83h-235v-221h346v-83h-431c-12 -3.33301 -24.667 -5.83301 -38 -7.5s-26.666 -2.5 -39.999 -2.5c-44 0 -83.167 8.33301 -117.5 25s-63.333 39.834 -87 69.501s-41.5 65 -53.5 106
s-18 85.833 -18 134.5c0 48 6.16699 92.5 18.5 133.5s30.166 76.5 53.499 106.5s52.166 53.5 86.499 70.5s73.5 25.5 117.5 25.5zM324.001 73.999c26.667 0 50.334 5.33496 71.001 16.002v471c-20.667 10.667 -44.334 16 -71.001 16c-30 0 -56.333 -6.33301 -79 -19
s-41.667 -30.167 -57 -52.5s-26.833 -48.833 -34.5 -79.5s-11.5 -64 -11.5 -100c0 -34.667 3.83301 -67.334 11.5 -98.001s19 -57.334 34 -80.001s34 -40.667 57 -54s49.5 -20 79.5 -20z" />
    <glyph glyph-name="oe" unicode="&#x153;" horiz-adv-x="848" 
d="M812 214l-330.999 0.00195312c3.33301 -50 17.333 -87.5 42 -112.5s55 -37.5 91 -37.5c21.333 0 41.833 4 61.5 12s37.167 18.667 52.5 32l48 -55c-24.667 -22 -50.834 -38 -78.501 -48s-58.167 -15 -91.5 -15c-35.333 0 -68 8.16699 -98 24.5s-54 41.5 -72 75.5
c-18.667 -32.667 -43.167 -57.5 -73.5 -74.5s-64.5 -25.5 -102.5 -25.5c-31.333 0 -60 5.83301 -86 17.5s-48.667 28.5 -68 50.5s-34.333 48.667 -45 80s-16 66.666 -16 105.999c0 40.667 5.5 76.667 16.5 108s26.167 57.666 45.5 78.999s42.166 37.666 68.499 48.999
s55.166 17 86.499 17c38 0 72 -8.66699 102 -26s54.333 -42 73 -74c18 32 41.5 56.667 70.5 74s61.5 26 97.5 26c34 0 63.833 -6 89.5 -18s47.334 -28.833 65.001 -50.5s30.834 -47.667 39.501 -78s13 -64.166 13 -101.499v-35zM259.001 422.002
c-20.667 0 -38.835 -4.50098 -54.502 -13.501s-28.834 -21.5 -39.501 -37.5s-18.667 -34.667 -24 -56s-8 -44.333 -8 -69c0 -56 11.333 -100.167 34 -132.5s54.667 -48.5 96 -48.5c20.667 0 38.834 4.83301 54.501 14.5s28.834 22.667 39.501 39s18.834 35.333 24.501 57
s8.5 44.5 8.5 68.5c0 26 -2.66699 49.833 -8 71.5s-13.5 40.334 -24.5 56.001s-24.667 28 -41 37s-35.5 13.5 -57.5 13.5zM725 278.001c0 20 -2.33496 38.832 -7.00195 56.499s-12 33.334 -22 47.001s-22.667 24.334 -38 32.001s-33.666 11.5 -54.999 11.5
c-15.333 0 -30.166 -3.33301 -44.499 -10s-27 -16.334 -38 -29.001s-20 -28.167 -27 -46.5s-10.833 -38.833 -11.5 -61.5h243z" />
    <glyph glyph-name="Racute" unicode="&#x154;" horiz-adv-x="592" 
d="M551 453c0 -50 -11.834 -90.832 -35.501 -122.499s-56.5 -53.834 -98.5 -66.501l127 -264h-102l-115 252h-172v-252h-91v651h274c30.667 0 59.167 -4 85.5 -12s48.833 -20.167 67.5 -36.5s33.334 -36.833 44.001 -61.5s16 -54 16 -88zM154.999 569.001v-237h178
c39.333 0 69.833 10.5 91.5 31.5s32.5 50.5 32.5 88.5s-11.333 67 -34 87s-52.667 30 -90 30h-178zM246.999 690.001l-31 38l139 101l72 -64z" />
    <glyph glyph-name="racute" unicode="&#x155;" horiz-adv-x="363" 
d="M340 400c-12 2 -23.334 3.66699 -34.001 5s-21 2 -31 2c-79.333 0 -119 -43.333 -119 -130v-277h-88v488h88v-66h2c14 26 32.833 45 56.5 57s48.834 18 75.501 18c22 0 44.667 -4 68 -12zM178.999 551l-47 16l72 169l95 -18z" />
    <glyph glyph-name="Rcommaaccent" unicode="&#x156;" horiz-adv-x="592" 
d="M551 453c0 -50 -11.834 -90.832 -35.501 -122.499s-56.5 -53.834 -98.5 -66.501l127 -264h-102l-115 252h-172v-252h-91v651h274c30.667 0 59.167 -4 85.5 -12s48.833 -20.167 67.5 -36.5s33.334 -36.833 44.001 -61.5s16 -54 16 -88zM154.999 569.001v-237h178
c39.333 0 69.833 10.5 91.5 31.5s32.5 50.5 32.5 88.5s-11.333 67 -34 87s-52.667 30 -90 30h-178zM239.999 -186.999c13.333 9.33301 23.668 18.166 31.001 26.499s11.666 19.833 12.999 34.5c-15.333 0 -28.5 3.83301 -39.5 11.5s-16.5 20.834 -16.5 39.501
c0 16.667 5.5 30.5 16.5 41.5s24.5 16.5 40.5 16.5c17.333 0 32 -6.83301 44 -20.5s18 -32.167 18 -55.5c0 -31.333 -7.66699 -57 -23 -77s-35.333 -35.667 -60 -47z" />
    <glyph glyph-name="rcommaaccent" unicode="&#x157;" horiz-adv-x="363" 
d="M340 400c-12 2 -23.334 3.66699 -34.001 5s-21 2 -31 2c-79.333 0 -119 -43.333 -119 -130v-277h-88v488h88v-66h2c14 26 32.833 45 56.5 57s48.834 18 75.501 18c22 0 44.667 -4 68 -12zM64.999 -219c13.333 9.33301 23.668 18.166 31.001 26.499
s11.666 19.833 12.999 34.5c-15.333 0 -28.5 3.83301 -39.5 11.5s-16.5 20.834 -16.5 39.501c0 16.667 5.5 30.5 16.5 41.5s24.5 16.5 40.5 16.5c17.333 0 32 -6.83301 44 -20.5s18 -32.167 18 -55.5c0 -31.333 -7.66699 -57 -23 -77s-35.333 -35.667 -60 -47z" />
    <glyph glyph-name="Rcaron" unicode="&#x158;" horiz-adv-x="592" 
d="M551 453c0 -50 -11.834 -90.832 -35.501 -122.499s-56.5 -53.834 -98.5 -66.501l127 -264h-102l-115 252h-172v-252h-91v651h274c30.667 0 59.167 -4 85.5 -12s48.833 -20.167 67.5 -36.5s33.334 -36.833 44.001 -61.5s16 -54 16 -88zM154.999 569.001v-237h178
c39.333 0 69.833 10.5 91.5 31.5s32.5 50.5 32.5 88.5s-11.333 67 -34 87s-52.667 30 -90 30h-178zM415.999 840.001l35 -29l-131 -120h-77l-130 119l35 29l132 -81z" />
    <glyph glyph-name="rcaron" unicode="&#x159;" horiz-adv-x="363" 
d="M340 400c-12 2 -23.334 3.66699 -34.001 5s-21 2 -31 2c-79.333 0 -119 -43.333 -119 -130v-277h-88v488h88v-66h2c14 26 32.833 45 56.5 57s48.834 18 75.501 18c22 0 44.667 -4 68 -12zM314.999 712l34 -28l-129 -132h-78l-130 132l35 28l132 -93z" />
    <glyph glyph-name="Sacute" unicode="&#x15a;" horiz-adv-x="545" 
d="M285 661c42 0 80.666 -6.33203 115.999 -18.999s67.333 -30.667 96 -54c-1.33301 -1.33301 -4.66602 -5.33301 -9.99902 -12l-17.5 -22l-18 -22c-5.66699 -6.66699 -8.83398 -10.334 -9.50098 -11.001c-48 38 -103 57 -165 57c-39.333 0 -69 -8.83301 -89 -26.5
s-30 -39.5 -30 -65.5c0 -14.667 3.5 -27.167 10.5 -37.5s16.333 -19.333 28 -27s24.834 -14.334 39.501 -20.001s29.667 -10.834 45 -15.501l78 -25.5c28 -9 54 -21 78 -36s43.833 -34.167 59.5 -57.5s23.5 -53.333 23.5 -90c0 -58.667 -21 -104.5 -63 -137.5
s-102.333 -49.5 -181 -49.5c-46 0 -88.833 7.83301 -128.5 23.5s-73.5 36.834 -101.5 63.501l59 67c25.333 -22 53 -39.333 83 -52s61 -19 93 -19c44 0 78.833 7.83301 104.5 23.5s38.5 41.5 38.5 77.5c0 16.667 -3.66699 30.834 -11 42.501s-17.666 22 -30.999 31
s-29.5 16.833 -48.5 23.5s-40.167 13.667 -63.5 21c-32 10 -60.833 20 -86.5 30s-47.334 22 -65.001 36s-31.167 30.833 -40.5 50.5s-14 43.834 -14 72.501c0 27.333 5.66699 52.166 17 74.499s27 41.333 47 57s43.333 27.667 70 36s55.667 12.5 87 12.5zM260.999 690.001
l-31 38l139 101l72 -64z" />
    <glyph glyph-name="sacute" unicode="&#x15b;" horiz-adv-x="449" 
d="M410 132c0 -23.333 -4.83398 -43.8291 -14.501 -61.4961s-23.167 -32.5 -40.5 -44.5s-37.666 -21 -60.999 -27s-48.333 -9 -75 -9c-30.667 0 -61.834 4.16699 -93.501 12.5s-60.834 20.166 -87.501 35.499l32 66c25.333 -14 51.166 -24.667 77.499 -32s50.5 -11 72.5 -11
c12.667 0 25.167 1.16699 37.5 3.5s23.333 6.16602 33 11.499s17.5 12.166 23.5 20.499s9 18.5 9 30.5c0 12.667 -2.66699 23.334 -8 32.001s-13 16.334 -23 23.001s-22 12.667 -36 18s-29.333 10.666 -46 15.999c-24 7.33301 -45.833 15.5 -65.5 24.5
s-36.5 19.167 -50.5 30.5s-24.833 24.5 -32.5 39.5s-11.5 32.167 -11.5 51.5c0 40 15.667 72.5 47 97.5s76.333 37.5 135 37.5c28.667 0 56.5 -3 83.5 -9s52.833 -15.667 77.5 -29l-29 -67c-25.333 13.333 -49.666 22.166 -72.999 26.499s-43 6.5 -59 6.5
c-34 0 -59 -5.83301 -75 -17.5s-24 -25.5 -24 -41.5c0 -8 1.33301 -15.333 4 -22s7.66699 -13 15 -19s17.5 -11.833 30.5 -17.5s30.167 -11.5 51.5 -17.5c25.333 -7.33301 48.833 -15.5 70.5 -24.5s40.334 -19.5 56.001 -31.5s27.834 -26.333 36.501 -43
s13 -36.334 13 -59.001zM225.999 551.004l-47 16l72 169l95 -18z" />
    <glyph glyph-name="Scircumflex" unicode="&#x15c;" horiz-adv-x="545" 
d="M285 661c42 0 80.666 -6.33203 115.999 -18.999s67.333 -30.667 96 -54c-1.33301 -1.33301 -4.66602 -5.33301 -9.99902 -12l-17.5 -22l-18 -22c-5.66699 -6.66699 -8.83398 -10.334 -9.50098 -11.001c-48 38 -103 57 -165 57c-39.333 0 -69 -8.83301 -89 -26.5
s-30 -39.5 -30 -65.5c0 -14.667 3.5 -27.167 10.5 -37.5s16.333 -19.333 28 -27s24.834 -14.334 39.501 -20.001s29.667 -10.834 45 -15.501l78 -25.5c28 -9 54 -21 78 -36s43.833 -34.167 59.5 -57.5s23.5 -53.333 23.5 -90c0 -58.667 -21 -104.5 -63 -137.5
s-102.333 -49.5 -181 -49.5c-46 0 -88.833 7.83301 -128.5 23.5s-73.5 36.834 -101.5 63.501l59 67c25.333 -22 53 -39.333 83 -52s61 -19 93 -19c44 0 78.833 7.83301 104.5 23.5s38.5 41.5 38.5 77.5c0 16.667 -3.66699 30.834 -11 42.501s-17.666 22 -30.999 31
s-29.5 16.833 -48.5 23.5s-40.167 13.667 -63.5 21c-32 10 -60.833 20 -86.5 30s-47.334 22 -65.001 36s-31.167 30.833 -40.5 50.5s-14 43.834 -14 72.501c0 27.333 5.66699 52.166 17 74.499s27 41.333 47 57s43.333 27.667 70 36s55.667 12.5 87 12.5zM281.999 766.001
l-131 -80l-36 29l131 119h77l129 -120l-34 -29z" />
    <glyph glyph-name="scircumflex" unicode="&#x15d;" horiz-adv-x="449" 
d="M410 132c0 -23.333 -4.83398 -43.8291 -14.501 -61.4961s-23.167 -32.5 -40.5 -44.5s-37.666 -21 -60.999 -27s-48.333 -9 -75 -9c-30.667 0 -61.834 4.16699 -93.501 12.5s-60.834 20.166 -87.501 35.499l32 66c25.333 -14 51.166 -24.667 77.499 -32s50.5 -11 72.5 -11
c12.667 0 25.167 1.16699 37.5 3.5s23.333 6.16602 33 11.499s17.5 12.166 23.5 20.499s9 18.5 9 30.5c0 12.667 -2.66699 23.334 -8 32.001s-13 16.334 -23 23.001s-22 12.667 -36 18s-29.333 10.666 -46 15.999c-24 7.33301 -45.833 15.5 -65.5 24.5
s-36.5 19.167 -50.5 30.5s-24.833 24.5 -32.5 39.5s-11.5 32.167 -11.5 51.5c0 40 15.667 72.5 47 97.5s76.333 37.5 135 37.5c28.667 0 56.5 -3 83.5 -9s52.833 -15.667 77.5 -29l-29 -67c-25.333 13.333 -49.666 22.166 -72.999 26.499s-43 6.5 -59 6.5
c-34 0 -59 -5.83301 -75 -17.5s-24 -25.5 -24 -41.5c0 -8 1.33301 -15.333 4 -22s7.66699 -13 15 -19s17.5 -11.833 30.5 -17.5s30.167 -11.5 51.5 -17.5c25.333 -7.33301 48.833 -15.5 70.5 -24.5s40.334 -19.5 56.001 -31.5s27.834 -26.333 36.501 -43
s13 -36.334 13 -59.001zM221.999 640.004l-132 -92l-35 28l130 131h78l129 -131l-34 -29z" />
    <glyph glyph-name="Scedilla" unicode="&#x15e;" horiz-adv-x="545" 
d="M271 -208c-11.333 0 -24.165 1.16895 -38.498 3.50195s-29.833 7.16602 -46.5 14.499l15 41c23.333 -9.33301 45.333 -14 66 -14c14.667 0 26.5 3.33301 35.5 10s13.5 15.667 13.5 27c0 13.333 -5 23.333 -15 30s-21.667 10 -35 10c-2 0 -4 -0.166992 -6 -0.5
s-3.66699 -0.5 -5 -0.5l-23 23l18 55c-40.667 3.33301 -78.5 12.5 -113.5 27.5s-65.167 34.5 -90.5 58.5l59 67c25.333 -22 53 -39.333 83 -52s61 -19 93 -19c44 0 78.833 7.83301 104.5 23.5s38.5 41.5 38.5 77.5c0 16.667 -3.66699 30.834 -11 42.501
s-17.666 22 -30.999 31s-29.5 16.833 -48.5 23.5s-40.167 13.667 -63.5 21c-32 10 -60.833 20 -86.5 30s-47.334 22 -65.001 36s-31.167 30.833 -40.5 50.5s-14 43.834 -14 72.501c0 27.333 5.66699 52.166 17 74.499s27 41.333 47 57s43.333 27.667 70 36
s55.667 12.5 87 12.5c42 0 80.667 -6.33301 116 -19s67.333 -30.667 96 -54c-1.33301 -1.33301 -4.66602 -5.33301 -9.99902 -12l-17.5 -22l-18 -22c-5.66699 -6.66699 -8.83398 -10.334 -9.50098 -11.001c-48 38 -103 57 -165 57c-39.333 0 -69 -8.83301 -89 -26.5
s-30 -39.5 -30 -65.5c0 -14.667 3.5 -27.167 10.5 -37.5s16.333 -19.333 28 -27s24.834 -14.334 39.501 -20.001s29.667 -10.834 45 -15.501l78 -25.5c28 -9 54 -21 78 -36s43.833 -34.167 59.5 -57.5s23.5 -53.333 23.5 -90c0 -56.667 -19.5 -101.167 -58.5 -133.5
s-95.167 -49.833 -168.5 -52.5l-11 -33c19.333 -1.33301 35.333 -5 48 -11s22.667 -13 30 -21s12.5 -16.5 15.5 -25.5s4.5 -17.167 4.5 -24.5c0 -9.33301 -1.83301 -18.833 -5.5 -28.5s-9.83398 -18.667 -18.501 -27s-19.834 -15.166 -33.501 -20.499s-30.834 -8 -51.501 -8
z" />
    <glyph glyph-name="scedilla" unicode="&#x15f;" horiz-adv-x="449" 
d="M215 -208c-11.333 0 -24.165 1.1709 -38.498 3.50391s-29.833 7.16602 -46.5 14.499l15 41c23.333 -9.33301 45.333 -14 66 -14c14.667 0 26.5 3.33301 35.5 10s13.5 15.667 13.5 27c0 13.333 -5 23.333 -15 30s-21.667 10 -35 10c-2 0 -4 -0.166992 -6 -0.5
s-3.66699 -0.5 -5 -0.5l-23 23l18 55c-27.333 2 -54.333 7 -81 15s-51.667 18.667 -75 32l32 66c25.333 -14 51.166 -24.667 77.499 -32s50.5 -11 72.5 -11c12.667 0 25.167 1.16699 37.5 3.5s23.333 6.16602 33 11.499s17.5 12.166 23.5 20.499s9 18.5 9 30.5
c0 12.667 -2.66699 23.334 -8 32.001s-13 16.334 -23 23.001s-22 12.667 -36 18s-29.333 10.666 -46 15.999c-24 7.33301 -45.833 15.5 -65.5 24.5s-36.5 19.167 -50.5 30.5s-24.833 24.5 -32.5 39.5s-11.5 32.167 -11.5 51.5c0 40 15.667 72.5 47 97.5
s76.333 37.5 135 37.5c28.667 0 56.5 -3 83.5 -9s52.833 -15.667 77.5 -29l-29 -67c-25.333 13.333 -49.666 22.166 -72.999 26.499s-43 6.5 -59 6.5c-34 0 -59 -5.83301 -75 -17.5s-24 -25.5 -24 -41.5c0 -8 1.33301 -15.333 4 -22s7.66699 -13 15 -19
s17.5 -11.833 30.5 -17.5s30.167 -11.5 51.5 -17.5c25.333 -7.33301 48.833 -15.5 70.5 -24.5s40.334 -19.5 56.001 -31.5s27.834 -26.333 36.501 -43s13 -36.334 13 -59.001c0 -22 -4.33301 -41.5 -13 -58.5s-20.834 -31.333 -36.501 -43s-34 -20.834 -55 -27.501
s-43.833 -10.667 -68.5 -12l-11 -33c19.333 -1.33301 35.333 -5 48 -11s22.667 -13 30 -21s12.5 -16.5 15.5 -25.5s4.5 -17.167 4.5 -24.5c0 -9.33301 -1.83301 -18.833 -5.5 -28.5s-9.83398 -18.667 -18.501 -27s-19.834 -15.166 -33.501 -20.499s-30.834 -8 -51.501 -8z
" />
    <glyph glyph-name="Scaron" unicode="&#x160;" horiz-adv-x="545" 
d="M285 661c42 0 80.666 -6.33203 115.999 -18.999s67.333 -30.667 96 -54c-1.33301 -1.33301 -4.66602 -5.33301 -9.99902 -12l-17.5 -22l-18 -22c-5.66699 -6.66699 -8.83398 -10.334 -9.50098 -11.001c-48 38 -103 57 -165 57c-39.333 0 -69 -8.83301 -89 -26.5
s-30 -39.5 -30 -65.5c0 -14.667 3.5 -27.167 10.5 -37.5s16.333 -19.333 28 -27s24.834 -14.334 39.501 -20.001s29.667 -10.834 45 -15.501l78 -25.5c28 -9 54 -21 78 -36s43.833 -34.167 59.5 -57.5s23.5 -53.333 23.5 -90c0 -58.667 -21 -104.5 -63 -137.5
s-102.333 -49.5 -181 -49.5c-46 0 -88.833 7.83301 -128.5 23.5s-73.5 36.834 -101.5 63.501l59 67c25.333 -22 53 -39.333 83 -52s61 -19 93 -19c44 0 78.833 7.83301 104.5 23.5s38.5 41.5 38.5 77.5c0 16.667 -3.66699 30.834 -11 42.501s-17.666 22 -30.999 31
s-29.5 16.833 -48.5 23.5s-40.167 13.667 -63.5 21c-32 10 -60.833 20 -86.5 30s-47.334 22 -65.001 36s-31.167 30.833 -40.5 50.5s-14 43.834 -14 72.501c0 27.333 5.66699 52.166 17 74.499s27 41.333 47 57s43.333 27.667 70 36s55.667 12.5 87 12.5zM416.999 840.001
l35 -29l-131 -120h-77l-130 119l35 29l132 -81z" />
    <glyph glyph-name="scaron" unicode="&#x161;" horiz-adv-x="449" 
d="M410 132c0 -23.333 -4.83398 -43.8291 -14.501 -61.4961s-23.167 -32.5 -40.5 -44.5s-37.666 -21 -60.999 -27s-48.333 -9 -75 -9c-30.667 0 -61.834 4.16699 -93.501 12.5s-60.834 20.166 -87.501 35.499l32 66c25.333 -14 51.166 -24.667 77.499 -32s50.5 -11 72.5 -11
c12.667 0 25.167 1.16699 37.5 3.5s23.333 6.16602 33 11.499s17.5 12.166 23.5 20.499s9 18.5 9 30.5c0 12.667 -2.66699 23.334 -8 32.001s-13 16.334 -23 23.001s-22 12.667 -36 18s-29.333 10.666 -46 15.999c-24 7.33301 -45.833 15.5 -65.5 24.5
s-36.5 19.167 -50.5 30.5s-24.833 24.5 -32.5 39.5s-11.5 32.167 -11.5 51.5c0 40 15.667 72.5 47 97.5s76.333 37.5 135 37.5c28.667 0 56.5 -3 83.5 -9s52.833 -15.667 77.5 -29l-29 -67c-25.333 13.333 -49.666 22.166 -72.999 26.499s-43 6.5 -59 6.5
c-34 0 -59 -5.83301 -75 -17.5s-24 -25.5 -24 -41.5c0 -8 1.33301 -15.333 4 -22s7.66699 -13 15 -19s17.5 -11.833 30.5 -17.5s30.167 -11.5 51.5 -17.5c25.333 -7.33301 48.833 -15.5 70.5 -24.5s40.334 -19.5 56.001 -31.5s27.834 -26.333 36.501 -43
s13 -36.334 13 -59.001zM353.999 712.004l34 -28l-129 -132h-78l-130 132l35 28l132 -93z" />
    <glyph glyph-name="Tcommaaccent" unicode="&#x162;" horiz-adv-x="514" 
d="M305 0h-91v568h-196v83h484v-83h-197v-568zM215 -219c13.333 9.33301 23.668 18.166 31.001 26.499s11.666 19.833 12.999 34.5c-15.333 0 -28.5 3.83301 -39.5 11.5s-16.5 20.834 -16.5 39.501c0 16.667 5.5 30.5 16.5 41.5s24.5 16.5 40.5 16.5
c17.333 0 32 -6.83301 44 -20.5s18 -32.167 18 -55.5c0 -31.333 -7.66699 -57 -23 -77s-35.333 -35.667 -60 -47z" />
    <glyph glyph-name="tcommaaccent" unicode="&#x163;" horiz-adv-x="332" 
d="M185 488l102.001 -0.00195312v-71h-102v-287c0 -22.667 4.33301 -38.167 13 -46.5s22.667 -12.5 42 -12.5c16 0 36.667 2 62 6l8 -67c-13.333 -5.33301 -29.166 -9.66602 -47.499 -12.999s-35.5 -5 -51.5 -5c-36.667 0 -64.334 9.66699 -83.001 29s-28 49.666 -28 90.999
v305h-74v71h75v116c1.33301 0.666992 6.16602 2.83398 14.499 6.50098l27 11.5l27.5 11.5c8.66699 3.66699 13.667 5.83398 15 6.50098v-152zM129.001 -219.002c13.333 9.33301 23.668 18.166 31.001 26.499s11.666 19.833 12.999 34.5c-15.333 0 -28.5 3.83301 -39.5 11.5
s-16.5 20.834 -16.5 39.501c0 16.667 5.5 30.5 16.5 41.5s24.5 16.5 40.5 16.5c17.333 0 32 -6.83301 44 -20.5s18 -32.167 18 -55.5c0 -31.333 -7.66699 -57 -23 -77s-35.333 -35.667 -60 -47z" />
    <glyph glyph-name="Tcaron" unicode="&#x164;" horiz-adv-x="514" 
d="M305 0h-91v568h-196v83h484v-83h-197v-568zM396 840l35 -29l-131 -120h-77l-130 119l35 29l132 -81z" />
    <glyph glyph-name="tcaron" unicode="&#x165;" horiz-adv-x="352" 
d="M185 488l102.001 -0.00195312v-71h-102v-287c0 -22.667 4.33301 -38.167 13 -46.5s22.667 -12.5 42 -12.5c16 0 36.667 2 62 6l8 -67c-13.333 -5.33301 -29.166 -9.66602 -47.499 -12.999s-35.5 -5 -51.5 -5c-36.667 0 -64.334 9.66699 -83.001 29s-28 49.666 -28 90.999
v305h-74v71h75v116c1.33301 0.666992 6.16602 2.83398 14.499 6.50098l27 11.5l27.5 11.5c8.66699 3.66699 13.667 5.83398 15 6.50098v-152zM251.001 598.998c13.333 9.33301 23.501 18.168 30.501 26.501s11.167 20.166 12.5 35.499c-14.667 0 -27.167 4.33301 -37.5 13
s-15.5 21.667 -15.5 39c0 15.333 5.16699 28.5 15.5 39.5s23.166 16.5 38.499 16.5c17.333 0 32 -6.83301 44 -20.5s18 -32.167 18 -55.5c0 -31.333 -7.66699 -57 -23 -77s-35.333 -35.667 -60 -47z" />
    <glyph glyph-name="Tbar" unicode="&#x166;" horiz-adv-x="514" 
d="M305 392h191v-64h-191v-328h-91v328h-193v64h193v176h-196v83h484v-83h-197v-176z" />
    <glyph glyph-name="tbar" unicode="&#x167;" horiz-adv-x="332" 
d="M185 488l102.001 -0.00195312v-71h-102v-120h97v-60h-97v-107c0 -22.667 4.33301 -38.167 13 -46.5s22.667 -12.5 42 -12.5c16 0 36.667 2 62 6l8 -67c-13.333 -5.33301 -29.166 -9.66602 -47.499 -12.999s-35.5 -5 -51.5 -5c-36.667 0 -64.334 9.66699 -83.001 29
s-28 49.666 -28 90.999v125h-76v60h76v120h-74v71h75v116c1.33301 0.666992 6.16602 2.83398 14.499 6.50098l27 11.5l27.5 11.5c8.66699 3.66699 13.667 5.83398 15 6.50098v-152z" />
    <glyph glyph-name="Utilde" unicode="&#x168;" horiz-adv-x="627" 
d="M313 -10c-78.667 0 -139.834 23.5 -183.501 70.5s-65.5 117.5 -65.5 211.5v379h93v-375c0 -62.667 13.167 -111.834 39.5 -147.501s65.833 -53.5 118.5 -53.5c54.667 0 94.834 17.333 120.501 52s38.5 82.334 38.5 143.001v381h94v-380
c0 -94.667 -22.5 -165.167 -67.5 -211.5s-107.5 -69.5 -187.5 -69.5zM388 704c-11.333 0 -23 2.16895 -35 6.50195s-23.833 9.16602 -35.5 14.499s-23.167 10.166 -34.5 14.499s-22 6.5 -32 6.5c-11.333 0 -22.166 -2.66699 -32.499 -8s-21.166 -16.333 -32.499 -33l-40 18
c12.667 34.667 29 58.5 49 71.5s39 19.5 57 19.5c11.333 0 23.166 -2.33301 35.499 -7s24.5 -9.66699 36.5 -15l35 -15c11.333 -4.66699 22 -7 32 -7c12 0 22.667 2.5 32 7.5s19.666 15.167 30.999 30.5l38 -19c-12 -31.333 -27 -53.333 -45 -66s-37.667 -19 -59 -19z" />
    <glyph glyph-name="utilde" unicode="&#x169;" horiz-adv-x="500" 
d="M52 488l88.002 0.000976562v-290c0 -42.667 8 -74.834 24 -96.501s42.333 -32.5 79 -32.5c28 0 51.167 8 69.5 24s31.166 37 38.499 63c4 14 6 29.333 6 46v286h88v-488h-88v63h-3c-18.667 -26 -40.334 -44.667 -65.001 -56s-48.667 -17 -72 -17c-110 0 -165 62 -165 186
v312zM326.002 571.001c-11.333 0 -23 2.16895 -35 6.50195s-23.833 9.16602 -35.5 14.499s-23.167 10.166 -34.5 14.499s-22 6.5 -32 6.5c-11.333 0 -22.166 -2.66699 -32.499 -8s-21.166 -16.333 -32.499 -33l-40 18c12.667 34.667 29 58.5 49 71.5s39 19.5 57 19.5
c11.333 0 23.166 -2.33301 35.499 -7s24.5 -9.66699 36.5 -15l35 -15c11.333 -4.66699 22 -7 32 -7c12 0 22.667 2.5 32 7.5s19.666 15.167 30.999 30.5l38 -19c-12 -31.333 -27 -53.333 -45 -66s-37.667 -19 -59 -19z" />
    <glyph glyph-name="Umacron" unicode="&#x16a;" horiz-adv-x="627" 
d="M313 -10c-78.667 0 -139.834 23.5 -183.501 70.5s-65.5 117.5 -65.5 211.5v379h93v-375c0 -62.667 13.167 -111.834 39.5 -147.501s65.833 -53.5 118.5 -53.5c54.667 0 94.834 17.333 120.501 52s38.5 82.334 38.5 143.001v381h94v-380
c0 -94.667 -22.5 -165.167 -67.5 -211.5s-107.5 -69.5 -187.5 -69.5zM189 789h250v-65h-250v65z" />
    <glyph glyph-name="umacron" unicode="&#x16b;" horiz-adv-x="500" 
d="M52 488l88.002 0.000976562v-290c0 -42.667 8 -74.834 24 -96.501s42.333 -32.5 79 -32.5c28 0 51.167 8 69.5 24s31.166 37 38.499 63c4 14 6 29.333 6 46v286h88v-488h-88v63h-3c-18.667 -26 -40.334 -44.667 -65.001 -56s-48.667 -17 -72 -17c-110 0 -165 62 -165 186
v312zM134.002 663.001h250v-65h-250v65z" />
    <glyph glyph-name="Ubreve" unicode="&#x16c;" horiz-adv-x="627" 
d="M313 -10c-78.667 0 -139.834 23.5 -183.501 70.5s-65.5 117.5 -65.5 211.5v379h93v-375c0 -62.667 13.167 -111.834 39.5 -147.501s65.833 -53.5 118.5 -53.5c54.667 0 94.834 17.333 120.501 52s38.5 82.334 38.5 143.001v381h94v-380
c0 -94.667 -22.5 -165.167 -67.5 -211.5s-107.5 -69.5 -187.5 -69.5zM246 820c3.33301 -18.667 10.6719 -34 22.0049 -46s27.666 -18 48.999 -18c22.667 0 39.667 6.83301 51 20.5s17.333 28.167 18 43.5h65c-0.666992 -12.667 -3.33398 -26.334 -8.00098 -41.001
s-12.167 -28.167 -22.5 -40.5s-23.833 -22.5 -40.5 -30.5s-37.334 -12 -62.001 -12c-25.333 0 -46.5 4 -63.5 12s-30.833 18.167 -41.5 30.5s-18.334 25.833 -23.001 40.5s-7.33398 28.334 -8.00098 41.001h64z" />
    <glyph glyph-name="ubreve" unicode="&#x16d;" horiz-adv-x="500" 
d="M52 488l88.002 0.000976562v-290c0 -42.667 8 -74.834 24 -96.501s42.333 -32.5 79 -32.5c28 0 51.167 8 69.5 24s31.166 37 38.499 63c4 14 6 29.333 6 46v286h88v-488h-88v63h-3c-18.667 -26 -40.334 -44.667 -65.001 -56s-48.667 -17 -72 -17c-110 0 -165 62 -165 186
v312zM185.002 687.001c3.33301 -18.667 10.6719 -34 22.0049 -46s27.666 -18 48.999 -18c22.667 0 39.667 6.83301 51 20.5s17.333 28.167 18 43.5h65c-0.666992 -12.667 -3.33398 -26.334 -8.00098 -41.001s-12.167 -28.167 -22.5 -40.5s-23.833 -22.5 -40.5 -30.5
s-37.334 -12 -62.001 -12c-25.333 0 -46.5 4 -63.5 12s-30.833 18.167 -41.5 30.5s-18.334 25.833 -23.001 40.5s-7.33398 28.334 -8.00098 41.001h64z" />
    <glyph glyph-name="Uring" unicode="&#x16e;" horiz-adv-x="627" 
d="M313 -10c-78.667 0 -139.834 23.5 -183.501 70.5s-65.5 117.5 -65.5 211.5v379h93v-375c0 -62.667 13.167 -111.834 39.5 -147.501s65.833 -53.5 118.5 -53.5c54.667 0 94.834 17.333 120.501 52s38.5 82.334 38.5 143.001v381h94v-380
c0 -94.667 -22.5 -165.167 -67.5 -211.5s-107.5 -69.5 -187.5 -69.5zM320 654c-26.667 0 -49.167 8.83203 -67.5 26.499s-27.5 40.834 -27.5 69.501c0 26.667 9.16699 49 27.5 67s40.833 27 67.5 27c27.333 0 50.166 -9 68.499 -27s27.5 -40.333 27.5 -67
c0 -28 -9.16699 -51 -27.5 -69s-41.166 -27 -68.499 -27zM320 797.999c-13.333 0 -24.666 -4.66699 -33.999 -14s-14 -20.666 -14 -33.999c0 -14.667 4.66699 -26.834 14 -36.501s20.666 -14.5 33.999 -14.5c14 0 25.667 4.83301 35 14.5s14 21.834 14 36.501
c0 13.333 -4.66699 24.666 -14 33.999s-21 14 -35 14z" />
    <glyph glyph-name="uring" unicode="&#x16f;" horiz-adv-x="500" 
d="M52 488l88.002 0.000976562v-290c0 -42.667 8 -74.834 24 -96.501s42.333 -32.5 79 -32.5c28 0 51.167 8 69.5 24s31.166 37 38.499 63c4 14 6 29.333 6 46v286h88v-488h-88v63h-3c-18.667 -26 -40.334 -44.667 -65.001 -56s-48.667 -17 -72 -17c-110 0 -165 62 -165 186
v312zM258.002 544.001c-26.667 0 -49.167 8.83203 -67.5 26.499s-27.5 40.834 -27.5 69.501c0 26.667 9.16699 49 27.5 67s40.833 27 67.5 27c27.333 0 50.166 -9 68.499 -27s27.5 -40.333 27.5 -67c0 -28 -9.16699 -51 -27.5 -69s-41.166 -27 -68.499 -27zM258.002 688
c-13.333 0 -24.666 -4.66699 -33.999 -14s-14 -20.666 -14 -33.999c0 -14.667 4.66699 -26.834 14 -36.501s20.666 -14.5 33.999 -14.5c14 0 25.667 4.83301 35 14.5s14 21.834 14 36.501c0 13.333 -4.66699 24.666 -14 33.999s-21 14 -35 14z" />
    <glyph glyph-name="Uhungarumlaut" unicode="&#x170;" horiz-adv-x="627" 
d="M313 -10c-78.667 0 -139.834 23.5 -183.501 70.5s-65.5 117.5 -65.5 211.5v379h93v-375c0 -62.667 13.167 -111.834 39.5 -147.501s65.833 -53.5 118.5 -53.5c54.667 0 94.834 17.333 120.501 52s38.5 82.334 38.5 143.001v381h94v-380
c0 -94.667 -22.5 -165.167 -67.5 -211.5s-107.5 -69.5 -187.5 -69.5zM225 690l-37 33l124 119l82 -52zM385 688l-37 33l124 119l81 -51z" />
    <glyph glyph-name="uhungarumlaut" unicode="&#x171;" horiz-adv-x="500" 
d="M52 488l88.002 0.000976562v-290c0 -42.667 8 -74.834 24 -96.501s42.333 -32.5 79 -32.5c28 0 51.167 8 69.5 24s31.166 37 38.499 63c4 14 6 29.333 6 46v286h88v-488h-88v63h-3c-18.667 -26 -40.334 -44.667 -65.001 -56s-48.667 -17 -72 -17c-110 0 -165 62 -165 186
v312zM205.002 552.001l-48 17l67 159l95 -18zM334.002 551.001l-46 17l66 159l96 -17z" />
    <glyph glyph-name="Uogonek" unicode="&#x172;" horiz-adv-x="627" 
d="M568 271c0 -88 -19.1689 -155.002 -57.502 -201.002s-92.5 -72 -162.5 -78c-26 -36.667 -39 -67 -39 -91c0 -15.333 4.83301 -27 14.5 -35s22.167 -12 37.5 -12c16 0 34 4.33301 54 13c0.666992 -1.33301 1.83398 -4.16602 3.50098 -8.49902s3.5 -8.83301 5.5 -13.5
s3.83301 -9.16699 5.5 -13.5s2.83398 -7.16602 3.50098 -8.49902c-13.333 -6.66699 -27.5 -12 -42.5 -16s-30.167 -6 -45.5 -6c-27.333 0 -50.333 7.5 -69 22.5s-28 35.833 -28 62.5c0 14 3.66699 29.5 11 46.5s19.666 36.167 36.999 57.5
c-74 3.33301 -131.167 28.5 -171.5 75.5s-60.5 115.833 -60.5 206.5v379h93v-375c0 -62.667 13.167 -111.834 39.5 -147.501s65.833 -53.5 118.5 -53.5c54.667 0 94.834 17.333 120.501 52s38.5 82.334 38.5 143.001v381h94v-380v0z" />
    <glyph glyph-name="uogonek" unicode="&#x173;" horiz-adv-x="500" 
d="M52 488l88 -0.000976562v-290c0 -42.667 8 -74.834 24 -96.501s42.333 -32.5 79 -32.5c28 0 51.167 8 69.5 24s31.166 37 38.499 63c4 14 6 29.333 6 46v286h88v-488h-39c-30 -40 -45 -73 -45 -99c0 -15.333 4.83301 -27 14.5 -35s22.167 -12 37.5 -12
c16 0 34 4.33301 54 13c0.666992 -1.33301 1.83398 -4.16602 3.50098 -8.49902s3.5 -8.83301 5.5 -13.5s3.83301 -9.16699 5.5 -13.5s2.83398 -7.16602 3.50098 -8.49902c-13.333 -6.66699 -27.5 -12 -42.5 -16s-30.167 -6 -45.5 -6c-27.333 0 -50.333 7.5 -69 22.5
s-28 35.833 -28 62.5c0 15.333 4.5 32.5 13.5 51.5s23.5 40.167 43.5 63.5v62h-3c-18.667 -26 -40.334 -44.667 -65.001 -56s-48.667 -17 -72 -17c-110 0 -165 62 -165 186v312z" />
    <glyph glyph-name="Wcircumflex" unicode="&#x174;" horiz-adv-x="776" 
d="M389 498l-30.001 -130.002l-12.5 -49.5l-16 -64l-17.5 -71.5l-17 -71.5l-15 -63.5l-12 -48h-103c-2.66699 10.667 -7.66699 32.667 -15 66l-25.5 117l-30.5 142.5l-30.5 142.5l-25.5 117c-7.33301 33.333 -12.333 55.333 -15 66h96l14 -71l19.5 -99.5l21.5 -107.5l19 -94
c1.33301 -8.66699 3.16602 -19.334 5.49902 -32.001l7.5 -39.5l7.5 -39.5c2.33301 -12.667 4.5 -23.334 6.5 -32.001h3l33 142l19.5 81l25.5 105.5l25 105.5l19 81h90c2 -7.33301 5.33301 -20.666 10 -39.999l16 -67l19.5 -81l19.5 -81.5l16 -67.5
c4.66699 -19.333 8 -32.666 10 -39.999l31 -138h2l28 138c1.33301 8 4 21.833 8 41.5l13 67c4.66699 25 9.83398 51.333 15.501 79l16 79.5l13 67.5c3.66699 19.667 6.5 33.834 8.5 42.501h93l-15 -69.5l-25 -116.5l-30 -139.5l-30.5 -139.5l-25.5 -116.5l-15 -69.5h-105
l-87 366c-0.666992 4 -2.5 12.333 -5.5 25l-9.5 41c-3.33301 14.667 -6.66602 28.334 -9.99902 41.001s-5.33301 21 -6 25h-2zM389.999 765.998l-131 -80l-36 29l131 119h77l129 -120l-34 -29z" />
    <glyph glyph-name="wcircumflex" unicode="&#x175;" horiz-adv-x="647" 
d="M319 364l-24.999 -99l-71 -265h-81l-29 108.5l-37 135.5l-36.5 135.5l-29.5 108.5h89l56 -230l29 -134h3c1.33301 6 3.33301 14.5 6 25.5s5.66699 22.667 9 35l10 38c3.33301 13 6.66602 25.167 9.99902 36.5l14.5 56.5l17.5 67l16.5 62l11.5 43.5h80l63 -239l28 -126h3
l29 128c4 14 8.5 31.5 13.5 52.5l16 65.5l16 65.5l12.5 53.5h89l-30 -108.5l-37.5 -135.5l-37.5 -135.5l-29 -108.5h-84l-14.5 54.5l-20 78l-21 82l-17.5 67.5l-20 82h-2zM316.001 640l-132 -92l-35 28l130 131h78l129 -131l-34 -29z" />
    <glyph glyph-name="Ycircumflex" unicode="&#x176;" horiz-adv-x="580" 
d="M335 228v-228h-92v228l-237 423h105l44 -85l45 -86l45 -85l44 -86l45.5 86.5l45.5 85.5l44 84.5l45 85.5h103zM296 766l-131 -80l-36 29l131 119h77l129 -120l-34 -29z" />
    <glyph glyph-name="ycircumflex" unicode="&#x177;" horiz-adv-x="478" 
d="M134 -188l63.999 178.999l-26 68l-31.5 85.5l-35 94l-35 94.5l-31.5 86l-26 69h92l85 -246l10 -32l13 -40l13 -40c4 -12.667 7.66699 -23.334 11 -32.001h3c2.66699 8.66699 6.33398 19.334 11.001 32.001s9.16699 26 13.5 40l13 40
c4.33301 12.667 7.83301 23.334 10.5 32.001l87 246h88l-34 -93.5l-42.5 -116.5l-46.5 -128.5l-46.5 -128.5l-42.5 -116.5l-34 -92.5h-83zM245.999 639.999l-132 -92l-35 28l130 131h78l129 -131l-34 -29z" />
    <glyph glyph-name="Ydieresis" unicode="&#x178;" horiz-adv-x="580" 
d="M335 228v-228h-92v228l-237 423h105l44 -85l45 -86l45 -85l44 -86l45.5 86.5l45.5 85.5l44 84.5l45 85.5h103zM401 707c-14 0 -26.167 5 -36.5 15s-15.5 22 -15.5 36s5.16699 25.833 15.5 35.5s22.5 14.5 36.5 14.5c13.333 0 24.833 -4.83301 34.5 -14.5
s14.5 -21.5 14.5 -35.5s-4.83301 -26 -14.5 -36s-21.167 -15 -34.5 -15zM202 707c-13.333 0 -25.166 5 -35.499 15s-15.5 22 -15.5 36s5.16699 25.833 15.5 35.5s22.166 14.5 35.499 14.5s25.166 -4.83301 35.499 -14.5s15.5 -21.5 15.5 -35.5s-5.16699 -26 -15.5 -36
s-22.166 -15 -35.499 -15z" />
    <glyph glyph-name="Zacute" unicode="&#x179;" horiz-adv-x="562" 
d="M37 80l385 488h-366v83h475v-81l-385 -487h384v-83h-493v80zM269 690l-31 38l139 101l72 -64z" />
    <glyph glyph-name="zacute" unicode="&#x17a;" horiz-adv-x="459" 
d="M142 74c0 -0.666992 0.166992 -1 0.5 -1s0.5 -0.333008 0.5 -1h273v-72h-379v69l59 75.5l77 96.5l76.5 96.5l58.5 75.5c0 1.33301 -0.333008 2.33301 -1 3h-252v72h360v-69l-37 -46.5l-47.5 -59.5l-52.5 -66.5l-52.5 -66.5l-47 -59.5zM244 551l-47 16l72 169l95 -18z" />
    <glyph glyph-name="Zdotaccent" unicode="&#x17b;" horiz-adv-x="562" 
d="M37 80l385 488h-366v83h475v-81l-385 -487h384v-83h-493v80zM244 758c0 15.333 5.16699 28.166 15.5 38.499s22.833 15.5 37.5 15.5s27.167 -5.16699 37.5 -15.5s15.5 -23.166 15.5 -38.499c0 -14 -5.16699 -26.333 -15.5 -37s-22.833 -16 -37.5 -16
s-27.167 5.33301 -37.5 16s-15.5 23 -15.5 37z" />
    <glyph glyph-name="zdotaccent" unicode="&#x17c;" horiz-adv-x="459" 
d="M142 74c0 -0.666992 0.166992 -1 0.5 -1s0.5 -0.333008 0.5 -1h273v-72h-379v69l59 75.5l77 96.5l76.5 96.5l58.5 75.5c0 1.33301 -0.333008 2.33301 -1 3h-252v72h360v-69l-37 -46.5l-47.5 -59.5l-52.5 -66.5l-52.5 -66.5l-47 -59.5zM193 626
c0 15.333 5.16699 28.166 15.5 38.499s22.833 15.5 37.5 15.5s27.167 -5.16699 37.5 -15.5s15.5 -23.166 15.5 -38.499c0 -14 -5.16699 -26.333 -15.5 -37s-22.833 -16 -37.5 -16s-27.167 5.33301 -37.5 16s-15.5 23 -15.5 37z" />
    <glyph glyph-name="Zcaron" unicode="&#x17d;" horiz-adv-x="562" 
d="M37 80l385 488h-366v83h475v-81l-385 -487h384v-83h-493v80zM438 840l35 -29l-131 -120h-77l-130 119l35 29l132 -81z" />
    <glyph glyph-name="zcaron" unicode="&#x17e;" horiz-adv-x="459" 
d="M142 74c0 -0.666992 0.166992 -1 0.5 -1s0.5 -0.333008 0.5 -1h273v-72h-379v69l59 75.5l77 96.5l76.5 96.5l58.5 75.5c0 1.33301 -0.333008 2.33301 -1 3h-252v72h360v-69l-37 -46.5l-47.5 -59.5l-52.5 -66.5l-52.5 -66.5l-47 -59.5zM371 712l34 -28l-129 -132h-78
l-130 132l35 28l132 -93z" />
    <glyph glyph-name="florin" unicode="&#x192;" horiz-adv-x="618" 
d="M170 408h97.0029c3.33301 28.667 7.66602 59.167 12.999 91.5s14.5 61.833 27.5 88.5s31.167 48.834 54.5 66.501s54.666 26.5 93.999 26.5c16.667 0 32.667 -1.5 48 -4.5s28.666 -6.5 39.999 -10.5l-9.5 -37l-9.5 -37c-11.333 4 -22.5 6.83301 -33.5 8.5
s-21.5 2.5 -31.5 2.5c-18.667 0 -34.167 -5.5 -46.5 -16.5s-22.166 -25.667 -29.499 -44s-13 -39.166 -17 -62.499s-7 -47.333 -9 -72h101v-73h-112l-21 -174.5c-6.66699 -53 -16.5 -98.833 -29.5 -137.5s-31.167 -68.834 -54.5 -90.501s-56 -32.5 -98 -32.5
c-13.333 0 -29 1.66699 -47 5s-33.667 8.33301 -47 15l24 71c11.333 -4 21.833 -7.16699 31.5 -9.5s18.167 -3.5 25.5 -3.5c14.667 0 27.167 3 37.5 9s19 14.667 26 26s12.667 25.166 17 41.499s8.16602 34.5 11.499 54.5c6 34 11.833 71.5 17.5 112.5
s11.167 78.833 16.5 113.5h-87v73z" />
    <glyph glyph-name="Ohorn" unicode="&#x1a0;" horiz-adv-x="644" 
d="M321 -10c-44 0 -83.165 8.32812 -117.498 24.9951s-63.333 39.834 -87 69.501s-41.5 65 -53.5 106s-18 85.833 -18 134.5c0 48 6.16699 92.5 18.5 133.5s30.166 76.5 53.499 106.5s52.333 53.5 87 70.5s74 25.5 118 25.5c47.333 0 90 -10.333 128 -31h9
c27.333 0 46.833 7.16699 58.5 21.5s17.5 40.5 17.5 78.5v37h74v-49c0 -37.333 -7.16699 -68.666 -21.5 -93.999s-36.833 -42.666 -67.5 -51.999c25.333 -30 44.666 -65.667 57.999 -107s20 -87.666 20 -138.999c0 -50.667 -6.5 -96.667 -19.5 -138
s-31.5 -76.666 -55.5 -105.999s-53 -52 -87 -68s-72.333 -24 -115 -24zM321.002 576.995c-30 0 -56.333 -6.33105 -79 -18.998s-41.5 -30.167 -56.5 -52.5s-26.333 -48.833 -34 -79.5s-11.5 -64 -11.5 -100c0 -34.667 3.83301 -67.334 11.5 -98.001s19 -57.334 34 -80.001
s34 -40.667 57 -54s49.5 -20 79.5 -20s56.333 6.66699 79 20s41.5 31.5 56.5 54.5s26.333 49.667 34 80s11.5 62.5 11.5 96.5c0 36 -3.83301 69.5 -11.5 100.5s-19 57.667 -34 80s-34 39.833 -57 52.5s-49.5 19 -79.5 19z" />
    <glyph glyph-name="ohorn" unicode="&#x1a1;" horiz-adv-x="542" 
d="M257 -10c-32 0 -61.001 5.66504 -87.001 16.998s-48.333 27.833 -67 49.5s-33 47.834 -43 78.501s-15 65.334 -15 104.001c0 41.333 5.5 78 16.5 110s26.333 59 46 81s42.834 38.667 69.501 50s56 17 88 17c48.667 0 90.334 -13.333 125.001 -40
c27.333 0 46.833 7.16699 58.5 21.5s17.5 40.166 17.5 77.499v37h73v-49c0 -39.333 -7.5 -71.666 -22.5 -96.999s-39.167 -42.333 -72.5 -51c11.333 -19.333 20.166 -41.333 26.499 -66s9.5 -51.667 9.5 -81c0 -41.333 -5.66699 -78 -17 -110s-27 -59 -47 -81
s-43.5 -38.833 -70.5 -50.5s-56.5 -17.5 -88.5 -17.5zM261.999 421.998c-20.667 0 -38.832 -4.50098 -54.499 -13.501s-29 -21.5 -40 -37.5s-19.333 -34.667 -25 -56s-8.5 -44.333 -8.5 -69c0 -56 10.667 -100.167 32 -132.5s53 -48.5 95 -48.5
c20.667 0 39.167 4.83301 55.5 14.5s30.166 22.667 41.499 39s19.833 35.333 25.5 57s8.5 44.5 8.5 68.5c0 26 -2.66699 49.833 -8 71.5s-13.5 40.334 -24.5 56.001s-24.5 28 -40.5 37s-35 13.5 -57 13.5z" />
    <glyph glyph-name="Uhorn" unicode="&#x1af;" horiz-adv-x="690" 
d="M313 -10c-78.667 0 -139.834 23.5 -183.501 70.5s-65.5 117.5 -65.5 211.5v379h93v-375c0 -62.667 13.167 -111.834 39.5 -147.501s65.833 -53.5 118.5 -53.5c54.667 0 94.834 17.333 120.501 52s38.5 82.334 38.5 143.001v381h94v-22c22 2 37.833 10.5 47.5 25.5
s14.5 39.833 14.5 74.5v37h74v-49c0 -46 -10.833 -82.667 -32.5 -110s-56.167 -42 -103.5 -44v-292c0 -94.667 -22.5 -165.167 -67.5 -211.5s-107.5 -69.5 -187.5 -69.5z" />
    <glyph glyph-name="uhorn" unicode="&#x1b0;" horiz-adv-x="567" 
d="M52 488l88.0029 0.000976562v-290c0 -42.667 8 -74.834 24 -96.501s42.333 -32.5 79 -32.5c28 0 51.167 8 69.5 24s31.166 37 38.499 63c4 14 6 29.333 6 46v286h88v-31c23.333 1.33301 40.166 9.33301 50.499 24s15.5 39.667 15.5 75v37h73v-49
c0 -46.667 -11 -83.5 -33 -110.5s-57.333 -41.167 -106 -42.5v-391h-88v63h-3c-18.667 -26 -40.334 -44.667 -65.001 -56s-48.667 -17 -72 -17c-110 0 -165 62 -165 186v312z" />
    <glyph glyph-name="AEacute" unicode="&#x1fc;" horiz-adv-x="906" 
d="M447 173h-231l-105 -173h-101l388 651h475v-83h-332v-182h234v-82h-234v-222h344v-82h-438v173zM260 253h187v314zM547 690l-31 38l139 101l72 -64z" />
    </font>
</defs>
</svg>
